<svg width="91" height="91" viewBox="0 0 91 91" fill="none" xmlns="http://www.w3.org/2000/svg">
<path d="M46.9555 0.102056L44.5871 0.102056C20.4363 0.102058 0.855466 20.2304 0.855467 45.0628C0.855468 69.8951 20.4363 90.0234 44.5871 90.0234L90.6871 90.0234L90.6871 45.0627C90.6871 20.2304 71.1063 0.102055 46.9555 0.102056Z" fill="#7771D7"/>
<circle cx="45.6482" cy="45.0623" r="44.9607" fill="#7771D7"/>
<path fill-rule="evenodd" clip-rule="evenodd" d="M35.32 40.4274C33.6594 40.9659 32.1306 41.8911 30.8729 43.1488C28.784 45.2395 27.6094 48.0745 27.6094 51.0292V57.2836C27.6094 57.6829 27.9328 58.0064 28.3322 58.0064H38.6936C38.7496 58.066 38.8165 58.1202 38.8924 58.16L43.3846 60.5417L45.7681 65.0358C45.8928 65.2725 46.1386 65.4189 46.406 65.4189C46.6734 65.4189 46.9192 65.2725 47.0439 65.0358L49.4273 60.5417L53.9214 58.16C54.1564 58.0353 54.3045 57.7896 54.3045 57.5221C54.3045 57.2529 54.1564 57.0071 53.9214 56.8824L49.8972 54.7483V51.0294C49.8972 48.0749 48.7244 45.2395 46.6336 43.1489C45.3759 41.8912 43.8472 40.966 42.1865 40.4275C44.3025 39.2295 45.7283 36.958 45.7283 34.3559C45.7283 30.5051 42.6039 27.3789 38.7532 27.3789C34.9042 27.3789 31.778 30.5051 31.778 34.3559C31.778 36.958 33.2058 39.2292 35.32 40.4274ZM46.4063 51.8874L48.2549 55.3732C48.3218 55.4997 48.4266 55.6063 48.5531 55.6732L52.0389 57.5218L48.5531 59.3686C48.4266 59.4373 48.3218 59.5403 48.2549 59.6686L46.4063 63.1544L44.5577 59.6686C44.4909 59.5403 44.386 59.4373 44.2596 59.3686L40.7737 57.5218L44.2596 55.6732C44.386 55.6063 44.4909 55.4997 44.5577 55.3732L46.4063 51.8874ZM38.759 41.3308H38.75C36.1786 41.3326 33.7136 42.3536 31.8961 44.1715C30.0782 45.9894 29.0554 48.4578 29.0554 51.0291V56.5604H39.5001L43.3852 54.5004L45.7687 50.0063C45.8933 49.7696 46.1391 49.6232 46.4065 49.6232C46.674 49.6232 46.9198 49.7696 47.0444 50.0063L48.4521 52.6609V51.0291C48.4521 48.4577 47.4312 45.9891 45.6115 44.1715C43.7954 42.3536 41.3302 41.3326 38.759 41.3308ZM38.7608 39.8852H38.7392C35.6943 39.8779 33.224 37.4023 33.224 34.3557C33.224 31.3036 35.7015 28.8243 38.7535 28.8243C41.8055 28.8243 44.283 31.3036 44.283 34.3557C44.283 37.4041 41.8095 39.8815 38.7608 39.8852Z" fill="white"/>
<path fill-rule="evenodd" clip-rule="evenodd" d="M63.3226 53.6329C63.1961 53.3944 62.9504 53.248 62.6829 53.248C62.4155 53.248 62.1715 53.3944 62.045 53.6329L59.526 58.3853L54.7737 60.9025C54.537 61.029 54.3906 61.2747 54.3906 61.5422C54.3906 61.8096 54.537 62.0536 54.7737 62.18L59.526 64.6991L62.045 69.4514C62.1715 69.6881 62.4155 69.8345 62.6829 69.8345C62.9504 69.8345 63.1961 69.6881 63.3226 69.4514L65.8398 64.6991L70.5921 62.18C70.8307 62.0536 70.977 61.8096 70.977 61.5422C70.977 61.2747 70.8307 61.029 70.5921 60.9025L65.8398 58.3853L63.3226 53.6329ZM62.6829 55.5123L64.6671 59.2583C64.7358 59.3848 64.8406 59.4896 64.9671 59.5583L68.7131 61.5424L64.9671 63.5266C64.8406 63.5934 64.7358 63.7 64.6671 63.8265L62.6829 67.5707L60.6988 63.8265C60.6319 63.7 60.5253 63.5934 60.3988 63.5266L56.6546 61.5424L60.3988 59.5583C60.5253 59.4896 60.6319 59.3848 60.6988 59.2583L62.6829 55.5123Z" fill="white"/>
<path fill-rule="evenodd" clip-rule="evenodd" d="M59.7912 43.0613C59.6683 42.8156 59.4189 42.6602 59.1442 42.6602C58.8696 42.6602 58.6184 42.8156 58.4973 43.0613L56.7572 46.5561L53.2605 48.2981C53.0166 48.4192 52.8594 48.6704 52.8594 48.945C52.8594 49.2179 53.0166 49.4691 53.2605 49.5919L56.7572 51.3321L58.4973 54.8269C58.6184 55.0727 58.8696 55.2281 59.1442 55.2281C59.4189 55.2281 59.6683 55.0727 59.7912 54.8269L61.5313 51.3321L65.0262 49.5919C65.2719 49.4691 65.4273 49.2179 65.4273 48.945C65.4273 48.6704 65.2719 48.4192 65.0262 48.2981L61.5313 46.5561L59.7912 43.0613ZM59.1442 45.0057L60.3441 47.4181C60.4146 47.559 60.5285 47.6729 60.6694 47.7433L63.0818 48.945L60.6694 50.1449C60.5285 50.2154 60.4146 50.3293 60.3441 50.4702L59.1442 52.8826L57.9425 50.4702C57.8721 50.3293 57.76 50.2154 57.6191 50.1449L55.2049 48.945L57.6191 47.7433C57.76 47.6729 57.8721 47.559 57.9425 47.4181L59.1442 45.0057Z" fill="white"/>
<path fill-rule="evenodd" clip-rule="evenodd" d="M53.5129 35.6149C53.3846 35.3872 53.1442 35.248 52.884 35.248C52.622 35.248 52.3817 35.3872 52.2552 35.6149L51.0173 37.8104L48.8218 39.0483C48.5941 39.1748 48.4531 39.4169 48.4531 39.6771C48.4531 39.9374 48.5941 40.1795 48.8218 40.306L51.0173 41.5438L52.2552 43.7394C52.3816 43.9671 52.622 44.108 52.884 44.108C53.1442 44.108 53.3846 43.9671 53.5129 43.7394L54.7507 41.5438L56.9463 40.306C57.1722 40.1795 57.3131 39.9374 57.3131 39.6771C57.3131 39.4169 57.1722 39.1748 56.9463 39.0483L54.7507 37.8104L53.5129 35.6149ZM52.884 37.4418L53.5905 38.6941C53.6556 38.8097 53.7514 38.9055 53.8652 38.9705L55.1193 39.6771L53.8652 40.3836C53.7514 40.4487 53.6556 40.5444 53.5905 40.6601L52.884 41.9123L52.1775 40.6601C52.1106 40.5444 52.0167 40.4487 51.901 40.3836L50.6487 39.6771L51.901 38.9705C52.0167 38.9055 52.1106 38.8097 52.1775 38.6941L52.884 37.4418Z" fill="white"/>
</svg>
