<svg width="91" height="91" viewBox="0 0 91 91" fill="none" xmlns="http://www.w3.org/2000/svg">
<path d="M90.4922 46.2419L90.4922 43.8714C90.4922 19.6995 70.3462 0.101562 45.4922 0.101562C20.6381 0.101562 0.492188 19.6995 0.492188 43.8714L0.492188 90.0118L45.4922 90.0118C70.3462 90.0118 90.4922 70.4138 90.4922 46.2419Z" fill="#7771D7"/>
<mask id="path-2-outside-1_1_6986" maskUnits="userSpaceOnUse" x="24.4766" y="23.4258" width="42" height="47" fill="black">
<rect fill="white" x="24.4766" y="23.4258" width="42" height="47"/>
<path d="M62.0779 52.6375V41.2666C63.99 41.1228 65.5024 39.5242 65.5024 37.5766C65.5024 35.5343 63.8412 33.8726 61.7984 33.8726C60.5394 33.8726 59.4276 34.5051 58.7575 35.4677L48.8239 29.7324C49.0583 29.2466 49.1935 28.7047 49.1935 28.1298C49.1935 26.0875 47.5318 24.4258 45.489 24.4258C43.4467 24.4258 41.785 26.0875 41.785 28.1298C41.785 28.7042 41.9202 29.2466 42.1551 29.7324L32.2215 35.4677C31.5519 34.5056 30.4391 33.8731 29.1806 33.8731C27.1378 33.8731 25.4766 35.5343 25.4766 37.5771C25.4766 39.5252 26.989 41.1233 28.9011 41.2671V52.638C26.989 52.7817 25.4766 54.3803 25.4766 56.328C25.4766 58.3708 27.1378 60.032 29.1806 60.032C30.4331 60.032 31.5404 59.4055 32.2115 58.4509L42.1556 64.1922C41.9207 64.6785 41.7855 65.2209 41.7855 65.7953C41.7855 67.8376 43.4472 69.4993 45.4895 69.4993C47.5323 69.4993 49.194 67.8381 49.194 65.7953C49.194 65.2209 49.0583 64.6785 48.8239 64.1922L58.768 58.4504C59.4386 59.4055 60.5459 60.032 61.7989 60.032C63.8412 60.032 65.5029 58.3708 65.5029 56.328C65.5024 54.3798 63.99 52.7812 62.0779 52.6375ZM58.9608 36.2299C59.0409 36.0606 59.1361 35.8994 59.2438 35.7486C59.8157 34.9528 60.7457 34.4315 61.7984 34.4315C63.5327 34.4315 64.9435 35.8423 64.9435 37.5766C64.9435 39.2167 63.6815 40.5659 62.0774 40.7082C61.9847 40.7162 61.8926 40.7222 61.7979 40.7222C61.7033 40.7222 61.6106 40.7162 61.5185 40.7082C60.5699 40.624 59.7431 40.1182 59.2242 39.3795C59.1176 39.2278 59.0254 39.0655 58.9458 38.8952C58.7595 38.4936 58.6523 38.0479 58.6523 37.5766C58.6533 37.0943 58.766 36.6386 58.9608 36.2299ZM48.8259 45.3642L58.7385 39.66C59.3565 40.5649 60.3651 41.1799 61.5195 41.2666V52.6375C60.3496 52.7256 59.3299 53.3567 58.7139 54.2812L48.8149 48.5844C49.0548 48.0936 49.194 47.5442 49.194 46.9623C49.1935 46.3894 49.0588 45.8485 48.8259 45.3642ZM58.4765 35.95C58.2346 36.4418 58.0949 36.9926 58.0949 37.5771C58.0949 38.15 58.2291 38.6904 58.4625 39.1747L48.5494 44.8789C47.9314 43.974 46.9228 43.3595 45.7684 43.2723V31.8193C46.9213 31.7326 47.9279 31.1196 48.5464 30.2167L58.4765 35.95ZM48.6351 46.9623C48.6351 47.4436 48.5229 47.8973 48.3296 48.3055C48.249 48.4752 48.1543 48.636 48.0466 48.7873C47.5263 49.5134 46.707 50.0097 45.7689 50.0934C45.6768 50.1014 45.5841 50.1074 45.4895 50.1074C45.3953 50.1074 45.3022 50.1009 45.21 50.0934C44.2715 50.0102 43.4522 49.5134 42.9323 48.7878C42.8242 48.6365 42.73 48.4752 42.6494 48.306C42.4561 47.8983 42.3439 47.4436 42.3439 46.9623C42.3439 46.491 42.4511 46.0448 42.6379 45.6432C42.717 45.4734 42.8091 45.3111 42.9163 45.1594C43.4357 44.4207 44.2625 43.9149 45.2105 43.8312C45.3027 43.8232 45.3953 43.8172 45.4895 43.8172C45.5836 43.8172 45.6773 43.8232 45.7694 43.8312C46.7175 43.9154 47.5443 44.4212 48.0637 45.1594C48.1703 45.3111 48.2625 45.4734 48.3421 45.6432C48.5274 46.0448 48.6351 46.491 48.6351 46.9623ZM45.489 24.9842C47.2233 24.9842 48.6351 26.395 48.6351 28.1298C48.6351 28.6025 48.5269 29.0498 48.3391 29.4524C48.2605 29.6222 48.1668 29.7845 48.0597 29.9362C47.5408 30.6724 46.7145 31.1767 45.7684 31.2609C45.6763 31.2694 45.5836 31.2749 45.489 31.2749C45.3948 31.2749 45.3017 31.2689 45.2095 31.2609C44.263 31.1772 43.4372 30.6734 42.9178 29.9367C42.8112 29.7845 42.718 29.6227 42.6389 29.4529C42.4511 29.0503 42.3434 28.603 42.3434 28.1303C42.3439 26.3955 43.7547 24.9842 45.489 24.9842ZM42.4325 30.2167C43.0505 31.1196 44.0582 31.7326 45.2105 31.8193V43.2723C44.0562 43.359 43.0475 43.974 42.4295 44.8789L32.5175 39.1747C32.7503 38.6904 32.8851 38.1495 32.8851 37.5771C32.8851 36.9926 32.7453 36.4418 32.5034 35.95L42.4325 30.2167ZM42.1646 48.5844L32.2651 54.2812C31.6496 53.3557 30.6294 52.7256 29.46 52.6375V41.2666C30.6144 41.1799 31.623 40.5649 32.241 39.66L42.1531 45.3642C41.9197 45.849 41.7855 46.3894 41.7855 46.9618C41.7855 47.5447 41.9242 48.0941 42.1646 48.5844ZM26.035 37.5766C26.035 35.8423 27.4463 34.4315 29.1806 34.4315C30.2328 34.4315 31.1638 34.9528 31.7352 35.7481C31.8434 35.8989 31.938 36.0601 32.0187 36.2294C32.214 36.6386 32.3262 37.0943 32.3262 37.5766C32.3262 38.0479 32.219 38.4941 32.0327 38.8957C31.9541 39.0655 31.8614 39.2278 31.7542 39.38C31.2354 40.1187 30.4081 40.624 29.46 40.7082C29.3679 40.7162 29.2752 40.7222 29.1806 40.7222C29.0859 40.7222 28.9933 40.7162 28.9011 40.7082C27.2975 40.5659 26.035 39.2167 26.035 37.5766ZM32.0112 57.6897C31.9295 57.859 31.8339 58.0192 31.7247 58.17C31.1523 58.9577 30.2263 59.4736 29.1801 59.4736C27.4458 59.4736 26.0345 58.0628 26.0345 56.328C26.0345 54.6883 27.297 53.3381 28.9006 53.1964C28.9928 53.1884 29.0854 53.1824 29.1801 53.1824C29.2747 53.1824 29.3674 53.1889 29.4595 53.1964C30.4231 53.2815 31.2629 53.8019 31.7803 54.5606C31.8849 54.7139 31.9751 54.8781 32.0517 55.0494C32.2265 55.4405 32.3262 55.8732 32.3262 56.3285C32.3262 56.8158 32.211 57.277 32.0112 57.6897ZM32.4959 57.9691C32.7423 57.4743 32.8846 56.9174 32.8846 56.3275C32.8846 55.7711 32.7579 55.2437 32.5365 54.77L42.4456 49.0672C43.0651 49.9602 44.0657 50.5661 45.2105 50.6518V62.1048C44.0582 62.191 43.051 62.804 42.433 63.7069L32.4959 57.9691ZM45.489 68.9404C43.7547 68.9404 42.3439 67.5296 42.3439 65.7953C42.3439 65.322 42.4521 64.8743 42.6399 64.4717C42.7195 64.3014 42.8122 64.1396 42.9188 63.9879C43.4382 63.2507 44.264 62.7469 45.2105 62.6632C45.3027 62.6552 45.3953 62.6492 45.4895 62.6492C45.5836 62.6492 45.6773 62.6557 45.7694 62.6632C46.7155 62.7474 47.5408 63.2517 48.0602 63.9879C48.1678 64.1396 48.26 64.3014 48.3396 64.4717C48.5279 64.8743 48.6361 65.3215 48.6361 65.7953C48.6351 67.5291 47.2233 68.9404 45.489 68.9404ZM48.5464 63.7074C47.9284 62.805 46.9208 62.1925 45.7689 62.1053V50.6518C46.9133 50.5656 47.9139 49.9592 48.5334 49.0672L58.443 54.77C58.2226 55.2437 58.0954 55.7711 58.0954 56.3275C58.0954 56.9179 58.2376 57.4733 58.4835 57.9691L48.5464 63.7074ZM61.7984 59.4731C60.7522 59.4731 59.8262 58.9577 59.2538 58.169C59.1446 58.0187 59.0495 57.8584 58.9673 57.6897C58.7685 57.277 58.6533 56.8158 58.6533 56.3275C58.6533 55.8722 58.7525 55.4405 58.9278 55.0484C59.0039 54.8771 59.094 54.7134 59.1987 54.5601C59.716 53.8009 60.5559 53.2805 61.5195 53.1954C61.6116 53.1874 61.7043 53.1814 61.7989 53.1814C61.8936 53.1814 61.9857 53.1879 62.0784 53.1954C63.6825 53.3371 64.9445 54.6873 64.9445 56.327C64.944 58.0623 63.5327 59.4731 61.7984 59.4731Z"/>
</mask>
<path d="M62.0779 52.6375V41.2666C63.99 41.1228 65.5024 39.5242 65.5024 37.5766C65.5024 35.5343 63.8412 33.8726 61.7984 33.8726C60.5394 33.8726 59.4276 34.5051 58.7575 35.4677L48.8239 29.7324C49.0583 29.2466 49.1935 28.7047 49.1935 28.1298C49.1935 26.0875 47.5318 24.4258 45.489 24.4258C43.4467 24.4258 41.785 26.0875 41.785 28.1298C41.785 28.7042 41.9202 29.2466 42.1551 29.7324L32.2215 35.4677C31.5519 34.5056 30.4391 33.8731 29.1806 33.8731C27.1378 33.8731 25.4766 35.5343 25.4766 37.5771C25.4766 39.5252 26.989 41.1233 28.9011 41.2671V52.638C26.989 52.7817 25.4766 54.3803 25.4766 56.328C25.4766 58.3708 27.1378 60.032 29.1806 60.032C30.4331 60.032 31.5404 59.4055 32.2115 58.4509L42.1556 64.1922C41.9207 64.6785 41.7855 65.2209 41.7855 65.7953C41.7855 67.8376 43.4472 69.4993 45.4895 69.4993C47.5323 69.4993 49.194 67.8381 49.194 65.7953C49.194 65.2209 49.0583 64.6785 48.8239 64.1922L58.768 58.4504C59.4386 59.4055 60.5459 60.032 61.7989 60.032C63.8412 60.032 65.5029 58.3708 65.5029 56.328C65.5024 54.3798 63.99 52.7812 62.0779 52.6375ZM58.9608 36.2299C59.0409 36.0606 59.1361 35.8994 59.2438 35.7486C59.8157 34.9528 60.7457 34.4315 61.7984 34.4315C63.5327 34.4315 64.9435 35.8423 64.9435 37.5766C64.9435 39.2167 63.6815 40.5659 62.0774 40.7082C61.9847 40.7162 61.8926 40.7222 61.7979 40.7222C61.7033 40.7222 61.6106 40.7162 61.5185 40.7082C60.5699 40.624 59.7431 40.1182 59.2242 39.3795C59.1176 39.2278 59.0254 39.0655 58.9458 38.8952C58.7595 38.4936 58.6523 38.0479 58.6523 37.5766C58.6533 37.0943 58.766 36.6386 58.9608 36.2299ZM48.8259 45.3642L58.7385 39.66C59.3565 40.5649 60.3651 41.1799 61.5195 41.2666V52.6375C60.3496 52.7256 59.3299 53.3567 58.7139 54.2812L48.8149 48.5844C49.0548 48.0936 49.194 47.5442 49.194 46.9623C49.1935 46.3894 49.0588 45.8485 48.8259 45.3642ZM58.4765 35.95C58.2346 36.4418 58.0949 36.9926 58.0949 37.5771C58.0949 38.15 58.2291 38.6904 58.4625 39.1747L48.5494 44.8789C47.9314 43.974 46.9228 43.3595 45.7684 43.2723V31.8193C46.9213 31.7326 47.9279 31.1196 48.5464 30.2167L58.4765 35.95ZM48.6351 46.9623C48.6351 47.4436 48.5229 47.8973 48.3296 48.3055C48.249 48.4752 48.1543 48.636 48.0466 48.7873C47.5263 49.5134 46.707 50.0097 45.7689 50.0934C45.6768 50.1014 45.5841 50.1074 45.4895 50.1074C45.3953 50.1074 45.3022 50.1009 45.21 50.0934C44.2715 50.0102 43.4522 49.5134 42.9323 48.7878C42.8242 48.6365 42.73 48.4752 42.6494 48.306C42.4561 47.8983 42.3439 47.4436 42.3439 46.9623C42.3439 46.491 42.4511 46.0448 42.6379 45.6432C42.717 45.4734 42.8091 45.3111 42.9163 45.1594C43.4357 44.4207 44.2625 43.9149 45.2105 43.8312C45.3027 43.8232 45.3953 43.8172 45.4895 43.8172C45.5836 43.8172 45.6773 43.8232 45.7694 43.8312C46.7175 43.9154 47.5443 44.4212 48.0637 45.1594C48.1703 45.3111 48.2625 45.4734 48.3421 45.6432C48.5274 46.0448 48.6351 46.491 48.6351 46.9623ZM45.489 24.9842C47.2233 24.9842 48.6351 26.395 48.6351 28.1298C48.6351 28.6025 48.5269 29.0498 48.3391 29.4524C48.2605 29.6222 48.1668 29.7845 48.0597 29.9362C47.5408 30.6724 46.7145 31.1767 45.7684 31.2609C45.6763 31.2694 45.5836 31.2749 45.489 31.2749C45.3948 31.2749 45.3017 31.2689 45.2095 31.2609C44.263 31.1772 43.4372 30.6734 42.9178 29.9367C42.8112 29.7845 42.718 29.6227 42.6389 29.4529C42.4511 29.0503 42.3434 28.603 42.3434 28.1303C42.3439 26.3955 43.7547 24.9842 45.489 24.9842ZM42.4325 30.2167C43.0505 31.1196 44.0582 31.7326 45.2105 31.8193V43.2723C44.0562 43.359 43.0475 43.974 42.4295 44.8789L32.5175 39.1747C32.7503 38.6904 32.8851 38.1495 32.8851 37.5771C32.8851 36.9926 32.7453 36.4418 32.5034 35.95L42.4325 30.2167ZM42.1646 48.5844L32.2651 54.2812C31.6496 53.3557 30.6294 52.7256 29.46 52.6375V41.2666C30.6144 41.1799 31.623 40.5649 32.241 39.66L42.1531 45.3642C41.9197 45.849 41.7855 46.3894 41.7855 46.9618C41.7855 47.5447 41.9242 48.0941 42.1646 48.5844ZM26.035 37.5766C26.035 35.8423 27.4463 34.4315 29.1806 34.4315C30.2328 34.4315 31.1638 34.9528 31.7352 35.7481C31.8434 35.8989 31.938 36.0601 32.0187 36.2294C32.214 36.6386 32.3262 37.0943 32.3262 37.5766C32.3262 38.0479 32.219 38.4941 32.0327 38.8957C31.9541 39.0655 31.8614 39.2278 31.7542 39.38C31.2354 40.1187 30.4081 40.624 29.46 40.7082C29.3679 40.7162 29.2752 40.7222 29.1806 40.7222C29.0859 40.7222 28.9933 40.7162 28.9011 40.7082C27.2975 40.5659 26.035 39.2167 26.035 37.5766ZM32.0112 57.6897C31.9295 57.859 31.8339 58.0192 31.7247 58.17C31.1523 58.9577 30.2263 59.4736 29.1801 59.4736C27.4458 59.4736 26.0345 58.0628 26.0345 56.328C26.0345 54.6883 27.297 53.3381 28.9006 53.1964C28.9928 53.1884 29.0854 53.1824 29.1801 53.1824C29.2747 53.1824 29.3674 53.1889 29.4595 53.1964C30.4231 53.2815 31.2629 53.8019 31.7803 54.5606C31.8849 54.7139 31.9751 54.8781 32.0517 55.0494C32.2265 55.4405 32.3262 55.8732 32.3262 56.3285C32.3262 56.8158 32.211 57.277 32.0112 57.6897ZM32.4959 57.9691C32.7423 57.4743 32.8846 56.9174 32.8846 56.3275C32.8846 55.7711 32.7579 55.2437 32.5365 54.77L42.4456 49.0672C43.0651 49.9602 44.0657 50.5661 45.2105 50.6518V62.1048C44.0582 62.191 43.051 62.804 42.433 63.7069L32.4959 57.9691ZM45.489 68.9404C43.7547 68.9404 42.3439 67.5296 42.3439 65.7953C42.3439 65.322 42.4521 64.8743 42.6399 64.4717C42.7195 64.3014 42.8122 64.1396 42.9188 63.9879C43.4382 63.2507 44.264 62.7469 45.2105 62.6632C45.3027 62.6552 45.3953 62.6492 45.4895 62.6492C45.5836 62.6492 45.6773 62.6557 45.7694 62.6632C46.7155 62.7474 47.5408 63.2517 48.0602 63.9879C48.1678 64.1396 48.26 64.3014 48.3396 64.4717C48.5279 64.8743 48.6361 65.3215 48.6361 65.7953C48.6351 67.5291 47.2233 68.9404 45.489 68.9404ZM48.5464 63.7074C47.9284 62.805 46.9208 62.1925 45.7689 62.1053V50.6518C46.9133 50.5656 47.9139 49.9592 48.5334 49.0672L58.443 54.77C58.2226 55.2437 58.0954 55.7711 58.0954 56.3275C58.0954 56.9179 58.2376 57.4733 58.4835 57.9691L48.5464 63.7074ZM61.7984 59.4731C60.7522 59.4731 59.8262 58.9577 59.2538 58.169C59.1446 58.0187 59.0495 57.8584 58.9673 57.6897C58.7685 57.277 58.6533 56.8158 58.6533 56.3275C58.6533 55.8722 58.7525 55.4405 58.9278 55.0484C59.0039 54.8771 59.094 54.7134 59.1987 54.5601C59.716 53.8009 60.5559 53.2805 61.5195 53.1954C61.6116 53.1874 61.7043 53.1814 61.7989 53.1814C61.8936 53.1814 61.9857 53.1879 62.0784 53.1954C63.6825 53.3371 64.9445 54.6873 64.9445 56.327C64.944 58.0623 63.5327 59.4731 61.7984 59.4731Z" fill="white"/>
<path d="M62.0779 52.6375V41.2666C63.99 41.1228 65.5024 39.5242 65.5024 37.5766C65.5024 35.5343 63.8412 33.8726 61.7984 33.8726C60.5394 33.8726 59.4276 34.5051 58.7575 35.4677L48.8239 29.7324C49.0583 29.2466 49.1935 28.7047 49.1935 28.1298C49.1935 26.0875 47.5318 24.4258 45.489 24.4258C43.4467 24.4258 41.785 26.0875 41.785 28.1298C41.785 28.7042 41.9202 29.2466 42.1551 29.7324L32.2215 35.4677C31.5519 34.5056 30.4391 33.8731 29.1806 33.8731C27.1378 33.8731 25.4766 35.5343 25.4766 37.5771C25.4766 39.5252 26.989 41.1233 28.9011 41.2671V52.638C26.989 52.7817 25.4766 54.3803 25.4766 56.328C25.4766 58.3708 27.1378 60.032 29.1806 60.032C30.4331 60.032 31.5404 59.4055 32.2115 58.4509L42.1556 64.1922C41.9207 64.6785 41.7855 65.2209 41.7855 65.7953C41.7855 67.8376 43.4472 69.4993 45.4895 69.4993C47.5323 69.4993 49.194 67.8381 49.194 65.7953C49.194 65.2209 49.0583 64.6785 48.8239 64.1922L58.768 58.4504C59.4386 59.4055 60.5459 60.032 61.7989 60.032C63.8412 60.032 65.5029 58.3708 65.5029 56.328C65.5024 54.3798 63.99 52.7812 62.0779 52.6375ZM58.9608 36.2299C59.0409 36.0606 59.1361 35.8994 59.2438 35.7486C59.8157 34.9528 60.7457 34.4315 61.7984 34.4315C63.5327 34.4315 64.9435 35.8423 64.9435 37.5766C64.9435 39.2167 63.6815 40.5659 62.0774 40.7082C61.9847 40.7162 61.8926 40.7222 61.7979 40.7222C61.7033 40.7222 61.6106 40.7162 61.5185 40.7082C60.5699 40.624 59.7431 40.1182 59.2242 39.3795C59.1176 39.2278 59.0254 39.0655 58.9458 38.8952C58.7595 38.4936 58.6523 38.0479 58.6523 37.5766C58.6533 37.0943 58.766 36.6386 58.9608 36.2299ZM48.8259 45.3642L58.7385 39.66C59.3565 40.5649 60.3651 41.1799 61.5195 41.2666V52.6375C60.3496 52.7256 59.3299 53.3567 58.7139 54.2812L48.8149 48.5844C49.0548 48.0936 49.194 47.5442 49.194 46.9623C49.1935 46.3894 49.0588 45.8485 48.8259 45.3642ZM58.4765 35.95C58.2346 36.4418 58.0949 36.9926 58.0949 37.5771C58.0949 38.15 58.2291 38.6904 58.4625 39.1747L48.5494 44.8789C47.9314 43.974 46.9228 43.3595 45.7684 43.2723V31.8193C46.9213 31.7326 47.9279 31.1196 48.5464 30.2167L58.4765 35.95ZM48.6351 46.9623C48.6351 47.4436 48.5229 47.8973 48.3296 48.3055C48.249 48.4752 48.1543 48.636 48.0466 48.7873C47.5263 49.5134 46.707 50.0097 45.7689 50.0934C45.6768 50.1014 45.5841 50.1074 45.4895 50.1074C45.3953 50.1074 45.3022 50.1009 45.21 50.0934C44.2715 50.0102 43.4522 49.5134 42.9323 48.7878C42.8242 48.6365 42.73 48.4752 42.6494 48.306C42.4561 47.8983 42.3439 47.4436 42.3439 46.9623C42.3439 46.491 42.4511 46.0448 42.6379 45.6432C42.717 45.4734 42.8091 45.3111 42.9163 45.1594C43.4357 44.4207 44.2625 43.9149 45.2105 43.8312C45.3027 43.8232 45.3953 43.8172 45.4895 43.8172C45.5836 43.8172 45.6773 43.8232 45.7694 43.8312C46.7175 43.9154 47.5443 44.4212 48.0637 45.1594C48.1703 45.3111 48.2625 45.4734 48.3421 45.6432C48.5274 46.0448 48.6351 46.491 48.6351 46.9623ZM45.489 24.9842C47.2233 24.9842 48.6351 26.395 48.6351 28.1298C48.6351 28.6025 48.5269 29.0498 48.3391 29.4524C48.2605 29.6222 48.1668 29.7845 48.0597 29.9362C47.5408 30.6724 46.7145 31.1767 45.7684 31.2609C45.6763 31.2694 45.5836 31.2749 45.489 31.2749C45.3948 31.2749 45.3017 31.2689 45.2095 31.2609C44.263 31.1772 43.4372 30.6734 42.9178 29.9367C42.8112 29.7845 42.718 29.6227 42.6389 29.4529C42.4511 29.0503 42.3434 28.603 42.3434 28.1303C42.3439 26.3955 43.7547 24.9842 45.489 24.9842ZM42.4325 30.2167C43.0505 31.1196 44.0582 31.7326 45.2105 31.8193V43.2723C44.0562 43.359 43.0475 43.974 42.4295 44.8789L32.5175 39.1747C32.7503 38.6904 32.8851 38.1495 32.8851 37.5771C32.8851 36.9926 32.7453 36.4418 32.5034 35.95L42.4325 30.2167ZM42.1646 48.5844L32.2651 54.2812C31.6496 53.3557 30.6294 52.7256 29.46 52.6375V41.2666C30.6144 41.1799 31.623 40.5649 32.241 39.66L42.1531 45.3642C41.9197 45.849 41.7855 46.3894 41.7855 46.9618C41.7855 47.5447 41.9242 48.0941 42.1646 48.5844ZM26.035 37.5766C26.035 35.8423 27.4463 34.4315 29.1806 34.4315C30.2328 34.4315 31.1638 34.9528 31.7352 35.7481C31.8434 35.8989 31.938 36.0601 32.0187 36.2294C32.214 36.6386 32.3262 37.0943 32.3262 37.5766C32.3262 38.0479 32.219 38.4941 32.0327 38.8957C31.9541 39.0655 31.8614 39.2278 31.7542 39.38C31.2354 40.1187 30.4081 40.624 29.46 40.7082C29.3679 40.7162 29.2752 40.7222 29.1806 40.7222C29.0859 40.7222 28.9933 40.7162 28.9011 40.7082C27.2975 40.5659 26.035 39.2167 26.035 37.5766ZM32.0112 57.6897C31.9295 57.859 31.8339 58.0192 31.7247 58.17C31.1523 58.9577 30.2263 59.4736 29.1801 59.4736C27.4458 59.4736 26.0345 58.0628 26.0345 56.328C26.0345 54.6883 27.297 53.3381 28.9006 53.1964C28.9928 53.1884 29.0854 53.1824 29.1801 53.1824C29.2747 53.1824 29.3674 53.1889 29.4595 53.1964C30.4231 53.2815 31.2629 53.8019 31.7803 54.5606C31.8849 54.7139 31.9751 54.8781 32.0517 55.0494C32.2265 55.4405 32.3262 55.8732 32.3262 56.3285C32.3262 56.8158 32.211 57.277 32.0112 57.6897ZM32.4959 57.9691C32.7423 57.4743 32.8846 56.9174 32.8846 56.3275C32.8846 55.7711 32.7579 55.2437 32.5365 54.77L42.4456 49.0672C43.0651 49.9602 44.0657 50.5661 45.2105 50.6518V62.1048C44.0582 62.191 43.051 62.804 42.433 63.7069L32.4959 57.9691ZM45.489 68.9404C43.7547 68.9404 42.3439 67.5296 42.3439 65.7953C42.3439 65.322 42.4521 64.8743 42.6399 64.4717C42.7195 64.3014 42.8122 64.1396 42.9188 63.9879C43.4382 63.2507 44.264 62.7469 45.2105 62.6632C45.3027 62.6552 45.3953 62.6492 45.4895 62.6492C45.5836 62.6492 45.6773 62.6557 45.7694 62.6632C46.7155 62.7474 47.5408 63.2517 48.0602 63.9879C48.1678 64.1396 48.26 64.3014 48.3396 64.4717C48.5279 64.8743 48.6361 65.3215 48.6361 65.7953C48.6351 67.5291 47.2233 68.9404 45.489 68.9404ZM48.5464 63.7074C47.9284 62.805 46.9208 62.1925 45.7689 62.1053V50.6518C46.9133 50.5656 47.9139 49.9592 48.5334 49.0672L58.443 54.77C58.2226 55.2437 58.0954 55.7711 58.0954 56.3275C58.0954 56.9179 58.2376 57.4733 58.4835 57.9691L48.5464 63.7074ZM61.7984 59.4731C60.7522 59.4731 59.8262 58.9577 59.2538 58.169C59.1446 58.0187 59.0495 57.8584 58.9673 57.6897C58.7685 57.277 58.6533 56.8158 58.6533 56.3275C58.6533 55.8722 58.7525 55.4405 58.9278 55.0484C59.0039 54.8771 59.094 54.7134 59.1987 54.5601C59.716 53.8009 60.5559 53.2805 61.5195 53.1954C61.6116 53.1874 61.7043 53.1814 61.7989 53.1814C61.8936 53.1814 61.9857 53.1879 62.0784 53.1954C63.6825 53.3371 64.9445 54.6873 64.9445 56.327C64.944 58.0623 63.5327 59.4731 61.7984 59.4731Z" stroke="white" stroke-width="1.2" mask="url(#path-2-outside-1_1_6986)"/>
</svg>
