<svg width="91" height="91" viewBox="0 0 91 91" fill="none" xmlns="http://www.w3.org/2000/svg">
<path d="M0.355465 44.02L0.355465 46.3904C0.355467 70.5623 20.5014 90.1603 45.3555 90.1603C70.2095 90.1603 90.3555 70.5623 90.3555 46.3904L90.3555 0.250061L45.3555 0.250065C20.5014 0.250067 0.355463 19.848 0.355465 44.02Z" fill="#7771D7"/>
<path d="M45.0623 43.6646C45.1534 43.7096 45.2537 43.733 45.3553 43.733C45.457 43.733 45.5572 43.7096 45.6484 43.6646C56.6938 38.2112 56.4983 31.087 56.4607 30.5133C56.4381 29.1488 55.9712 27.8289 55.1307 26.7537C54.2903 25.6786 53.1221 24.9068 51.8035 24.5554C48.7482 23.679 46.5076 25.5519 45.3536 27.2188C44.1995 25.5519 41.9585 23.679 38.9036 24.5554C37.5855 24.9071 36.418 25.6788 35.5779 26.7536C34.7378 27.8285 34.2709 29.1479 34.2481 30.5119C34.2124 31.0883 34.0169 38.2112 45.0623 43.6646ZM35.5699 30.5878C35.5699 30.5662 35.5699 30.5415 35.5699 30.5199C35.5805 29.4383 35.9495 28.3908 36.6191 27.5414C37.2887 26.692 38.2212 26.0887 39.2704 25.826C39.6539 25.7135 40.0513 25.6554 40.4509 25.6534C43.2401 25.6534 44.6876 28.6668 44.7547 28.8106C44.8078 28.9252 44.8925 29.0222 44.999 29.0902C45.1054 29.1582 45.229 29.1943 45.3553 29.1943C45.4816 29.1943 45.6053 29.1582 45.7117 29.0902C45.8181 29.0222 45.9029 28.9252 45.956 28.8106C46.0319 28.6465 47.8598 24.799 51.4403 25.826C52.4891 26.089 53.4211 26.6923 54.0904 27.5416C54.7597 28.3909 55.1285 29.4382 55.139 30.5194C55.139 30.5406 55.139 30.5636 55.139 30.5865C55.1593 30.8571 55.4704 37.2121 45.3553 42.3314C35.2402 37.2121 35.5514 30.8571 35.5699 30.5878Z" fill="white"/>
<path d="M57.6475 44.1652C57.8183 44.2059 57.9982 44.1771 58.1478 44.0852C58.2973 43.9932 58.4042 43.8457 58.445 43.6749L60.0187 37.0758C60.1109 36.6878 60.3458 36.3487 60.6767 36.1262C61.0076 35.9036 61.4102 35.8138 61.8043 35.8748C62.1984 35.9357 62.5551 36.1429 62.8033 36.455C63.0515 36.7672 63.1731 37.1613 63.1437 37.5591L62.0687 52.2992C62.066 52.3374 62.066 52.3757 62.0687 52.4139C62.0713 52.4422 62.2492 55.2719 57.0954 58.0381C56.9754 58.1057 54.1562 59.7302 54.2524 62.5233C54.2582 62.695 54.3306 62.8577 54.4542 62.9771C54.5778 63.0964 54.743 63.163 54.9148 63.1628H54.9382C55.1137 63.1567 55.2795 63.0811 55.3993 62.9528C55.519 62.8244 55.5829 62.6537 55.5768 62.4783C55.5084 60.4945 57.7269 59.2041 57.7353 59.1988C63.3291 56.1956 63.4209 52.9109 63.3922 52.3504L64.4633 37.6544C64.5168 36.9249 64.2937 36.202 63.8383 35.6296C63.383 35.0572 62.7288 34.6773 62.006 34.5655C61.2831 34.4536 60.5447 34.6181 59.9377 35.0261C59.3306 35.4341 58.8995 36.0558 58.7301 36.7673L57.1572 43.3677C57.1165 43.5385 57.1452 43.7184 57.2372 43.868C57.3291 44.0176 57.4767 44.1245 57.6475 44.1652Z" fill="white"/>
<path d="M47.7788 51.2026C47.5325 51.3933 47.333 51.6376 47.1954 51.9169C47.0577 52.1963 46.9856 52.5033 46.9844 52.8147V61.244C46.9844 61.4195 47.0541 61.5879 47.1783 61.7121C47.3024 61.8362 47.4708 61.9059 47.6464 61.9059C47.8219 61.9059 47.9903 61.8362 48.1145 61.7121C48.2386 61.5879 48.3083 61.4195 48.3083 61.244V52.8147C48.3087 52.7059 48.3339 52.5986 48.3819 52.501C48.4299 52.4033 48.4995 52.3179 48.5855 52.2512L55.9233 46.5969C56.1596 46.4226 56.4396 46.3173 56.7321 46.2927C57.0247 46.268 57.3183 46.3251 57.5804 46.4575C57.8424 46.5899 58.0626 46.7924 58.2163 47.0425C58.3701 47.2927 58.4514 47.5805 58.4512 47.8741C58.4526 48.2795 58.297 48.6697 58.017 48.9629L53.7194 53.0561C53.6564 53.1161 53.6059 53.1879 53.5707 53.2674C53.5356 53.3469 53.5164 53.4326 53.5143 53.5195C53.5122 53.6064 53.5272 53.6929 53.5586 53.774C53.5899 53.8551 53.6369 53.9292 53.6969 53.9922C53.7569 54.0551 53.8287 54.1056 53.9082 54.1408C53.9877 54.176 54.0733 54.1952 54.1602 54.1973C54.2472 54.1994 54.3336 54.1843 54.4147 54.153C54.4958 54.1217 54.57 54.0747 54.6329 54.0147L58.9495 49.9038C59.4606 49.3795 59.7553 48.6819 59.7748 47.95C59.7943 47.2181 59.5371 46.5057 59.0546 45.955C58.5721 45.4044 57.8997 45.0558 57.1716 44.979C56.4435 44.9021 55.7132 45.1026 55.1263 45.5404L47.7788 51.2026Z" fill="white"/>
<path d="M27.3167 52.3497C27.288 52.9111 27.3789 56.1954 32.9612 59.1902C32.9837 59.203 35.2009 60.4784 35.1321 62.4767C35.1289 62.5636 35.143 62.6504 35.1734 62.7319C35.2038 62.8134 35.25 62.8881 35.3093 62.9518C35.3686 63.0154 35.4399 63.0668 35.519 63.1028C35.5982 63.1389 35.6837 63.1591 35.7707 63.1621H35.7941C35.9657 63.1622 36.1307 63.0956 36.2542 62.9764C36.3777 62.8571 36.4501 62.6946 36.456 62.523C36.5522 59.7299 33.7331 58.1054 33.6007 58.0313C28.4584 55.2717 28.6363 52.4419 28.6376 52.4238C28.6424 52.3824 28.6433 52.3406 28.6402 52.2989L27.5652 37.5584C27.5358 37.1606 27.6573 36.7665 27.9056 36.4543C28.1538 36.1422 28.5105 35.935 28.9046 35.8741C29.2987 35.8132 29.7013 35.9029 30.0322 36.1255C30.3631 36.348 30.598 36.6871 30.6902 37.0751L32.2639 43.6742C32.2842 43.7587 32.3209 43.8385 32.372 43.9088C32.4231 43.9792 32.4876 44.0388 32.5617 44.0842C32.6359 44.1297 32.7182 44.1601 32.8041 44.1737C32.89 44.1873 32.9777 44.1839 33.0623 44.1636C33.1468 44.1433 33.2266 44.1066 33.2969 44.0555C33.3673 44.0044 33.4269 43.9399 33.4723 43.8658C33.5178 43.7917 33.5482 43.7093 33.5618 43.6234C33.5754 43.5375 33.572 43.4498 33.5517 43.3653L31.9779 36.7675C31.8074 36.0574 31.376 35.4373 30.7694 35.0305C30.1629 34.6236 29.4255 34.4597 28.7038 34.5713C27.982 34.6829 27.3285 35.0618 26.8732 35.6328C26.4178 36.2038 26.1938 36.9252 26.2456 37.6537L27.3167 52.3497Z" fill="white"/>
<path d="M30.9354 47.8734C30.9361 48.6409 31.2399 49.3772 31.7805 49.922L36.0776 54.0166C36.1406 54.0766 36.2147 54.1236 36.2958 54.1549C36.3769 54.1862 36.4634 54.2013 36.5503 54.1992C36.6372 54.1971 36.7229 54.1779 36.8024 54.1427C36.8819 54.1075 36.9537 54.057 37.0137 53.9941C37.0737 53.9311 37.1207 53.857 37.152 53.7759C37.1833 53.6948 37.1984 53.6083 37.1963 53.5214C37.1942 53.4345 37.175 53.3488 37.1398 53.2693C37.1046 53.1898 37.0541 53.118 36.9912 53.058L32.7104 48.9811C32.4328 48.6969 32.272 48.3188 32.2598 47.9217C32.2476 47.5246 32.385 47.1374 32.6446 46.8367C32.9043 46.5361 33.2674 46.3438 33.662 46.298C34.0567 46.2523 34.4541 46.3563 34.7757 46.5896L42.1233 52.2517C42.2093 52.3185 42.2789 52.4039 42.3269 52.5016C42.3749 52.5992 42.4001 52.7065 42.4005 52.8153V61.2446C42.4005 61.4201 42.4702 61.5885 42.5943 61.7127C42.7185 61.8368 42.8869 61.9065 43.0624 61.9065C43.238 61.9065 43.4064 61.8368 43.5305 61.7127C43.6547 61.5885 43.7244 61.4201 43.7244 61.2446V52.8153C43.7232 52.5039 43.6511 52.1969 43.5134 51.9175C43.3758 51.6382 43.1763 51.3939 42.93 51.2032L35.5732 45.5322C35.1399 45.2122 34.6262 45.0187 34.0895 44.9733C33.5527 44.9278 33.0138 45.0323 32.5329 45.275C32.052 45.5177 31.6478 45.8891 31.3655 46.3478C31.0831 46.8066 30.9336 47.3347 30.9336 47.8734H30.9354Z" fill="white"/>
</svg>
