<svg width="157" height="144" viewBox="0 0 157 144" fill="none" xmlns="http://www.w3.org/2000/svg">
<path d="M157 78H79V91H157V78Z" fill="#06B3DB"/>
<path d="M157 104H79V118H157V104Z" fill="#06B3DB"/>
<path d="M0 144L39 78L78 144H0Z" fill="#F57A3E"/>
<path d="M26.3333 26.0034H52.6667V0H79V26.0034V78H39.1119H26.3333H0V51.9966H26.3333V26.0034Z" fill="#06B3DB"/>
<path d="M157 131H79V144H157V131Z" fill="#06B3DB"/>
<path d="M157 33.8695V32.1305C157 14.3913 142.004 0 123.5 0C104.996 0 90 14.3813 90 32.1305V66H123.5C142.004 66 157 51.6187 157 33.8695Z" fill="#F57A3E"/>
</svg>
