<svg width="188" height="64" viewBox="0 0 188 64" fill="none" xmlns="http://www.w3.org/2000/svg">
<path d="M10.8691 11.6408H21.6913V0.90918H32.5135V11.6408V33.0997H16.1207H10.8691H0.046875V22.3682H10.8691V11.6408Z" fill="#06B3DB"/>
<path d="M64.9741 33.1357H32.5117V38.6223H64.9741V33.1357Z" fill="#06B3DB"/>
<path d="M64.9741 44.1162H32.5117V49.6027H64.9741V44.1162Z" fill="#06B3DB"/>
<path d="M64.9741 55.0986H32.5117V60.5851H64.9741V55.0986Z" fill="#06B3DB"/>
<path d="M0.046875 60.5853L16.2676 33.0986L32.4883 60.5853H0.046875Z" fill="#F57A3E"/>
<path d="M64.9742 15.0167V14.2924C64.9742 6.90354 58.7654 0.90918 51.1043 0.90918C43.4431 0.90918 37.2344 6.89938 37.2344 14.2924V28.4H51.1043C58.7654 28.4 64.9742 22.4098 64.9742 15.0167Z" fill="#F57A3E"/>
<path d="M88.4346 0.938354V20.4325H83.5861V0.938354H88.4346Z" fill="white"/>
<path d="M97.0519 7.08254V20.4366H92.2032V7.08254H97.0519ZM95.0368 5.71716H94.2183C93.1058 5.71716 92.2032 4.82217 92.2032 3.71904V2.9073C92.2032 1.80417 93.1058 0.90918 94.2183 0.90918H95.0368C96.1493 0.90918 97.0519 1.80417 97.0519 2.9073V3.71904C97.0519 4.82217 96.1493 5.71716 95.0368 5.71716Z" fill="white"/>
<path d="M101.491 14.7473V11.0882H99.2032V7.08365H101.491V3.74512H106.34V7.08365H110.756V11.0882H106.34V14.5849C106.34 15.8671 107.121 16.5872 108.388 16.5872C109.06 16.5872 110.114 16.3999 110.76 16.0544V20.3004C110.088 20.675 108.85 20.8624 107.931 20.8624C103.54 20.8624 101.495 18.2981 101.495 14.7473H101.491Z" fill="white"/>
<path d="M114.393 14.7473V11.0882H112.106V7.08365H114.393V3.74512H119.242V7.08365H123.658V11.0882H119.242V14.5849C119.242 15.8671 120.023 16.5872 121.291 16.5872C121.962 16.5872 123.016 16.3999 123.662 16.0544V20.3004C122.991 20.675 121.752 20.8624 120.833 20.8624C116.442 20.8624 114.398 18.2981 114.398 14.7473H114.393Z" fill="white"/>
<path d="M131.196 0.938477V20.4326H126.348V0.938477H131.196Z" fill="white"/>
<path d="M133.887 13.5976C133.887 9.75122 136.796 6.5459 141.049 6.5459C145.301 6.5459 147.917 9.80534 147.917 13.3811V14.5842H138.543C138.866 15.9204 139.89 16.7197 141.372 16.7197C142.665 16.7197 143.689 16.0245 144.172 14.9838L147.887 16.8279C146.729 19.3131 144.441 20.8075 141.422 20.8075C137.115 20.8075 133.883 17.9768 133.883 13.5976H133.887ZM143.097 12.1032C142.883 11.3539 142.128 10.6629 140.998 10.6629C139.869 10.6629 139.059 11.3289 138.765 12.1032H143.102H143.097Z" fill="white"/>
<path d="M88.2589 24.8486V44.3428H83.4103V24.8486H88.2589Z" fill="white"/>
<path d="M90.9535 37.6402C90.9535 33.7688 94.1566 30.5635 98.3587 30.5635C102.561 30.5635 105.764 33.5565 105.764 37.6402V44.3422H101.184V43.3556C100.323 44.2381 99.1101 44.746 97.5485 44.746C93.615 44.746 90.9493 41.5407 90.9493 37.6443L90.9535 37.6402ZM100.915 37.6651C100.915 36.2498 99.8909 35.0759 98.3587 35.0759C96.8264 35.0759 95.8021 36.2498 95.8021 37.6651C95.8021 39.0805 96.8264 40.2294 98.3587 40.2294C99.8909 40.2294 100.915 39.0555 100.915 37.6651Z" fill="white"/>
<path d="M113.302 38.3607V44.3426H108.453V37.7738C108.453 33.8483 110.77 30.5889 115.753 30.5889C120.736 30.5889 123.054 33.8483 123.054 37.7738V44.3426H118.205V38.3607C118.205 36.679 117.533 35.2636 115.753 35.2636C113.974 35.2636 113.302 36.679 113.302 38.3607Z" fill="white"/>
<path d="M126.956 38.6555V34.9964H124.668V30.9918H126.956V27.6533H131.805V30.9918H136.221V34.9964H131.805V38.4931C131.805 39.7753 132.585 40.4954 133.853 40.4954C134.525 40.4954 135.578 40.3081 136.225 39.9626V44.2086C135.553 44.5832 134.315 44.7706 133.396 44.7706C129.005 44.7706 126.96 42.2063 126.96 38.6555H126.956Z" fill="white"/>
<path d="M137.832 37.5078C137.832 33.6614 140.742 30.4561 144.994 30.4561C149.247 30.4561 151.862 33.7155 151.862 37.2913V38.4943H142.488C142.811 39.8306 143.835 40.6298 145.317 40.6298C146.61 40.6298 147.635 39.9346 148.117 38.894L151.832 40.7381C150.674 43.2232 148.386 44.7176 145.368 44.7176C141.061 44.7176 137.828 41.887 137.828 37.5078H137.832ZM147.043 36.0133C146.829 35.264 146.073 34.573 144.944 34.573C143.814 34.573 143.004 35.2391 142.71 36.0133H147.047H147.043Z" fill="white"/>
<path d="M154.289 44.3422V36.945C154.289 33.3941 156.338 30.5635 160.725 30.5635C161.64 30.5635 162.635 30.7217 163.311 31.0172V35.6379C162.664 35.2924 161.858 35.105 161.182 35.105C159.919 35.105 159.134 35.8252 159.134 37.1073V44.3463H154.285L154.289 44.3422Z" fill="white"/>
<path d="M169.638 38.3607V44.3426H164.789V37.7738C164.789 33.8483 167.106 30.5889 172.089 30.5889C177.072 30.5889 179.389 33.8483 179.389 37.7738V44.3426H174.541V38.3607C174.541 36.679 173.869 35.2636 172.089 35.2636C170.309 35.2636 169.638 36.679 169.638 38.3607Z" fill="white"/>
<path d="M84.2121 52.8838H83.4103V60.4808H84.2121H84.6822H88.0741V59.3527H84.6822V56.9674H87.8558V55.8602H84.6822V54.0119H88.0741V52.8838H84.6822H84.2121Z" fill="white"/>
<path d="M92.673 55.5572C92.3539 55.4365 91.9887 55.374 91.5731 55.374C91.1071 55.374 90.6915 55.4406 90.3305 55.5697C89.9695 55.6987 89.6756 55.8319 89.4489 55.9735L89.9317 56.7977C90.0031 56.7477 90.1164 56.6853 90.2675 56.6062C90.4187 56.5313 90.595 56.4647 90.8049 56.4106C91.0106 56.3564 91.233 56.3273 91.4681 56.3273C91.6193 56.3273 91.762 56.3398 91.8963 56.3689C92.0265 56.3981 92.1398 56.4439 92.2364 56.5105C92.3329 56.5771 92.4043 56.6603 92.4589 56.7602C92.5134 56.8601 92.5428 56.9933 92.5428 57.1515V57.7634C92.3875 57.6719 92.1902 57.5886 91.9551 57.5178C91.7116 57.4471 91.422 57.4096 91.0861 57.4096C90.4564 57.4096 89.9737 57.5511 89.6295 57.8384C89.2852 58.1256 89.1173 58.5086 89.1173 58.9956C89.1173 59.337 89.1971 59.6242 89.3566 59.8656C89.5161 60.1029 89.7302 60.2861 90.0031 60.4068C90.2717 60.5317 90.5656 60.59 90.8804 60.59C91.1701 60.59 91.4597 60.5358 91.741 60.4318C92.0223 60.3277 92.2573 60.1695 92.442 59.9531C92.4798 59.9073 92.5134 59.8573 92.547 59.8074V60.4776H93.7056V56.9184C93.7056 56.5854 93.6133 56.3065 93.4328 56.0775C93.2523 55.8486 93.0004 55.6737 92.6813 55.5489L92.673 55.5572ZM92.3581 59.1538C92.2364 59.337 92.081 59.4785 91.8879 59.5701C91.6948 59.6617 91.4807 59.7116 91.2457 59.7116C91.0651 59.7116 90.9014 59.6825 90.7587 59.6242C90.616 59.5659 90.5068 59.4785 90.4229 59.3578C90.3431 59.2371 90.3011 59.0955 90.3011 58.929C90.3011 58.7625 90.3389 58.6376 90.4145 58.5294C90.49 58.4212 90.6076 58.3379 90.7587 58.2755C90.9098 58.213 91.1113 58.1839 91.359 58.1839C91.6445 58.1839 91.9131 58.2214 92.1692 58.2921C92.2951 58.3254 92.4127 58.3754 92.5302 58.4295V58.5086C92.5302 58.7542 92.4714 58.9706 92.3497 59.1538H92.3581Z" fill="white"/>
<path d="M97.3997 55.3821C97.1436 55.3821 96.8959 55.4737 96.6609 55.6527C96.5013 55.7734 96.3712 55.9357 96.2495 56.1106V55.4862H95.0782V60.4773H96.2495V57.6674C96.2495 57.4302 96.2788 57.222 96.3334 57.043C96.388 56.864 96.4762 56.7267 96.6021 56.6268C96.728 56.5268 96.8876 56.4727 97.0849 56.4727C97.2318 56.4727 97.3493 56.4935 97.4459 56.5393C97.5424 56.581 97.6432 56.6476 97.7523 56.735L98.3232 55.7484C98.2141 55.611 98.0798 55.5153 97.916 55.4612C97.7523 55.4071 97.5844 55.3779 97.4039 55.3779L97.3997 55.3821Z" fill="white"/>
<path d="M100.309 52.0186H99.1251V60.4856H100.309V52.0186Z" fill="white"/>
<path d="M103.698 58.732L102.38 55.4893H101.02L103.047 59.8976L101.733 62.8698H102.993L106.275 55.4893H105.003L103.698 58.732Z" fill="white"/>
<path d="M111.66 52.8838H110.367V60.4808H114.7V59.3319H111.66V52.8838Z" fill="white"/>
<path d="M119.132 55.6857C118.759 55.4817 118.31 55.3818 117.776 55.3818C117.243 55.3818 116.782 55.4901 116.387 55.7024C115.992 55.9147 115.686 56.2185 115.472 56.6098C115.258 57.0011 115.149 57.459 115.149 57.9877C115.149 58.5164 115.254 58.966 115.468 59.3573C115.678 59.7486 115.98 60.0524 116.37 60.2689C116.761 60.4854 117.21 60.5936 117.722 60.5936C118.305 60.5936 118.805 60.4812 119.221 60.2564C119.636 60.0316 119.976 59.6944 120.241 59.249L119.221 58.8369C119.061 59.1033 118.86 59.3031 118.62 59.4322C118.381 59.5612 118.1 59.6278 117.776 59.6278C117.453 59.6278 117.21 59.5612 116.996 59.4322C116.782 59.3031 116.618 59.1117 116.509 58.8619C116.433 58.6912 116.395 58.4831 116.37 58.2583H120.274C120.283 58.2292 120.287 58.1834 120.291 58.1168C120.291 58.0502 120.295 57.9919 120.295 57.9336C120.295 57.3966 120.194 56.9387 119.993 56.5599C119.791 56.1811 119.506 55.8897 119.132 55.6857ZM117 56.4683C117.21 56.3393 117.466 56.2727 117.768 56.2727C118.016 56.2727 118.234 56.3268 118.419 56.435C118.603 56.5432 118.75 56.6973 118.855 56.8888C118.943 57.0511 118.985 57.2426 118.998 57.4549H116.391C116.421 57.3009 116.463 57.1552 116.517 57.0303C116.626 56.7847 116.786 56.5974 117 56.4642V56.4683Z" fill="white"/>
<path d="M124.536 55.5572C124.217 55.4365 123.852 55.374 123.436 55.374C122.97 55.374 122.555 55.4406 122.194 55.5697C121.833 55.6987 121.539 55.8319 121.312 55.9735L121.795 56.7977C121.866 56.7477 121.98 56.6853 122.131 56.6062C122.278 56.5313 122.458 56.4647 122.668 56.4106C122.878 56.3564 123.096 56.3273 123.331 56.3273C123.487 56.3273 123.629 56.3398 123.76 56.3689C123.89 56.3981 124.003 56.4439 124.1 56.5105C124.196 56.5771 124.268 56.6603 124.322 56.7602C124.377 56.8601 124.406 56.9933 124.406 57.1515V57.7634C124.247 57.6719 124.053 57.5886 123.818 57.5178C123.575 57.4471 123.285 57.4096 122.949 57.4096C122.324 57.4096 121.837 57.5511 121.493 57.8384C121.148 58.1256 120.981 58.5086 120.981 58.9956C120.981 59.337 121.06 59.6242 121.22 59.8656C121.379 60.1029 121.598 60.2861 121.866 60.4068C122.135 60.5317 122.429 60.59 122.744 60.59C123.038 60.59 123.323 60.5358 123.604 60.4318C123.886 60.3277 124.121 60.1695 124.305 59.9531C124.343 59.9073 124.377 59.8573 124.41 59.8074V60.4776H125.569V56.9184C125.569 56.5854 125.477 56.3065 125.296 56.0775C125.111 55.8486 124.864 55.6737 124.545 55.5489L124.536 55.5572ZM124.217 59.1538C124.095 59.337 123.94 59.4785 123.747 59.5701C123.554 59.6658 123.34 59.7116 123.105 59.7116C122.924 59.7116 122.76 59.6825 122.618 59.6242C122.475 59.5659 122.366 59.4785 122.282 59.3578C122.198 59.2371 122.16 59.0955 122.16 58.929C122.16 58.7625 122.198 58.6376 122.274 58.5294C122.349 58.4212 122.467 58.3379 122.618 58.2755C122.769 58.213 122.97 58.1839 123.218 58.1839C123.504 58.1839 123.772 58.2214 124.028 58.2921C124.154 58.3254 124.272 58.3754 124.389 58.4295V58.5086C124.389 58.7542 124.331 58.9706 124.209 59.1538H124.217Z" fill="white"/>
<path d="M129.259 55.3821C129.003 55.3821 128.759 55.4737 128.52 55.6527C128.361 55.7734 128.231 55.9357 128.109 56.1106V55.4862H126.938V60.4773H128.109V57.6674C128.109 57.4302 128.138 57.222 128.193 57.043C128.247 56.864 128.336 56.7267 128.461 56.6268C128.583 56.5268 128.747 56.4727 128.944 56.4727C129.091 56.4727 129.209 56.4935 129.305 56.5393C129.402 56.581 129.503 56.6476 129.612 56.735L130.183 55.7484C130.073 55.611 129.939 55.5153 129.775 55.4612C129.612 55.4071 129.444 55.3779 129.259 55.3779V55.3821Z" fill="white"/>
<path d="M133.692 55.3818C133.343 55.3818 133.041 55.4526 132.789 55.5983C132.537 55.744 132.332 55.9646 132.172 56.2602V55.4901H130.988V60.4812H132.172V57.4424C132.172 57.2176 132.218 57.022 132.315 56.8513C132.412 56.6806 132.542 56.5516 132.71 56.46C132.877 56.3684 133.071 56.3226 133.289 56.3226C133.612 56.3226 133.847 56.4184 134.002 56.6057C134.158 56.793 134.233 57.0719 134.233 57.4424V60.4812H135.447V57.3134C135.447 56.7139 135.295 56.2394 134.997 55.898C134.699 55.5525 134.263 55.3818 133.696 55.3818H133.692Z" fill="white"/>
<path d="M137.654 52.7881C137.457 52.7881 137.284 52.8547 137.133 52.9922C136.982 53.1296 136.906 53.3004 136.906 53.5044C136.906 53.7085 136.982 53.8668 137.133 54.0084C137.28 54.15 137.457 54.2208 137.654 54.2208C137.864 54.2208 138.045 54.15 138.187 54.0084C138.33 53.8668 138.402 53.7002 138.402 53.5044C138.402 53.3087 138.33 53.1296 138.187 52.9922C138.045 52.8547 137.868 52.7881 137.654 52.7881Z" fill="white"/>
<path d="M138.229 55.4912H137.07V60.4824H138.229V55.4912Z" fill="white"/>
<path d="M142.567 55.3818C142.218 55.3818 141.916 55.4526 141.664 55.5983C141.412 55.744 141.207 55.9646 141.047 56.2602V55.4901H139.863V60.4812H141.047V57.4424C141.047 57.2176 141.093 57.022 141.19 56.8513C141.286 56.6806 141.417 56.5516 141.585 56.46C141.752 56.3684 141.946 56.3226 142.164 56.3226C142.487 56.3226 142.722 56.4184 142.877 56.6057C143.033 56.793 143.108 57.0719 143.108 57.4424V60.4812H144.322V57.3134C144.322 56.7139 144.17 56.2394 143.872 55.898C143.574 55.5525 143.138 55.3818 142.571 55.3818H142.567Z" fill="white"/>
<path d="M149.614 56.3101C149.451 56.052 149.245 55.8439 149.006 55.6899C148.687 55.4859 148.317 55.3818 147.893 55.3818C147.469 55.3818 147.058 55.4817 146.684 55.6857C146.306 55.8897 146.008 56.1811 145.782 56.5599C145.555 56.9387 145.442 57.4091 145.442 57.9669C145.442 58.5247 145.555 58.9743 145.782 59.3573C146.008 59.7402 146.311 60.0358 146.684 60.2356C147.062 60.4396 147.465 60.5395 147.893 60.5395C148.321 60.5395 148.687 60.4354 149.006 60.2314C149.245 60.0733 149.446 59.8693 149.614 59.6112V60.3771C149.614 60.7518 149.543 61.0598 149.4 61.3013C149.257 61.5385 149.073 61.7175 148.846 61.8341C148.619 61.9507 148.384 62.0089 148.132 62.0089C147.855 62.0089 147.612 61.959 147.398 61.8591C147.188 61.7592 147.02 61.6176 146.898 61.4345C146.776 61.2555 146.713 61.0515 146.705 60.8267H145.534C145.551 61.2596 145.66 61.6426 145.87 61.9756C146.08 62.3087 146.373 62.5667 146.764 62.7499C147.15 62.9331 147.616 63.0288 148.166 63.0288C148.624 63.0288 149.052 62.9331 149.446 62.7416C149.841 62.5501 150.16 62.2587 150.403 61.8674C150.647 61.4761 150.769 60.9807 150.769 60.3813V55.4984H149.61V56.3226L149.614 56.3101ZM149.4 58.8161C149.257 59.0534 149.077 59.2282 148.854 59.3406C148.632 59.4572 148.409 59.5155 148.183 59.5155C147.914 59.5155 147.662 59.4572 147.431 59.3365C147.2 59.2157 147.016 59.0409 146.877 58.8119C146.739 58.5788 146.672 58.2999 146.672 57.9669C146.672 57.6339 146.743 57.3425 146.877 57.1094C147.016 56.8763 147.2 56.7014 147.431 56.5849C147.662 56.4642 147.91 56.4059 148.183 56.4059C148.351 56.4059 148.519 56.4392 148.691 56.5058C148.863 56.5724 149.018 56.6723 149.157 56.8055C149.295 56.9387 149.409 57.1011 149.493 57.2925C149.576 57.484 149.618 57.7088 149.618 57.9711C149.618 58.3041 149.547 58.5872 149.404 58.8244L149.4 58.8161Z" fill="white"/>
<path d="M159.159 52.7553C158.596 52.7553 158.072 52.8511 157.589 53.0384C157.102 53.2257 156.682 53.4963 156.325 53.8501C155.968 54.204 155.687 54.6244 155.49 55.1031C155.288 55.586 155.188 56.1105 155.188 56.6808C155.188 57.2511 155.288 57.7798 155.49 58.2585C155.691 58.7414 155.968 59.1576 156.325 59.5115C156.682 59.8653 157.106 60.1359 157.589 60.3232C158.072 60.5105 158.596 60.6063 159.159 60.6063C159.721 60.6063 160.187 60.5355 160.561 60.3981C160.935 60.2608 161.279 60.0609 161.602 59.8029V58.2835C161.426 58.4874 161.22 58.6706 160.985 58.8329C160.746 58.9953 160.485 59.1243 160.192 59.2201C159.898 59.3158 159.57 59.3616 159.205 59.3616C158.739 59.3616 158.307 59.2534 157.908 59.0286C157.509 58.808 157.19 58.4958 156.947 58.0878C156.703 57.684 156.581 57.2136 156.581 56.6766C156.581 56.1396 156.703 55.6609 156.947 55.2613C157.19 54.8575 157.513 54.5495 157.908 54.3288C158.307 54.1082 158.739 53.9958 159.205 53.9958C159.57 53.9958 159.898 54.0416 160.192 54.1374C160.485 54.2331 160.75 54.358 160.985 54.5245C161.22 54.6868 161.43 54.87 161.602 55.074V53.5546C161.279 53.2923 160.935 53.0967 160.561 52.9593C160.187 52.8219 159.721 52.7512 159.159 52.7512V52.7553Z" fill="white"/>
<path d="M166.687 55.6857C166.313 55.4817 165.864 55.3818 165.331 55.3818C164.798 55.3818 164.336 55.4901 163.942 55.7024C163.547 55.9147 163.245 56.2185 163.026 56.6098C162.812 57.0011 162.703 57.459 162.703 57.9877C162.703 58.5164 162.808 58.966 163.022 59.3573C163.232 59.7486 163.534 60.0524 163.925 60.2689C164.315 60.4854 164.764 60.5936 165.277 60.5936C165.86 60.5936 166.36 60.4812 166.775 60.2564C167.191 60.0316 167.531 59.6944 167.791 59.249L166.775 58.8369C166.616 59.1033 166.414 59.3031 166.175 59.4322C165.936 59.5612 165.654 59.6278 165.331 59.6278C165.008 59.6278 164.764 59.5612 164.55 59.4322C164.336 59.3031 164.173 59.1117 164.063 58.8619C163.988 58.6912 163.95 58.4831 163.925 58.2583H167.829C167.837 58.2292 167.841 58.1834 167.846 58.1168C167.846 58.0502 167.85 57.9919 167.85 57.9336C167.85 57.3966 167.749 56.9387 167.548 56.5599C167.346 56.1811 167.061 55.8897 166.687 55.6857ZM164.555 56.4683C164.764 56.3393 165.021 56.2727 165.319 56.2727C165.566 56.2727 165.785 56.3268 165.969 56.435C166.154 56.5432 166.301 56.6973 166.406 56.8888C166.494 57.0511 166.536 57.2426 166.553 57.4549H163.946C163.975 57.3009 164.017 57.1552 164.072 57.0303C164.181 56.7847 164.34 56.5974 164.555 56.4642V56.4683Z" fill="white"/>
<path d="M171.676 55.382C171.328 55.382 171.026 55.4527 170.774 55.5984C170.522 55.7441 170.316 55.9647 170.157 56.2603V55.4902H168.973V60.4813H170.157V57.4425C170.157 57.2177 170.203 57.0221 170.299 56.8514C170.396 56.6807 170.526 56.5517 170.694 56.4601C170.862 56.3685 171.055 56.3227 171.273 56.3227C171.592 56.3227 171.832 56.4185 171.983 56.6058C172.134 56.7931 172.214 57.072 172.214 57.4425V60.4813H173.427V57.3135C173.427 56.714 173.276 56.2395 172.978 55.8981C172.68 55.5526 172.243 55.382 171.676 55.382Z" fill="white"/>
<path d="M176.249 53.7549H175.078V55.4907H174.234V56.5231H175.078V60.4819H176.249V56.5231H177.093V55.4907H176.249V53.7549Z" fill="white"/>
<path d="M181.503 55.6858C181.13 55.4819 180.681 55.382 180.148 55.382C179.614 55.382 179.153 55.4902 178.758 55.7025C178.363 55.9148 178.057 56.2187 177.843 56.61C177.629 57.0013 177.52 57.4592 177.52 57.9878C177.52 58.5165 177.625 58.9661 177.839 59.3574C178.053 59.7487 178.351 60.0526 178.741 60.269C179.132 60.4855 179.581 60.5937 180.093 60.5937C180.676 60.5937 181.176 60.4813 181.592 60.2565C182.007 60.0318 182.347 59.6946 182.608 59.2492L181.592 58.837C181.432 59.1035 181.231 59.3033 180.991 59.4323C180.752 59.5614 180.471 59.628 180.148 59.628C179.824 59.628 179.581 59.5614 179.367 59.4323C179.153 59.3033 178.989 59.1118 178.88 58.862C178.804 58.6913 178.766 58.4832 178.741 58.2584H182.645C182.654 58.2293 182.658 58.1835 182.662 58.1169C182.662 58.0503 182.666 57.992 182.666 57.9337C182.666 57.3967 182.566 56.9388 182.364 56.56C182.163 56.1812 181.877 55.8898 181.503 55.6858ZM179.371 56.4684C179.581 56.3394 179.837 56.2728 180.139 56.2728C180.387 56.2728 180.605 56.3269 180.79 56.4351C180.975 56.5434 181.121 56.6974 181.226 56.8889C181.315 57.0512 181.357 57.2427 181.369 57.455H178.762C178.792 57.301 178.834 57.1553 178.888 57.0304C178.997 56.7848 179.157 56.5975 179.371 56.4643V56.4684Z" fill="white"/>
<path d="M186.627 55.4612C186.467 55.4071 186.295 55.3779 186.115 55.3779C185.858 55.3779 185.611 55.4695 185.376 55.6485C185.216 55.7692 185.086 55.9316 184.964 56.1064V55.482H183.793V60.4731H184.964V57.6633C184.964 57.426 184.994 57.2179 185.048 57.0389C185.103 56.8599 185.191 56.7225 185.317 56.6226C185.443 56.5227 185.602 56.4686 185.8 56.4686C185.947 56.4686 186.064 56.4894 186.161 56.5352C186.257 56.5768 186.358 56.6434 186.467 56.7308L187.038 55.7442C186.929 55.6069 186.795 55.5111 186.631 55.457L186.627 55.4612Z" fill="white"/>
</svg>
