<svg width="53" height="54" viewBox="0 0 53 54" fill="none" xmlns="http://www.w3.org/2000/svg">
<path d="M53 28.019V26.6217C53 12.3729 41.1363 0.820312 26.5 0.820312C11.8637 0.820312 0 12.3729 0 26.6217L0 53.8203L26.5 53.8203C41.1363 53.8203 53 42.2678 53 28.019Z" fill="white"/>
<path d="M39.9455 36.4877C39.9455 35.96 39.7806 35.4323 39.4838 35.0366C40.1104 34.5749 40.5391 33.8163 40.5391 32.9918C40.5391 32.1344 40.1104 31.4088 39.4838 30.9471C39.7806 30.5184 39.9455 30.0237 39.9455 29.496C39.9455 28.0779 38.7912 26.9236 37.3731 26.9236H30.7772C31.041 26.1321 31.3378 24.9778 31.4697 23.7575C31.5687 22.9331 31.5357 22.0426 31.3708 21.0862C31.1399 19.6681 30.0516 18.5797 28.6335 18.3489C27.5122 18.151 26.4568 18.8766 26.226 19.9979L25.6983 22.5373C25.4015 23.8895 24.7419 25.0767 23.7525 26.0331L20.7514 28.9024C20.4545 29.1662 20.0588 29.3311 19.663 29.3311H18.4758C18.2119 28.3747 17.3545 27.6491 16.2991 27.6491H12.2756C11.0224 27.6491 10 28.6715 10 29.9247V39.4229C10 40.6761 11.0224 41.6985 12.2756 41.6985H16.3321C17.3874 41.6985 18.2779 40.9729 18.5087 39.9835H20.3226L20.5535 40.3463C21.6418 42.0612 23.4887 43.1166 25.5334 43.1496C25.6983 43.1496 25.8632 43.1496 26.0281 43.1496C28.0728 43.1496 30.8431 43.0177 33.3826 42.424C33.6464 42.49 33.8773 42.5559 34.1741 42.5559H36.9114C38.3295 42.5559 39.4838 41.4017 39.4838 39.9835C39.4838 39.4229 39.2859 38.8952 38.9891 38.4665C39.5498 38.0377 39.9455 37.3122 39.9455 36.4877ZM16.9587 39.4229C16.9587 39.7856 16.6619 40.0825 16.2991 40.0825H12.2756C11.9128 40.0825 11.616 39.7856 11.616 39.4229V29.9247C11.616 29.562 11.9128 29.2651 12.2756 29.2651H16.3321C16.6949 29.2651 16.9917 29.562 16.9917 29.9247V39.4229H16.9587ZM33.6794 28.5066H37.4061C37.9338 28.5066 38.3625 28.9354 38.3625 29.463C38.3625 29.9907 37.9338 30.4194 37.4061 30.4194H33.6794C33.1517 30.4194 32.723 29.9907 32.723 29.463C32.723 28.9354 33.1517 28.5066 33.6794 28.5066ZM31.8655 41.1048C29.5899 41.5006 27.2483 41.5665 25.5334 41.5336C24.0493 41.5336 22.6972 40.7421 21.9056 39.4888L21.4439 38.7303C21.312 38.4994 21.0482 38.3675 20.7514 38.3675H18.5747V30.9471H19.663C20.4875 30.9471 21.2461 30.6503 21.8397 30.0567L24.8408 27.1874C26.0611 26.0331 26.8856 24.5161 27.2483 22.8671L27.809 20.3277C27.875 20.0638 28.1058 19.8989 28.4026 19.9319C29.1282 20.0638 29.6888 20.6245 29.8208 21.35C29.9527 22.1745 29.9857 22.9331 29.9197 23.5927C29.7218 25.5384 28.9303 27.3853 28.9303 27.4183C28.8314 27.6491 28.8644 27.946 28.9963 28.1768C29.1612 28.4077 29.392 28.5396 29.6559 28.5396H31.2719L31.2059 28.8364C30.0846 33.5525 26.259 33.2227 26.0941 33.1897C25.6653 33.1238 25.2696 33.4536 25.2036 33.8823C25.1377 34.311 25.4674 34.7068 25.8962 34.7727C25.8962 34.7727 26.0611 34.7727 26.2919 34.7727C27.0835 34.7727 28.9633 34.6078 30.5463 33.1897C30.6123 33.9483 31.008 34.6078 31.5687 35.0366C31.2719 35.4653 31.107 35.96 31.107 36.4877C31.107 37.3122 31.5027 38.0377 32.0964 38.4994C31.7995 38.9282 31.6017 39.4229 31.6017 40.0165C31.6017 40.4123 31.7006 40.775 31.8655 41.1048ZM36.9114 40.9729H34.1741C33.6464 40.9729 33.2177 40.5442 33.2177 40.0165C33.2177 39.4888 33.6464 39.0601 34.1741 39.0601H36.9114C37.4391 39.0601 37.8678 39.4888 37.8678 40.0165C37.8678 40.5442 37.4391 40.9729 36.9114 40.9729ZM37.4061 37.4441H33.6794C33.1517 37.4441 32.723 37.0154 32.723 36.4877C32.723 35.96 33.1517 35.5313 33.6794 35.5313H37.4061C37.9338 35.5313 38.3625 35.96 38.3625 36.4877C38.3625 37.0154 37.9338 37.4441 37.4061 37.4441ZM37.9667 33.9483H33.0857C32.5581 33.9483 32.1293 33.5195 32.1293 32.9918C32.1293 32.4642 32.5581 32.0354 33.0857 32.0354H37.9667C38.4944 32.0354 38.9231 32.4642 38.9231 32.9918C38.9231 33.5195 38.4944 33.9483 37.9667 33.9483Z" fill="#7771D7"/>
<path d="M14.2862 38.797C14.9966 38.797 15.5724 38.2212 15.5724 37.5108C15.5724 36.8005 14.9966 36.2246 14.2862 36.2246C13.5759 36.2246 13 36.8005 13 37.5108C13 38.2212 13.5759 38.797 14.2862 38.797Z" fill="#7771D7"/>
<path d="M28.6314 15.9757C29.0601 15.9757 29.4229 15.613 29.4229 15.1842V12.6118C29.4229 12.1831 29.0601 11.8203 28.6314 11.8203C28.2026 11.8203 27.8398 12.1831 27.8398 12.6118V15.1842C27.8398 15.6459 28.2026 15.9757 28.6314 15.9757Z" fill="#7771D7"/>
<path d="M23.9831 17.4247C24.148 17.5896 24.3459 17.6556 24.5438 17.6556C24.7416 17.6556 24.9395 17.5896 25.1044 17.4247C25.4342 17.1279 25.4342 16.6002 25.1044 16.3034L23.2905 14.4895C22.9937 14.1597 22.466 14.1597 22.1692 14.4895C21.8394 14.7864 21.8394 15.314 22.1692 15.6108L23.9831 17.4247Z" fill="#7771D7"/>
<path d="M20.3228 21.7468H22.8952C23.3239 21.7468 23.6867 21.3841 23.6867 20.9553C23.6867 20.5266 23.3239 20.1638 22.8952 20.1638H20.3228C19.894 20.1638 19.5312 20.5266 19.5312 20.9553C19.5312 21.3841 19.861 21.7468 20.3228 21.7468Z" fill="#7771D7"/>
<path d="M33.582 20.9538C33.582 21.3825 33.9448 21.7453 34.3735 21.7453H36.946C37.3747 21.7453 37.7375 21.3825 37.7375 20.9538C37.7375 20.525 37.3747 20.1622 36.946 20.1622H34.3735C33.9448 20.1293 33.582 20.492 33.582 20.9538Z" fill="#7771D7"/>
<path d="M32.6895 17.6894C32.8874 17.6894 33.0853 17.6235 33.2502 17.4586L35.064 15.6447C35.3609 15.3149 35.3609 14.8202 35.064 14.5234C34.7343 14.2266 34.2396 14.2266 33.9427 14.5234L32.1289 16.3373C31.832 16.6671 31.832 17.1618 32.1289 17.4586C32.2938 17.5905 32.4916 17.6894 32.6895 17.6894Z" fill="#7771D7"/>
</svg>
