<svg width="53" height="53" viewBox="0 0 53 53" fill="none" xmlns="http://www.w3.org/2000/svg">
<path d="M53 27.2026V25.8052C53 11.5565 41.1363 0.00390625 26.5 0.00390625C11.8637 0.00390625 0 11.5565 0 25.8052L0 53.0039L26.5 53.0039C41.1363 53.0039 53 41.4514 53 27.2026Z" fill="white"/>
<mask id="path-2-outside-1_182_1926" maskUnits="userSpaceOnUse" x="6.41406" y="13.6152" width="37" height="31" fill="black">
<rect fill="white" x="6.41406" y="13.6152" width="37" height="31"/>
<path d="M42.363 34.6167L37.3846 30.4131C37.546 30.1122 37.6482 29.7796 37.6775 29.4286C37.7344 28.7522 37.5252 28.0948 37.0892 27.5799C36.77 27.2002 36.3548 26.9287 35.8888 26.7886C36.5804 25.864 36.5725 24.5498 35.7983 23.6301C35.462 23.2308 35.0192 22.9513 34.5227 22.8186C35.0761 21.9123 35.0198 20.7144 34.2976 19.8564C33.8977 19.3831 33.3473 19.0779 32.7358 18.9874C33.0159 18.1704 32.874 17.2299 32.2784 16.5236C31.8436 16.0069 31.2302 15.6913 30.5533 15.6338C29.8727 15.5745 29.2183 15.7849 28.7016 16.2203L28.6074 16.2998L25.7541 14.9685C24.2607 14.1931 22.9533 14.8028 22.321 15.7488C22.1106 16.0631 21.9816 16.4025 21.9143 16.745L21.2924 16.2197C20.2216 15.3183 18.6176 15.4559 17.7156 16.5236C17.12 17.2299 16.9781 18.1704 17.2588 18.9874C16.6473 19.0779 16.0981 19.3825 15.697 19.857C15.2616 20.3737 15.053 21.0305 15.1099 21.7069C15.1441 22.108 15.2683 22.4859 15.4713 22.8186C14.99 22.9483 14.5412 23.2204 14.1957 23.6295C13.4209 24.5492 13.4135 25.8634 14.1058 26.788C13.6526 26.9256 13.2325 27.1898 12.9054 27.5781C12.2162 28.3939 12.1367 29.5215 12.6124 30.4125L7.63159 34.6161C7.37292 34.8338 7.34051 35.2197 7.55821 35.4777C7.67929 35.6208 7.85174 35.6948 8.02664 35.6948C8.16606 35.6948 8.30549 35.6477 8.42046 35.5511L13.4184 31.3335L15.423 33.0237C15.8835 33.412 16.4552 33.6199 17.0527 33.6199C17.1255 33.6199 17.1989 33.6163 17.2722 33.6101C17.948 33.5527 18.5607 33.2371 18.9943 32.7216C19.4309 32.2061 19.6401 31.5499 19.5832 30.873C19.5532 30.5146 19.4468 30.1777 19.2811 29.8719C19.7862 29.7496 20.2601 29.4775 20.6197 29.0512C21.115 28.4636 21.2857 27.7163 21.1713 27.0112C21.1719 27.0112 21.1725 27.0112 21.1731 27.0112C21.8862 27.0112 22.5888 26.7152 23.0701 26.1471C23.5196 25.6952 23.7519 25.08 23.7232 24.4159C23.722 24.3939 23.7146 24.3731 23.7134 24.3517C23.8137 24.3639 23.9128 24.3804 24.0149 24.3804C24.0877 24.3804 24.1617 24.3774 24.235 24.3707C24.912 24.3132 25.5241 23.997 25.9228 23.52C26.3748 23.0706 26.6084 22.4572 26.5808 21.7925C26.5558 21.1883 26.3112 20.6202 25.9137 20.1738L29.4892 17.1547C29.7565 16.9303 30.0953 16.8196 30.4487 16.8526C30.8003 16.882 31.1177 17.0452 31.3421 17.3119C31.8087 17.8653 31.7378 18.6976 31.1844 19.1648L30.7221 19.5561C30.7215 19.5568 30.7215 19.5568 30.7215 19.5568C30.464 19.7745 30.4316 20.1603 30.6505 20.4184C30.8676 20.6758 31.2535 20.7076 31.5115 20.4899L31.5146 20.4869C31.78 20.2649 32.1206 20.1597 32.4667 20.1866C32.819 20.216 33.1376 20.3786 33.362 20.6453C33.8292 21.1999 33.7583 22.031 33.2042 22.4982L32.2234 23.328C32.2234 23.328 32.2227 23.3286 32.2221 23.3286C31.9647 23.5469 31.9323 23.9328 32.1506 24.1903C32.3683 24.4483 32.7542 24.4807 33.0122 24.2624C33.2788 24.0362 33.6286 23.9316 33.9699 23.9585C34.3209 23.9885 34.6376 24.1511 34.8621 24.4177C35.3287 24.9718 35.2577 25.8035 34.7049 26.2707L33.5149 27.2748L33.5143 27.2754C33.2562 27.4931 33.2232 27.879 33.4409 28.137C33.6586 28.3951 34.0438 28.4287 34.3025 28.2104L34.3044 28.2092C34.571 27.9848 34.9073 27.8802 35.2608 27.9071C35.6118 27.9371 35.9286 28.0997 36.1536 28.3676C36.3793 28.6348 36.4869 28.9748 36.4575 29.3252C36.4276 29.6762 36.2649 29.9942 35.9983 30.2193L30.4402 34.9109C28.172 36.8255 26.3014 36.6231 23.4914 36.0642C23.308 36.0257 23.1202 36.0764 22.9771 36.1969L14.6085 43.2612C14.3504 43.4783 14.318 43.8642 14.5363 44.1228C14.6568 44.2659 14.8292 44.3399 15.0035 44.3399C15.1429 44.3399 15.2823 44.2928 15.3979 44.1956L23.5422 37.3203C24.7028 37.5441 25.7651 37.7 26.7912 37.6621L34.6016 44.1974C34.7171 44.2934 34.856 44.3399 34.9942 44.3399C35.1691 44.3399 35.3427 44.2653 35.4638 44.121C35.6803 43.8617 35.6467 43.4764 35.3874 43.26L28.4062 37.4181C29.3327 37.1558 30.2573 36.6665 31.229 35.8465L36.5786 31.3322L41.5741 35.5505C41.6891 35.6477 41.8291 35.6948 41.9686 35.6948C42.1428 35.6948 42.3153 35.6214 42.4364 35.4783C42.6535 35.2203 42.6211 34.8344 42.363 34.6167ZM23.4021 17.9998C22.9392 17.6091 23.0236 16.8985 23.3385 16.4282C23.4939 16.1958 24.087 15.4822 25.2147 16.065L27.5788 17.1681L24.9976 19.3476L23.4076 18.0059L23.4034 18.0023C23.4028 18.0017 23.4034 18.0004 23.4021 17.9998ZM18.0611 31.9315C17.8367 32.1988 17.5199 32.3614 17.1695 32.3908C16.8154 32.4226 16.4779 32.3125 16.2119 32.0881L13.9963 30.2205C13.4429 29.7508 13.3726 28.9198 13.8404 28.367C14.3039 27.8166 15.1252 27.7438 15.6798 28.2025L17.907 30.0804C18.1736 30.3049 18.3363 30.6223 18.3656 30.9739C18.395 31.3255 18.2868 31.6649 18.0611 31.9315ZM19.6859 28.2618C19.2187 28.8152 18.3883 28.8861 17.8342 28.4202L16.4834 27.2809C16.4815 27.2797 16.4809 27.2772 16.4791 27.2754L16.4785 27.2748L15.2891 26.2713C14.7356 25.8028 14.6647 24.9718 15.1307 24.4184C15.3563 24.1511 15.6743 23.9885 16.0253 23.9585C16.377 23.9297 16.717 24.0368 16.9836 24.2624L16.9842 24.263C16.9854 24.2643 16.9879 24.2643 16.9891 24.2655L19.5275 26.4101C20.0816 26.8773 20.1519 27.709 19.6859 28.2618ZM22.1711 25.3191C21.7027 25.8726 20.8723 25.9435 20.3176 25.4757L17.7651 23.3201C17.7645 23.3195 17.7633 23.3194 17.7627 23.3188L16.7885 22.497C16.5219 22.2725 16.3592 21.9551 16.3293 21.6035C16.2993 21.2525 16.4075 20.9113 16.632 20.6453C16.857 20.3786 17.1744 20.216 17.5254 20.1866C17.8703 20.1542 18.2134 20.2631 18.4794 20.485L18.4849 20.4899L22.0128 23.4668C22.3038 23.7127 22.4867 24.0869 22.5032 24.4673C22.516 24.7865 22.4109 25.0764 22.1711 25.3191ZM25.0257 22.692C24.8013 22.9587 24.4845 23.1213 24.1335 23.1513C23.7807 23.1837 23.4425 23.0736 23.1771 22.8498C23.1471 22.8247 23.1202 22.8241 23.0952 22.8382C23.0034 22.7312 22.9099 22.6241 22.8016 22.5324L19.2731 19.5549C19.2707 19.5525 19.2683 19.5512 19.2658 19.5488L18.809 19.1642C18.2556 18.6963 18.1846 17.8647 18.6506 17.3119C19.1184 16.759 19.9501 16.6875 20.5035 17.1535L21.3395 17.8598C21.3401 17.8598 21.3401 17.8604 21.3407 17.861L22.6689 18.9825L23.0799 19.3293L24.871 20.8416C25.1621 21.0868 25.3443 21.461 25.3608 21.8426C25.3737 22.16 25.2673 22.4474 25.0257 22.692Z"/>
</mask>
<path d="M42.363 34.6167L37.3846 30.4131C37.546 30.1122 37.6482 29.7796 37.6775 29.4286C37.7344 28.7522 37.5252 28.0948 37.0892 27.5799C36.77 27.2002 36.3548 26.9287 35.8888 26.7886C36.5804 25.864 36.5725 24.5498 35.7983 23.6301C35.462 23.2308 35.0192 22.9513 34.5227 22.8186C35.0761 21.9123 35.0198 20.7144 34.2976 19.8564C33.8977 19.3831 33.3473 19.0779 32.7358 18.9874C33.0159 18.1704 32.874 17.2299 32.2784 16.5236C31.8436 16.0069 31.2302 15.6913 30.5533 15.6338C29.8727 15.5745 29.2183 15.7849 28.7016 16.2203L28.6074 16.2998L25.7541 14.9685C24.2607 14.1931 22.9533 14.8028 22.321 15.7488C22.1106 16.0631 21.9816 16.4025 21.9143 16.745L21.2924 16.2197C20.2216 15.3183 18.6176 15.4559 17.7156 16.5236C17.12 17.2299 16.9781 18.1704 17.2588 18.9874C16.6473 19.0779 16.0981 19.3825 15.697 19.857C15.2616 20.3737 15.053 21.0305 15.1099 21.7069C15.1441 22.108 15.2683 22.4859 15.4713 22.8186C14.99 22.9483 14.5412 23.2204 14.1957 23.6295C13.4209 24.5492 13.4135 25.8634 14.1058 26.788C13.6526 26.9256 13.2325 27.1898 12.9054 27.5781C12.2162 28.3939 12.1367 29.5215 12.6124 30.4125L7.63159 34.6161C7.37292 34.8338 7.34051 35.2197 7.55821 35.4777C7.67929 35.6208 7.85174 35.6948 8.02664 35.6948C8.16606 35.6948 8.30549 35.6477 8.42046 35.5511L13.4184 31.3335L15.423 33.0237C15.8835 33.412 16.4552 33.6199 17.0527 33.6199C17.1255 33.6199 17.1989 33.6163 17.2722 33.6101C17.948 33.5527 18.5607 33.2371 18.9943 32.7216C19.4309 32.2061 19.6401 31.5499 19.5832 30.873C19.5532 30.5146 19.4468 30.1777 19.2811 29.8719C19.7862 29.7496 20.2601 29.4775 20.6197 29.0512C21.115 28.4636 21.2857 27.7163 21.1713 27.0112C21.1719 27.0112 21.1725 27.0112 21.1731 27.0112C21.8862 27.0112 22.5888 26.7152 23.0701 26.1471C23.5196 25.6952 23.7519 25.08 23.7232 24.4159C23.722 24.3939 23.7146 24.3731 23.7134 24.3517C23.8137 24.3639 23.9128 24.3804 24.0149 24.3804C24.0877 24.3804 24.1617 24.3774 24.235 24.3707C24.912 24.3132 25.5241 23.997 25.9228 23.52C26.3748 23.0706 26.6084 22.4572 26.5808 21.7925C26.5558 21.1883 26.3112 20.6202 25.9137 20.1738L29.4892 17.1547C29.7565 16.9303 30.0953 16.8196 30.4487 16.8526C30.8003 16.882 31.1177 17.0452 31.3421 17.3119C31.8087 17.8653 31.7378 18.6976 31.1844 19.1648L30.7221 19.5561C30.7215 19.5568 30.7215 19.5568 30.7215 19.5568C30.464 19.7745 30.4316 20.1603 30.6505 20.4184C30.8676 20.6758 31.2535 20.7076 31.5115 20.4899L31.5146 20.4869C31.78 20.2649 32.1206 20.1597 32.4667 20.1866C32.819 20.216 33.1376 20.3786 33.362 20.6453C33.8292 21.1999 33.7583 22.031 33.2042 22.4982L32.2234 23.328C32.2234 23.328 32.2227 23.3286 32.2221 23.3286C31.9647 23.5469 31.9323 23.9328 32.1506 24.1903C32.3683 24.4483 32.7542 24.4807 33.0122 24.2624C33.2788 24.0362 33.6286 23.9316 33.9699 23.9585C34.3209 23.9885 34.6376 24.1511 34.8621 24.4177C35.3287 24.9718 35.2577 25.8035 34.7049 26.2707L33.5149 27.2748L33.5143 27.2754C33.2562 27.4931 33.2232 27.879 33.4409 28.137C33.6586 28.3951 34.0438 28.4287 34.3025 28.2104L34.3044 28.2092C34.571 27.9848 34.9073 27.8802 35.2608 27.9071C35.6118 27.9371 35.9286 28.0997 36.1536 28.3676C36.3793 28.6348 36.4869 28.9748 36.4575 29.3252C36.4276 29.6762 36.2649 29.9942 35.9983 30.2193L30.4402 34.9109C28.172 36.8255 26.3014 36.6231 23.4914 36.0642C23.308 36.0257 23.1202 36.0764 22.9771 36.1969L14.6085 43.2612C14.3504 43.4783 14.318 43.8642 14.5363 44.1228C14.6568 44.2659 14.8292 44.3399 15.0035 44.3399C15.1429 44.3399 15.2823 44.2928 15.3979 44.1956L23.5422 37.3203C24.7028 37.5441 25.7651 37.7 26.7912 37.6621L34.6016 44.1974C34.7171 44.2934 34.856 44.3399 34.9942 44.3399C35.1691 44.3399 35.3427 44.2653 35.4638 44.121C35.6803 43.8617 35.6467 43.4764 35.3874 43.26L28.4062 37.4181C29.3327 37.1558 30.2573 36.6665 31.229 35.8465L36.5786 31.3322L41.5741 35.5505C41.6891 35.6477 41.8291 35.6948 41.9686 35.6948C42.1428 35.6948 42.3153 35.6214 42.4364 35.4783C42.6535 35.2203 42.6211 34.8344 42.363 34.6167ZM23.4021 17.9998C22.9392 17.6091 23.0236 16.8985 23.3385 16.4282C23.4939 16.1958 24.087 15.4822 25.2147 16.065L27.5788 17.1681L24.9976 19.3476L23.4076 18.0059L23.4034 18.0023C23.4028 18.0017 23.4034 18.0004 23.4021 17.9998ZM18.0611 31.9315C17.8367 32.1988 17.5199 32.3614 17.1695 32.3908C16.8154 32.4226 16.4779 32.3125 16.2119 32.0881L13.9963 30.2205C13.4429 29.7508 13.3726 28.9198 13.8404 28.367C14.3039 27.8166 15.1252 27.7438 15.6798 28.2025L17.907 30.0804C18.1736 30.3049 18.3363 30.6223 18.3656 30.9739C18.395 31.3255 18.2868 31.6649 18.0611 31.9315ZM19.6859 28.2618C19.2187 28.8152 18.3883 28.8861 17.8342 28.4202L16.4834 27.2809C16.4815 27.2797 16.4809 27.2772 16.4791 27.2754L16.4785 27.2748L15.2891 26.2713C14.7356 25.8028 14.6647 24.9718 15.1307 24.4184C15.3563 24.1511 15.6743 23.9885 16.0253 23.9585C16.377 23.9297 16.717 24.0368 16.9836 24.2624L16.9842 24.263C16.9854 24.2643 16.9879 24.2643 16.9891 24.2655L19.5275 26.4101C20.0816 26.8773 20.1519 27.709 19.6859 28.2618ZM22.1711 25.3191C21.7027 25.8726 20.8723 25.9435 20.3176 25.4757L17.7651 23.3201C17.7645 23.3195 17.7633 23.3194 17.7627 23.3188L16.7885 22.497C16.5219 22.2725 16.3592 21.9551 16.3293 21.6035C16.2993 21.2525 16.4075 20.9113 16.632 20.6453C16.857 20.3786 17.1744 20.216 17.5254 20.1866C17.8703 20.1542 18.2134 20.2631 18.4794 20.485L18.4849 20.4899L22.0128 23.4668C22.3038 23.7127 22.4867 24.0869 22.5032 24.4673C22.516 24.7865 22.4109 25.0764 22.1711 25.3191ZM25.0257 22.692C24.8013 22.9587 24.4845 23.1213 24.1335 23.1513C23.7807 23.1837 23.4425 23.0736 23.1771 22.8498C23.1471 22.8247 23.1202 22.8241 23.0952 22.8382C23.0034 22.7312 22.9099 22.6241 22.8016 22.5324L19.2731 19.5549C19.2707 19.5525 19.2683 19.5512 19.2658 19.5488L18.809 19.1642C18.2556 18.6963 18.1846 17.8647 18.6506 17.3119C19.1184 16.759 19.9501 16.6875 20.5035 17.1535L21.3395 17.8598C21.3401 17.8598 21.3401 17.8604 21.3407 17.861L22.6689 18.9825L23.0799 19.3293L24.871 20.8416C25.1621 21.0868 25.3443 21.461 25.3608 21.8426C25.3737 22.16 25.2673 22.4474 25.0257 22.692Z" fill="#7771D7"/>
<path d="M42.363 34.6167L37.3846 30.4131C37.546 30.1122 37.6482 29.7796 37.6775 29.4286C37.7344 28.7522 37.5252 28.0948 37.0892 27.5799C36.77 27.2002 36.3548 26.9287 35.8888 26.7886C36.5804 25.864 36.5725 24.5498 35.7983 23.6301C35.462 23.2308 35.0192 22.9513 34.5227 22.8186C35.0761 21.9123 35.0198 20.7144 34.2976 19.8564C33.8977 19.3831 33.3473 19.0779 32.7358 18.9874C33.0159 18.1704 32.874 17.2299 32.2784 16.5236C31.8436 16.0069 31.2302 15.6913 30.5533 15.6338C29.8727 15.5745 29.2183 15.7849 28.7016 16.2203L28.6074 16.2998L25.7541 14.9685C24.2607 14.1931 22.9533 14.8028 22.321 15.7488C22.1106 16.0631 21.9816 16.4025 21.9143 16.745L21.2924 16.2197C20.2216 15.3183 18.6176 15.4559 17.7156 16.5236C17.12 17.2299 16.9781 18.1704 17.2588 18.9874C16.6473 19.0779 16.0981 19.3825 15.697 19.857C15.2616 20.3737 15.053 21.0305 15.1099 21.7069C15.1441 22.108 15.2683 22.4859 15.4713 22.8186C14.99 22.9483 14.5412 23.2204 14.1957 23.6295C13.4209 24.5492 13.4135 25.8634 14.1058 26.788C13.6526 26.9256 13.2325 27.1898 12.9054 27.5781C12.2162 28.3939 12.1367 29.5215 12.6124 30.4125L7.63159 34.6161C7.37292 34.8338 7.34051 35.2197 7.55821 35.4777C7.67929 35.6208 7.85174 35.6948 8.02664 35.6948C8.16606 35.6948 8.30549 35.6477 8.42046 35.5511L13.4184 31.3335L15.423 33.0237C15.8835 33.412 16.4552 33.6199 17.0527 33.6199C17.1255 33.6199 17.1989 33.6163 17.2722 33.6101C17.948 33.5527 18.5607 33.2371 18.9943 32.7216C19.4309 32.2061 19.6401 31.5499 19.5832 30.873C19.5532 30.5146 19.4468 30.1777 19.2811 29.8719C19.7862 29.7496 20.2601 29.4775 20.6197 29.0512C21.115 28.4636 21.2857 27.7163 21.1713 27.0112C21.1719 27.0112 21.1725 27.0112 21.1731 27.0112C21.8862 27.0112 22.5888 26.7152 23.0701 26.1471C23.5196 25.6952 23.7519 25.08 23.7232 24.4159C23.722 24.3939 23.7146 24.3731 23.7134 24.3517C23.8137 24.3639 23.9128 24.3804 24.0149 24.3804C24.0877 24.3804 24.1617 24.3774 24.235 24.3707C24.912 24.3132 25.5241 23.997 25.9228 23.52C26.3748 23.0706 26.6084 22.4572 26.5808 21.7925C26.5558 21.1883 26.3112 20.6202 25.9137 20.1738L29.4892 17.1547C29.7565 16.9303 30.0953 16.8196 30.4487 16.8526C30.8003 16.882 31.1177 17.0452 31.3421 17.3119C31.8087 17.8653 31.7378 18.6976 31.1844 19.1648L30.7221 19.5561C30.7215 19.5568 30.7215 19.5568 30.7215 19.5568C30.464 19.7745 30.4316 20.1603 30.6505 20.4184C30.8676 20.6758 31.2535 20.7076 31.5115 20.4899L31.5146 20.4869C31.78 20.2649 32.1206 20.1597 32.4667 20.1866C32.819 20.216 33.1376 20.3786 33.362 20.6453C33.8292 21.1999 33.7583 22.031 33.2042 22.4982L32.2234 23.328C32.2234 23.328 32.2227 23.3286 32.2221 23.3286C31.9647 23.5469 31.9323 23.9328 32.1506 24.1903C32.3683 24.4483 32.7542 24.4807 33.0122 24.2624C33.2788 24.0362 33.6286 23.9316 33.9699 23.9585C34.3209 23.9885 34.6376 24.1511 34.8621 24.4177C35.3287 24.9718 35.2577 25.8035 34.7049 26.2707L33.5149 27.2748L33.5143 27.2754C33.2562 27.4931 33.2232 27.879 33.4409 28.137C33.6586 28.3951 34.0438 28.4287 34.3025 28.2104L34.3044 28.2092C34.571 27.9848 34.9073 27.8802 35.2608 27.9071C35.6118 27.9371 35.9286 28.0997 36.1536 28.3676C36.3793 28.6348 36.4869 28.9748 36.4575 29.3252C36.4276 29.6762 36.2649 29.9942 35.9983 30.2193L30.4402 34.9109C28.172 36.8255 26.3014 36.6231 23.4914 36.0642C23.308 36.0257 23.1202 36.0764 22.9771 36.1969L14.6085 43.2612C14.3504 43.4783 14.318 43.8642 14.5363 44.1228C14.6568 44.2659 14.8292 44.3399 15.0035 44.3399C15.1429 44.3399 15.2823 44.2928 15.3979 44.1956L23.5422 37.3203C24.7028 37.5441 25.7651 37.7 26.7912 37.6621L34.6016 44.1974C34.7171 44.2934 34.856 44.3399 34.9942 44.3399C35.1691 44.3399 35.3427 44.2653 35.4638 44.121C35.6803 43.8617 35.6467 43.4764 35.3874 43.26L28.4062 37.4181C29.3327 37.1558 30.2573 36.6665 31.229 35.8465L36.5786 31.3322L41.5741 35.5505C41.6891 35.6477 41.8291 35.6948 41.9686 35.6948C42.1428 35.6948 42.3153 35.6214 42.4364 35.4783C42.6535 35.2203 42.6211 34.8344 42.363 34.6167ZM23.4021 17.9998C22.9392 17.6091 23.0236 16.8985 23.3385 16.4282C23.4939 16.1958 24.087 15.4822 25.2147 16.065L27.5788 17.1681L24.9976 19.3476L23.4076 18.0059L23.4034 18.0023C23.4028 18.0017 23.4034 18.0004 23.4021 17.9998ZM18.0611 31.9315C17.8367 32.1988 17.5199 32.3614 17.1695 32.3908C16.8154 32.4226 16.4779 32.3125 16.2119 32.0881L13.9963 30.2205C13.4429 29.7508 13.3726 28.9198 13.8404 28.367C14.3039 27.8166 15.1252 27.7438 15.6798 28.2025L17.907 30.0804C18.1736 30.3049 18.3363 30.6223 18.3656 30.9739C18.395 31.3255 18.2868 31.6649 18.0611 31.9315ZM19.6859 28.2618C19.2187 28.8152 18.3883 28.8861 17.8342 28.4202L16.4834 27.2809C16.4815 27.2797 16.4809 27.2772 16.4791 27.2754L16.4785 27.2748L15.2891 26.2713C14.7356 25.8028 14.6647 24.9718 15.1307 24.4184C15.3563 24.1511 15.6743 23.9885 16.0253 23.9585C16.377 23.9297 16.717 24.0368 16.9836 24.2624L16.9842 24.263C16.9854 24.2643 16.9879 24.2643 16.9891 24.2655L19.5275 26.4101C20.0816 26.8773 20.1519 27.709 19.6859 28.2618ZM22.1711 25.3191C21.7027 25.8726 20.8723 25.9435 20.3176 25.4757L17.7651 23.3201C17.7645 23.3195 17.7633 23.3194 17.7627 23.3188L16.7885 22.497C16.5219 22.2725 16.3592 21.9551 16.3293 21.6035C16.2993 21.2525 16.4075 20.9113 16.632 20.6453C16.857 20.3786 17.1744 20.216 17.5254 20.1866C17.8703 20.1542 18.2134 20.2631 18.4794 20.485L18.4849 20.4899L22.0128 23.4668C22.3038 23.7127 22.4867 24.0869 22.5032 24.4673C22.516 24.7865 22.4109 25.0764 22.1711 25.3191ZM25.0257 22.692C24.8013 22.9587 24.4845 23.1213 24.1335 23.1513C23.7807 23.1837 23.4425 23.0736 23.1771 22.8498C23.1471 22.8247 23.1202 22.8241 23.0952 22.8382C23.0034 22.7312 22.9099 22.6241 22.8016 22.5324L19.2731 19.5549C19.2707 19.5525 19.2683 19.5512 19.2658 19.5488L18.809 19.1642C18.2556 18.6963 18.1846 17.8647 18.6506 17.3119C19.1184 16.759 19.9501 16.6875 20.5035 17.1535L21.3395 17.8598C21.3401 17.8598 21.3401 17.8604 21.3407 17.861L22.6689 18.9825L23.0799 19.3293L24.871 20.8416C25.1621 21.0868 25.3443 21.461 25.3608 21.8426C25.3737 22.16 25.2673 22.4474 25.0257 22.692Z" stroke="#7771D7" stroke-width="0.4" mask="url(#path-2-outside-1_182_1926)"/>
<path d="M27.4475 10.8635C27.7856 10.8635 28.059 10.5901 28.059 10.252V7.03535C28.059 6.69718 27.7856 6.42383 27.4475 6.42383C27.1093 6.42383 26.8359 6.69718 26.8359 7.03535V10.252C26.8359 10.5901 27.1093 10.8635 27.4475 10.8635Z" fill="white"/>
<path d="M35.548 12.6205C35.7363 12.6205 35.9216 12.5337 36.0421 12.371L37.9445 9.77816C38.1439 9.50604 38.0852 9.12322 37.8131 8.92325C37.5391 8.72268 37.1575 8.78322 36.9582 9.05473L35.0557 11.6476C34.8564 11.9197 34.9151 12.3025 35.1872 12.5025C35.296 12.582 35.4226 12.6205 35.548 12.6205Z" fill="white"/>
<path d="M18.8499 12.3704C18.9691 12.5336 19.155 12.6199 19.3434 12.6199C19.4687 12.6199 19.5953 12.5813 19.7048 12.5012C19.9769 12.3019 20.0356 11.9191 19.8356 11.6469L17.932 9.05407C17.7326 8.78256 17.3504 8.72324 17.0777 8.92321C16.8056 9.12256 16.7469 9.50537 16.9468 9.7775L18.8499 12.3704Z" fill="white"/>
</svg>
