<svg width="53" height="54" viewBox="0 0 53 54" fill="none" xmlns="http://www.w3.org/2000/svg">
<path d="M53 27.3295V25.9322C53 11.6834 41.1363 0.130859 26.5 0.130859C11.8637 0.130859 0 11.6834 0 25.9322L0 53.1309L26.5 53.1309C41.1363 53.1309 53 41.5783 53 27.3295Z" fill="white"/>
<path d="M27.6189 25.4888C27.2937 25.1635 27.2937 24.6358 27.6189 24.3105L34.8922 17.0373H31.6141C31.1539 17.0373 30.781 16.6644 30.781 16.2042C30.781 15.7439 31.1539 15.3711 31.6141 15.3711H36.9036C37.3639 15.3711 37.7367 15.7439 37.7367 16.2042V21.4937C37.7367 21.9539 37.3639 22.3268 36.9036 22.3268C36.4434 22.3268 36.0706 21.9539 36.0706 21.4937V18.2156L28.7973 25.4889C28.4721 25.8141 27.9442 25.814 27.6189 25.4888Z" fill="#7771D7"/>
<path d="M25.7808 27.5608C25.7343 27.5287 25.6923 27.4955 25.6524 27.4579C25.6137 27.4192 25.5805 27.376 25.5496 27.3307C25.5197 27.2842 25.4942 27.2355 25.4732 27.1858C25.4533 27.136 25.4367 27.084 25.4268 27.0309C25.4046 26.9235 25.4046 26.814 25.4268 26.7045C25.4367 26.6514 25.4533 26.5994 25.4732 26.5496C25.5153 26.4489 25.575 26.3571 25.6536 26.2786C25.7321 26.2022 25.8239 26.1414 25.9246 26.0982C26.126 26.0141 26.3594 26.0141 26.5608 26.0982C26.7123 26.1602 26.844 26.2697 26.9358 26.4047C26.9657 26.4511 26.9911 26.4998 27.0121 26.5496C27.0321 26.5994 27.0487 26.6514 27.0586 26.7045C27.0807 26.814 27.0807 26.9236 27.0586 27.0309C27.0487 27.084 27.0321 27.136 27.0121 27.1857C26.99 27.2355 26.9657 27.2842 26.9358 27.3307C26.9037 27.376 26.8705 27.4192 26.8307 27.4579C26.792 27.4955 26.751 27.5298 26.7057 27.5608C26.6592 27.5907 26.6105 27.6161 26.5608 27.6371C26.511 27.657 26.459 27.6736 26.4059 27.6836C26.2974 27.7057 26.1879 27.7057 26.0795 27.6836C26.0264 27.6736 25.9744 27.657 25.9246 27.6371C25.8748 27.615 25.8261 27.5907 25.7808 27.5608Z" fill="#7771D7"/>
<path d="M24.4418 28.6669C25.1953 29.469 24.069 30.5975 23.2636 29.8452C22.5101 29.042 23.6397 27.9113 24.4418 28.6669Z" fill="#7771D7"/>
<path d="M22.0553 31.0547C22.8098 31.8568 21.678 32.9897 20.877 32.233C20.1235 31.4298 21.252 30.3013 22.0553 31.0547Z" fill="#7771D7"/>
<path d="M14.8912 38.2188C15.6457 39.022 14.515 40.1504 13.7129 39.397C12.9595 38.5938 14.088 37.4654 14.8912 38.2188Z" fill="#7771D7"/>
<path d="M17.2779 35.8301C18.0347 36.6322 16.904 37.7607 16.0996 37.0084C15.3462 36.2052 16.4747 35.0767 17.2779 35.8301Z" fill="#7771D7"/>
<path d="M19.6646 33.4419C20.4203 34.2451 19.2918 35.3735 18.4864 34.6212C17.7329 33.8169 18.8614 32.6873 19.6646 33.4419Z" fill="#7771D7"/>
<path d="M11.0979 41.0321C11.1078 40.979 11.1244 40.927 11.1443 40.8772C11.1664 40.8274 11.1908 40.7788 11.2207 40.7323C11.526 40.2455 12.3016 40.2455 12.6069 40.7323C12.6368 40.7788 12.6622 40.8274 12.6832 40.8772C12.7032 40.927 12.7198 40.979 12.7297 41.0321C12.8116 41.4116 12.5936 41.8232 12.2319 41.9648C12.1821 41.9847 12.1301 42.0013 12.077 42.0112C11.516 42.1429 10.9662 41.5919 11.0979 41.0321Z" fill="#7771D7"/>
<path d="M34.8926 29.6525H33.8549C33.3946 29.6525 33.0218 29.2796 33.0218 28.8194C33.0218 28.3592 33.3946 27.9863 33.8549 27.9863H36.9041C37.3643 27.9863 37.7371 28.3592 37.7371 28.8194V31.8686C37.7371 32.3289 37.3643 32.7017 36.9041 32.7017C36.4438 32.7017 36.071 32.3289 36.071 31.8686V30.8308L32.4808 34.421C32.1556 34.7463 31.6278 34.7463 31.3025 34.421C30.9773 34.0958 30.9773 33.568 31.3025 33.2427L34.8926 29.6525Z" fill="#7771D7"/>
<path d="M29.2198 35.4622C29.2419 35.4124 29.2662 35.3637 29.2961 35.3172C29.3282 35.2719 29.3614 35.2287 29.399 35.1911C29.4388 35.1524 29.4809 35.1192 29.5251 35.0882C29.5716 35.0584 29.6203 35.0329 29.6701 35.0119C29.9223 34.9057 30.2254 34.9367 30.4511 35.0882C30.5883 35.1801 30.6956 35.3106 30.7576 35.4633C30.7775 35.5131 30.7941 35.5651 30.8041 35.6182C30.8262 35.7266 30.8262 35.8372 30.8041 35.9445C30.7941 35.9976 30.7775 36.0496 30.7576 36.0994C30.7155 36.2001 30.6558 36.2919 30.5773 36.3705C30.0064 36.948 29.0029 36.4136 29.1711 35.617C29.181 35.5639 29.1976 35.5119 29.2176 35.4621L29.2198 35.4622Z" fill="#7771D7"/>
<path d="M25.8026 39.9665C26.5571 40.7686 25.4264 41.9004 24.6243 41.1448C23.8675 40.3438 25.0005 39.2131 25.8026 39.9665Z" fill="#7771D7"/>
<path d="M28.1918 37.5813C28.9453 38.3845 27.819 39.5108 27.0136 38.7596C26.2601 37.9575 27.3897 36.8246 28.1918 37.5813Z" fill="#7771D7"/>
<path d="M24.2439 20.0864C23.7837 20.0864 23.4108 19.7135 23.4108 19.2533V18.2155L19.8207 21.8057C19.4954 22.131 18.9677 22.131 18.6424 21.8057C18.3171 21.4804 18.3171 20.9527 18.6424 20.6274L22.2325 17.0373H21.1948C20.0951 17.0041 20.0929 15.4054 21.1948 15.3711H24.244C24.7042 15.3711 25.0771 15.7439 25.0771 16.2042V19.2534C25.0771 19.7136 24.7041 20.0864 24.2439 20.0864Z" fill="#7771D7"/>
<path d="M17.1637 23.9819C17.1106 23.9697 17.0586 23.9553 17.0088 23.9332C16.8052 23.8524 16.6415 23.6865 16.5574 23.4829C16.5374 23.4331 16.5209 23.38 16.5109 23.3269C16.3427 22.5325 17.3484 21.996 17.9148 22.5757C17.9547 22.6144 17.9879 22.6576 18.02 22.7029C18.0498 22.7483 18.0753 22.7959 18.0963 22.8457C18.1162 22.8954 18.1328 22.9486 18.1428 23.0028C18.1649 23.1101 18.1649 23.2207 18.1428 23.328C18.1328 23.3811 18.1162 23.4342 18.0963 23.484C18.0531 23.5847 17.9934 23.6787 17.9148 23.754C17.7234 23.9487 17.4325 24.035 17.1637 23.9819Z" fill="#7771D7"/>
<path d="M11.9632 28.5291C11.2087 27.727 12.3394 26.5941 13.1415 27.3508C13.8961 28.154 12.7654 29.2814 11.9632 28.5291Z" fill="#7771D7"/>
<path d="M14.3498 26.1426C13.5963 25.3394 14.7237 24.2087 15.5281 24.9632C16.2837 25.7664 15.1552 26.896 14.3498 26.1426Z" fill="#7771D7"/>
</svg>
