<svg width="91" height="91" viewBox="0 0 91 91" fill="none" xmlns="http://www.w3.org/2000/svg">
<path d="M44.1691 90.2852L46.5419 90.2852C70.7379 90.2852 90.3555 70.1191 90.3555 45.2402C90.3555 20.3614 70.7379 0.195312 46.5419 0.195311L0.355476 0.195309L0.355474 45.2402C0.355473 70.1191 19.973 90.2852 44.1691 90.2852Z" fill="#7771D7"/>
<path d="M38.8453 31.867L38.8452 31.8669C38.7492 31.7001 38.7234 31.5019 38.7734 31.316C38.8233 31.1302 38.9451 30.9718 39.1118 30.8756L38.8453 31.867ZM38.8453 31.867L41.644 36.7195L41.6441 36.7196M38.8453 31.867L41.6441 36.7196M41.6441 36.7196C41.6918 36.8022 41.7554 36.8746 41.8311 36.9327M41.6441 36.7196L41.8311 36.9327M47.6921 23.6469L49.0369 25.9786M47.6921 23.6469C47.6506 23.5751 47.6252 23.4952 47.6174 23.4127C47.6096 23.3301 47.6198 23.2469 47.6471 23.1686C47.9332 22.3558 47.8842 21.4455 47.4209 20.6422L49.0369 25.9786M47.6921 23.6469L47.5622 23.7219M47.6921 23.6469L47.5622 23.7218M49.0369 25.9786C49.1134 26.1107 49.2392 26.2071 49.3867 26.2465C49.5341 26.286 49.6913 26.2653 49.8235 26.189L49.0369 25.9786ZM47.5622 23.7219L48.9069 26.0535L48.9071 26.0538C49.0035 26.2203 49.162 26.3417 49.3479 26.3914C49.5338 26.4412 49.7318 26.4151 49.8984 26.319L49.8985 26.3189L55.2546 23.225L63.1992 36.997L48.411 45.5424L46.3451 41.9626L47.2608 41.4333C49.0776 40.3834 49.7023 38.0477 48.6537 36.2297C47.605 34.4117 45.2713 33.7858 43.4544 34.8357L43.4544 34.8357L42.539 35.3648L40.4663 31.7705L45.8237 28.6742L45.8238 28.6742C45.9903 28.5778 46.1118 28.4192 46.1615 28.2334C46.2112 28.0475 46.1852 27.8495 46.089 27.6828L46.089 27.6828L44.7444 25.3524C44.7443 25.3524 44.7443 25.3523 44.7443 25.3523C44.692 25.2615 44.6208 25.183 44.5354 25.1224C44.45 25.0616 44.3524 25.0201 44.2494 25.0007L44.2492 25.0007C43.4437 24.8499 42.7199 24.3767 42.2798 23.6136C41.4797 22.2266 41.9561 20.4461 43.3412 19.6457C43.6877 19.4454 44.0578 19.3255 44.43 19.2798C45.5473 19.1427 46.6896 19.6746 47.291 20.7172C47.7311 21.4802 47.7781 22.3447 47.5056 23.1188L47.5055 23.1192C47.471 23.2178 47.4583 23.3227 47.468 23.4267C47.4778 23.5307 47.5099 23.6314 47.5622 23.7218M47.5622 23.7219L47.5622 23.7218M47.5622 23.7219L47.5622 23.7218M41.8311 36.9327C41.9069 36.9908 41.9933 37.0333 42.0855 37.058M41.8311 36.9327L42.0855 37.058M42.0855 37.058C42.1777 37.0826 42.2738 37.0888 42.3685 37.0763M42.0855 37.058L42.3685 37.0763M42.3685 37.0763C42.463 37.0637 42.5542 37.0326 42.6367 36.9849L42.3685 37.0763ZM44.4681 27.7805L39.1119 30.8755L44.1806 36.0936L44.1807 36.0936C45.3174 35.4368 46.7391 35.8177 47.3956 36.9558C48.0522 38.0941 47.6711 39.5186 46.5345 40.1754L46.6095 40.3053L46.5345 40.1754L44.9905 41.0678L44.9904 41.0678C44.8239 41.1642 44.7025 41.3228 44.6527 41.5087C44.603 41.6945 44.6291 41.8925 44.7252 42.0592L47.516 46.8982L47.5162 46.8984C47.6126 47.0649 47.7711 47.1863 47.957 47.2361C48.1428 47.2858 48.3408 47.2597 48.5075 47.1636L48.5076 47.1635L64.5537 37.8908C64.7205 37.7947 64.8422 37.6362 64.8922 37.4503C64.9422 37.2644 64.9164 37.0663 64.8203 36.8994L64.8203 36.8993L56.1495 21.8693C56.0534 21.7026 55.8949 21.5808 55.709 21.5308C55.5231 21.4808 55.325 21.5067 55.1582 21.6027L55.1579 21.6028L49.8018 24.6978L48.9376 23.2009C49.2024 22.1551 49.1368 21.0101 48.549 19.9911C47.6529 18.4376 45.9285 17.6392 44.2486 17.842C43.688 17.9097 43.1329 18.0895 42.6149 18.3889C40.5425 19.5865 39.8255 22.2659 41.0217 24.3397C41.6095 25.3587 42.5668 25.9889 43.6047 26.2824L44.4681 27.7805Z" fill="white" stroke="white" stroke-width="0.3"/>
<path d="M38.7132 38.2085L38.7133 38.2085C38.847 38.2015 38.98 38.2316 39.0976 38.2954C39.2152 38.3593 39.3129 38.4543 39.3799 38.5702L39.38 38.5704L42.1709 43.4093C42.267 43.576 42.2931 43.774 42.2433 43.9598L42.0984 43.9211L42.2433 43.9598C42.1936 44.1457 42.0722 44.3043 41.9056 44.4007L41.9056 44.4007L40.3616 45.2931L40.2865 45.1632L40.3616 45.2931C39.2249 45.95 38.8439 47.3745 39.5004 48.5127L39.3705 48.5876L39.5004 48.5127C40.157 49.6509 41.5787 50.0318 42.7154 49.3749L42.7154 49.3749L44.2592 48.4837L38.7132 38.2085ZM38.7132 38.2085C38.5989 38.2146 38.4876 38.2477 38.3884 38.305C38.3884 38.305 38.3884 38.305 38.3884 38.305L22.3424 47.5777C22.3423 47.5777 22.3423 47.5777 22.3422 47.5777C22.1755 47.6739 22.0538 47.8323 22.0038 48.0182L22.1487 48.0572L22.0038 48.0182C21.9538 48.2041 21.9797 48.4022 22.0757 48.5691L22.0758 48.5692M38.7132 38.2085L22.0758 48.5692M22.0758 48.5692L30.7465 63.5992L30.7466 63.5994M22.0758 48.5692L30.7466 63.5994M30.7466 63.5994C30.8431 63.7659 31.0016 63.8873 31.1875 63.9371C31.3733 63.9868 31.5713 63.9608 31.738 63.8646L31.7381 63.8646M30.7466 63.5994L31.7381 63.8646M31.7381 63.8646L37.0942 60.7707L37.9585 62.2676C37.6937 63.3134 37.7593 64.4584 38.3471 65.4774C39.5414 67.5479 42.2079 68.2777 44.2811 67.0796C46.3536 65.882 47.0706 63.2027 45.8743 61.1289C45.2867 60.1102 44.3301 59.4797 43.2925 59.1862L42.4281 57.688L47.7842 54.593L31.7381 63.8646ZM48.0507 53.6015L48.0508 53.6016C48.1469 53.7684 48.1727 53.9666 48.1227 54.1525C48.0727 54.3384 47.951 54.4968 47.7843 54.5929L48.0507 53.6015ZM48.0507 53.6015L45.252 48.749L45.252 48.7489M48.0507 53.6015L45.252 48.7489M45.252 48.7489C45.2042 48.6662 45.1407 48.5939 45.0649 48.5358M45.252 48.7489L45.0649 48.5358M43.4416 50.6328L43.4416 50.6328C41.6247 51.6828 39.291 51.0557 38.2424 49.2376C37.1937 47.4197 37.8185 45.0851 39.6353 44.0352C39.6353 44.0352 39.6353 44.0352 39.6353 44.0352L40.551 43.5059L38.4851 39.9261L23.6968 48.4715L31.6415 62.2434L36.9975 59.1485L36.9977 59.1483C37.1646 59.0523 37.3627 59.0265 37.5486 59.0765C37.7345 59.1265 37.8929 59.2482 37.9891 59.4149C37.9891 59.415 37.9891 59.415 37.9891 59.415L39.3338 61.7454L43.4416 50.6328ZM43.4416 50.6328L44.3571 50.1037M43.4416 50.6328L44.3571 50.1037M44.3571 50.1037L46.4297 53.698L41.0724 56.7931C41.0724 56.7931 41.0724 56.7931 41.0724 56.7931C40.9897 56.8409 40.9173 56.9044 40.8593 56.9802C40.8012 57.0559 40.7586 57.1424 40.734 57.2346C40.7094 57.3268 40.7031 57.4229 40.7157 57.5175C40.7283 57.6121 40.7593 57.7033 40.8072 57.7859L42.1517 60.1161L44.3571 50.1037ZM42.6469 60.4679L42.6467 60.4678C42.5437 60.4484 42.4461 60.4069 42.3607 60.3462C42.2753 60.2855 42.204 60.2071 42.1518 60.1163L42.6469 60.4679ZM42.6469 60.4679C43.4525 60.6185 44.1762 61.0909 44.6163 61.8538C45.4164 63.2409 44.94 65.0224 43.5548 65.8229C42.1706 66.6228 40.407 66.1415 39.6051 64.7513C39.165 63.9883 39.1179 63.1238 39.3905 62.3497L39.3905 62.3495M42.6469 60.4679L39.3905 62.3495M39.3905 62.3495C39.4252 62.2507 39.4381 62.1455 39.4283 62.0412M39.3905 62.3495L39.4283 62.0412M45.0649 48.5358C44.9892 48.4777 44.9028 48.4352 44.8106 48.4105M45.0649 48.5358L44.8106 48.4105M44.8106 48.4105C44.7184 48.3859 44.6222 48.3797 44.5276 48.3922M44.8106 48.4105L44.5276 48.3922M44.5276 48.3922C44.433 48.4048 44.3419 48.4359 44.2594 48.4836L44.5276 48.3922ZM39.4283 62.0412C39.4185 61.937 39.3863 61.8361 39.3339 61.7455L39.4283 62.0412Z" fill="white" stroke="white" stroke-width="0.3"/>
</svg>
