<svg width="157" height="53" viewBox="0 0 157 53" fill="none" xmlns="http://www.w3.org/2000/svg">
<path d="M9.77424 9.15132H18.8024V0.123169H27.8305V9.15132V27.2041H14.1552H9.77424H0.746094V18.176H9.77424V9.15132Z" fill="#06B3DB"/>
<path d="M54.9091 27.2345H27.8281V31.8501H54.9091V27.2345Z" fill="#06B3DB"/>
<path d="M54.9091 36.4728H27.8281V41.0884H54.9091V36.4728Z" fill="#06B3DB"/>
<path d="M54.9091 45.7111H27.8281V50.3267H54.9091V45.7111Z" fill="#06B3DB"/>
<path d="M0.746094 50.3268L14.2778 27.2031L27.8095 50.3268H0.746094Z" fill="#F57A3E"/>
<path d="M54.9107 11.9914V11.3821C54.9107 5.16604 49.7313 0.123169 43.3401 0.123169C36.949 0.123169 31.7695 5.16254 31.7695 11.3821V23.2504H43.3401C49.7313 23.2504 54.9107 18.211 54.9107 11.9914Z" fill="#F57A3E"/>
<path d="M74.4804 0.147705V16.5476H70.4355V0.147705H74.4804Z" fill="#222C5D"/>
<path d="M81.6698 5.31663V16.551H77.625V5.31663H81.6698ZM79.9888 4.16798H79.306C78.3779 4.16798 77.625 3.41505 77.625 2.48702V1.80413C77.625 0.876099 78.3779 0.123169 79.306 0.123169H79.9888C80.9169 0.123169 81.6698 0.876099 81.6698 1.80413V2.48702C81.6698 3.41505 80.9169 4.16798 79.9888 4.16798Z" fill="#222C5D"/>
<path d="M85.3754 11.7637V8.68546H83.4668V5.31654H85.3754V2.50793H89.4202V5.31654H93.1043V8.68546H89.4202V11.6271C89.4202 12.7058 90.0716 13.3116 91.1292 13.3116C91.6895 13.3116 92.5685 13.154 93.1078 12.8633V16.4354C92.5475 16.7506 91.5144 16.9082 90.7474 16.9082C87.0844 16.9082 85.3789 14.7509 85.3789 11.7637H85.3754Z" fill="#222C5D"/>
<path d="M96.1352 11.7637V8.68546H94.2266V5.31654H96.1352V2.50793H100.18V5.31654H103.864V8.68546H100.18V11.6271C100.18 12.7058 100.831 13.3116 101.889 13.3116C102.449 13.3116 103.328 13.154 103.868 12.8633V16.4354C103.307 16.7506 102.274 16.9082 101.507 16.9082C97.8441 16.9082 96.1387 14.7509 96.1387 11.7637H96.1352Z" fill="#222C5D"/>
<path d="M110.154 0.147705V16.5476H106.109V0.147705H110.154Z" fill="#222C5D"/>
<path d="M112.398 10.7968C112.398 7.56092 114.825 4.86438 118.372 4.86438C121.92 4.86438 124.102 7.60645 124.102 10.6147V11.6267H116.282C116.551 12.7509 117.406 13.4233 118.642 13.4233C119.721 13.4233 120.575 12.8384 120.978 11.9629L124.077 13.5143C123.111 15.605 121.202 16.8622 118.684 16.8622C115.091 16.8622 112.395 14.4809 112.395 10.7968H112.398ZM120.081 9.53955C119.903 8.90919 119.272 8.32786 118.33 8.32786C117.388 8.32786 116.712 8.88817 116.467 9.53955H120.085H120.081Z" fill="#222C5D"/>
<path d="M74.3339 20.2628V36.6627H70.2891V20.2628H74.3339Z" fill="#222C5D"/>
<path d="M76.5816 31.0238C76.5816 27.767 79.2537 25.0704 82.7592 25.0704C86.2647 25.0704 88.9367 27.5884 88.9367 31.0238V36.662H85.116V35.8321C84.3981 36.5745 83.386 37.0017 82.0833 37.0017C78.8019 37.0017 76.5781 34.3052 76.5781 31.0273L76.5816 31.0238ZM84.8919 31.0448C84.8919 29.8542 84.0374 28.8666 82.7592 28.8666C81.4809 28.8666 80.6264 29.8542 80.6264 31.0448C80.6264 32.2355 81.4809 33.2021 82.7592 33.2021C84.0374 33.2021 84.8919 32.2145 84.8919 31.0448Z" fill="#222C5D"/>
<path d="M95.2245 31.6301V36.6625H91.1797V31.1364C91.1797 27.834 93.1128 25.0919 97.2697 25.0919C101.427 25.0919 103.36 27.834 103.36 31.1364V36.6625H99.3148V31.6301C99.3148 30.2153 98.7545 29.0247 97.2697 29.0247C95.7848 29.0247 95.2245 30.2153 95.2245 31.6301Z" fill="#222C5D"/>
<path d="M106.618 31.8788V28.8006H104.709V25.4317H106.618V22.623H110.662V25.4317H114.346V28.8006H110.662V31.7423C110.662 32.8209 111.314 33.4267 112.371 33.4267C112.932 33.4267 113.811 33.2691 114.35 32.9785V36.5505C113.79 36.8657 112.757 37.0233 111.99 37.0233C108.327 37.0233 106.621 34.866 106.621 31.8788H106.618Z" fill="#222C5D"/>
<path d="M115.691 30.912C115.691 27.6762 118.118 24.9796 121.665 24.9796C125.213 24.9796 127.395 27.7217 127.395 30.7299V31.742H119.575C119.844 32.8661 120.699 33.5385 121.935 33.5385C123.014 33.5385 123.868 32.9537 124.271 32.0782L127.37 33.6296C126.404 35.7202 124.495 36.9775 121.977 36.9775C118.384 36.9775 115.688 34.5961 115.688 30.912H115.691ZM123.374 29.6548C123.196 29.0244 122.565 28.4431 121.623 28.4431C120.681 28.4431 120.005 29.0034 119.76 29.6548H123.378H123.374Z" fill="#222C5D"/>
<path d="M129.418 36.662V30.439C129.418 27.4518 131.127 25.0704 134.786 25.0704C135.55 25.0704 136.38 25.2035 136.943 25.4522V29.3394C136.404 29.0487 135.732 28.8911 135.168 28.8911C134.114 28.8911 133.459 29.497 133.459 30.5756V36.6655H129.414L129.418 36.662Z" fill="#222C5D"/>
<path d="M142.221 31.6301V36.6625H138.176V31.1364C138.176 27.834 140.109 25.0919 144.266 25.0919C148.423 25.0919 150.356 27.834 150.356 31.1364V36.6625H146.311V31.6301C146.311 30.2153 145.751 29.0247 144.266 29.0247C142.781 29.0247 142.221 30.2153 142.221 31.6301Z" fill="#222C5D"/>
<path d="M70.9579 43.8477H70.2891V50.2388H70.9579H71.3502H74.1798V49.2898H71.3502V47.2831H73.9977V46.3516H71.3502V44.7967H74.1798V43.8477H71.3502H70.9579Z" fill="#222C5D"/>
<path d="M78.017 46.0956C77.7508 45.9941 77.4461 45.9415 77.0994 45.9415C76.7107 45.9415 76.364 45.9976 76.0629 46.1061C75.7617 46.2147 75.5165 46.3267 75.3274 46.4458L75.7302 47.1392C75.7897 47.0972 75.8843 47.0447 76.0103 46.9781C76.1364 46.9151 76.2835 46.8591 76.4586 46.8135C76.6302 46.768 76.8158 46.7435 77.0119 46.7435C77.138 46.7435 77.257 46.754 77.3691 46.7785C77.4777 46.803 77.5722 46.8415 77.6528 46.8976C77.7333 46.9536 77.7929 47.0236 77.8384 47.1077C77.8839 47.1917 77.9084 47.3038 77.9084 47.4369V47.9517C77.7788 47.8746 77.6142 47.8046 77.4181 47.7451C77.215 47.6855 76.9734 47.654 76.6932 47.654C76.1679 47.654 75.7652 47.7731 75.478 48.0147C75.1909 48.2563 75.0508 48.5785 75.0508 48.9883C75.0508 49.2754 75.1173 49.5171 75.2504 49.7202C75.3835 49.9198 75.5621 50.0739 75.7897 50.1754C76.0138 50.2805 76.259 50.3295 76.5216 50.3295C76.7633 50.3295 77.0049 50.284 77.2395 50.1965C77.4742 50.1089 77.6703 49.9758 77.8244 49.7937C77.8559 49.7552 77.8839 49.7132 77.9119 49.6712V50.235H78.8785V47.2408C78.8785 46.9606 78.8014 46.726 78.6508 46.5334C78.5003 46.3408 78.2901 46.1937 78.024 46.0886L78.017 46.0956ZM77.7543 49.1213C77.6528 49.2754 77.5232 49.3945 77.3621 49.4715C77.201 49.5486 77.0224 49.5906 76.8263 49.5906C76.6757 49.5906 76.5391 49.5661 76.4201 49.5171C76.301 49.468 76.2099 49.3945 76.1399 49.2929C76.0734 49.1914 76.0383 49.0723 76.0383 48.9322C76.0383 48.7922 76.0699 48.6871 76.1329 48.596C76.1959 48.505 76.294 48.435 76.4201 48.3824C76.5461 48.3299 76.7142 48.3054 76.9209 48.3054C77.159 48.3054 77.3831 48.3369 77.5967 48.3964C77.7018 48.4244 77.7999 48.4665 77.8979 48.512V48.5785C77.8979 48.7852 77.8489 48.9673 77.7473 49.1213H77.7543Z" fill="#222C5D"/>
<path d="M81.9561 45.9489C81.7425 45.9489 81.5359 46.026 81.3398 46.1766C81.2067 46.2781 81.0981 46.4147 80.9966 46.5618V46.0365H80.0195V50.2354H80.9966V47.8715C80.9966 47.6719 81.0211 47.4968 81.0666 47.3462C81.1122 47.1956 81.1857 47.0801 81.2908 46.996C81.3958 46.912 81.5289 46.8665 81.6935 46.8665C81.8161 46.8665 81.9141 46.884 81.9947 46.9225C82.0752 46.9575 82.1593 47.0135 82.2503 47.0871L82.7266 46.2571C82.6355 46.1415 82.5235 46.061 82.3869 46.0155C82.2503 45.9699 82.1102 45.9454 81.9596 45.9454L81.9561 45.9489Z" fill="#222C5D"/>
<path d="M84.386 43.1193H83.3984V50.2423H84.386V43.1193Z" fill="#222C5D"/>
<path d="M87.2147 48.7672L86.1151 46.0392H84.9805L86.6719 49.7478L85.5758 52.2482H86.6264L89.365 46.0392H88.3039L87.2147 48.7672Z" fill="#222C5D"/>
<path d="M93.856 43.8478H92.7773V50.2389H96.3914V49.2724H93.856V43.8478Z" fill="#222C5D"/>
<path d="M100.089 46.205C99.7773 46.0334 99.4026 45.9493 98.9579 45.9493C98.5131 45.9493 98.1279 46.0404 97.7987 46.219C97.4695 46.3976 97.2139 46.6532 97.0353 46.9824C96.8567 47.3116 96.7656 47.6968 96.7656 48.1416C96.7656 48.5863 96.8532 48.9646 97.0318 49.2937C97.2069 49.6229 97.459 49.8786 97.7847 50.0607C98.1104 50.2428 98.4851 50.3338 98.9124 50.3338C99.3991 50.3338 99.8159 50.2393 100.163 50.0502C100.509 49.8611 100.793 49.5774 101.014 49.2027L100.163 48.856C100.029 49.0801 99.8614 49.2482 99.6618 49.3568C99.4622 49.4653 99.2275 49.5214 98.9579 49.5214C98.6882 49.5214 98.4851 49.4653 98.3065 49.3568C98.1279 49.2482 97.9913 49.0871 97.9003 48.877C97.8372 48.7334 97.8057 48.5583 97.7847 48.3692H101.042C101.049 48.3447 101.052 48.3062 101.056 48.2502C101.056 48.1941 101.059 48.1451 101.059 48.0961C101.059 47.6443 100.975 47.2591 100.807 46.9404C100.639 46.6217 100.401 46.3766 100.089 46.205ZM98.31 46.8634C98.4851 46.7548 98.6987 46.6988 98.9509 46.6988C99.1575 46.6988 99.3396 46.7443 99.4937 46.8353C99.6478 46.9264 99.7703 47.056 99.8579 47.2171C99.9314 47.3536 99.9664 47.5147 99.977 47.6933H97.8022C97.8267 47.5638 97.8618 47.4412 97.9073 47.3361C97.9983 47.1295 98.1314 46.9719 98.31 46.8599V46.8634Z" fill="#222C5D"/>
<path d="M104.597 46.0956C104.331 45.9941 104.026 45.9415 103.68 45.9415C103.291 45.9415 102.944 45.9976 102.643 46.1061C102.342 46.2147 102.097 46.3267 101.908 46.4458L102.31 47.1392C102.37 47.0972 102.464 47.0447 102.59 46.9781C102.713 46.9151 102.864 46.8591 103.039 46.8135C103.214 46.768 103.396 46.7435 103.592 46.7435C103.722 46.7435 103.841 46.754 103.949 46.7785C104.058 46.803 104.152 46.8415 104.233 46.8976C104.313 46.9536 104.373 47.0236 104.418 47.1077C104.464 47.1917 104.488 47.3038 104.488 47.4369V47.9517C104.355 47.8746 104.194 47.8046 103.998 47.7451C103.795 47.6855 103.553 47.654 103.273 47.654C102.751 47.654 102.345 47.7731 102.058 48.0147C101.771 48.2563 101.631 48.5785 101.631 48.9883C101.631 49.2754 101.697 49.5171 101.83 49.7202C101.964 49.9198 102.146 50.0739 102.37 50.1754C102.594 50.2805 102.839 50.3295 103.102 50.3295C103.347 50.3295 103.585 50.284 103.82 50.1965C104.054 50.1089 104.25 49.9758 104.404 49.7937C104.436 49.7552 104.464 49.7132 104.492 49.6712V50.235H105.459V47.2408C105.459 46.9606 105.381 46.726 105.231 46.5334C105.077 46.3408 104.87 46.1937 104.604 46.0886L104.597 46.0956ZM104.331 49.1213C104.229 49.2754 104.1 49.3945 103.939 49.4715C103.778 49.5521 103.599 49.5906 103.403 49.5906C103.252 49.5906 103.116 49.5661 102.997 49.5171C102.878 49.468 102.787 49.3945 102.716 49.2929C102.646 49.1914 102.615 49.0723 102.615 48.9322C102.615 48.7922 102.646 48.6871 102.709 48.596C102.772 48.505 102.871 48.435 102.997 48.3824C103.123 48.3299 103.291 48.3054 103.497 48.3054C103.736 48.3054 103.96 48.3369 104.173 48.3964C104.278 48.4244 104.376 48.4665 104.474 48.512V48.5785C104.474 48.7852 104.425 48.9673 104.324 49.1213H104.331Z" fill="#222C5D"/>
<path d="M108.536 45.9488C108.323 45.9488 108.119 46.0259 107.92 46.1764C107.787 46.278 107.678 46.4146 107.577 46.5617V46.0364H106.6V50.2353H107.577V47.8714C107.577 47.6718 107.601 47.4967 107.647 47.3461C107.692 47.1955 107.766 47.08 107.871 46.9959C107.972 46.9119 108.109 46.8663 108.274 46.8663C108.396 46.8663 108.494 46.8838 108.575 46.9224C108.655 46.9574 108.739 47.0134 108.83 47.087L109.307 46.257C109.216 46.1414 109.104 46.0609 108.967 46.0154C108.83 45.9698 108.69 45.9453 108.536 45.9453V45.9488Z" fill="#222C5D"/>
<path d="M112.236 45.9493C111.945 45.9493 111.693 46.0089 111.483 46.1314C111.273 46.254 111.101 46.4396 110.968 46.6883V46.0404H109.98V50.2393H110.968V47.6828C110.968 47.4937 111.007 47.3291 111.087 47.1855C111.168 47.042 111.276 46.9334 111.416 46.8564C111.556 46.7793 111.717 46.7408 111.9 46.7408C112.169 46.7408 112.365 46.8213 112.495 46.9789C112.624 47.1365 112.688 47.3712 112.688 47.6828V50.2393H113.7V47.5743C113.7 47.07 113.574 46.6708 113.325 46.3836C113.076 46.0929 112.712 45.9493 112.239 45.9493H112.236Z" fill="#222C5D"/>
<path d="M115.54 43.7677C115.375 43.7677 115.231 43.8238 115.105 43.9394C114.979 44.055 114.916 44.1987 114.916 44.3703C114.916 44.542 114.979 44.6752 115.105 44.7943C115.228 44.9134 115.375 44.973 115.54 44.973C115.715 44.973 115.866 44.9134 115.985 44.7943C116.104 44.6752 116.163 44.535 116.163 44.3703C116.163 44.2057 116.104 44.055 115.985 43.9394C115.866 43.8238 115.718 43.7677 115.54 43.7677Z" fill="#222C5D"/>
<path d="M116.021 46.0392H115.055V50.2381H116.021V46.0392Z" fill="#222C5D"/>
<path d="M119.638 45.9493C119.347 45.9493 119.095 46.0089 118.885 46.1314C118.675 46.254 118.503 46.4396 118.37 46.6883V46.0404H117.383V50.2393H118.37V47.6828C118.37 47.4937 118.409 47.3291 118.489 47.1855C118.57 47.042 118.679 46.9334 118.819 46.8564C118.959 46.7793 119.12 46.7408 119.302 46.7408C119.572 46.7408 119.768 46.8213 119.897 46.9789C120.027 47.1365 120.09 47.3712 120.09 47.6828V50.2393H121.102V47.5743C121.102 47.07 120.976 46.6708 120.727 46.3836C120.479 46.0929 120.114 45.9493 119.642 45.9493H119.638Z" fill="#222C5D"/>
<path d="M125.516 46.7303C125.38 46.5132 125.208 46.3381 125.008 46.2085C124.742 46.0369 124.434 45.9493 124.08 45.9493C123.727 45.9493 123.383 46.0334 123.072 46.205C122.757 46.3766 122.508 46.6217 122.319 46.9404C122.13 47.2591 122.035 47.6548 122.035 48.1241C122.035 48.5934 122.13 48.9716 122.319 49.2937C122.508 49.6159 122.76 49.8646 123.072 50.0327C123.387 50.2043 123.723 50.2883 124.08 50.2883C124.438 50.2883 124.742 50.2008 125.008 50.0292C125.208 49.8961 125.376 49.7245 125.516 49.5074V50.1517C125.516 50.4669 125.457 50.7261 125.338 50.9292C125.218 51.1288 125.064 51.2794 124.875 51.3774C124.686 51.4755 124.49 51.5245 124.28 51.5245C124.049 51.5245 123.846 51.4825 123.667 51.3984C123.492 51.3144 123.352 51.1953 123.25 51.0412C123.149 50.8907 123.096 50.7191 123.089 50.53H122.112C122.126 50.8942 122.217 51.2163 122.392 51.4965C122.567 51.7767 122.813 51.9938 123.138 52.1479C123.46 52.302 123.849 52.3825 124.308 52.3825C124.69 52.3825 125.047 52.302 125.376 52.1409C125.705 51.9798 125.971 51.7346 126.175 51.4055C126.378 51.0763 126.479 50.6595 126.479 50.1552V46.0474H125.513V46.7408L125.516 46.7303ZM125.338 48.8385C125.218 49.0381 125.068 49.1852 124.882 49.2797C124.697 49.3778 124.511 49.4268 124.322 49.4268C124.098 49.4268 123.888 49.3778 123.695 49.2762C123.503 49.1747 123.348 49.0276 123.233 48.835C123.117 48.6389 123.061 48.4042 123.061 48.1241C123.061 47.8439 123.121 47.5988 123.233 47.4027C123.348 47.2066 123.503 47.0595 123.695 46.9614C123.888 46.8599 124.094 46.8108 124.322 46.8108C124.462 46.8108 124.602 46.8388 124.746 46.8949C124.889 46.9509 125.019 47.035 125.134 47.147C125.25 47.2591 125.345 47.3957 125.415 47.5568C125.485 47.7178 125.52 47.907 125.52 48.1276C125.52 48.4077 125.46 48.6459 125.341 48.8455L125.338 48.8385Z" fill="#222C5D"/>
<path d="M133.481 43.739C133.012 43.739 132.574 43.8195 132.171 43.9771C131.765 44.1347 131.415 44.3623 131.117 44.66C130.819 44.9577 130.585 45.3114 130.42 45.7141C130.252 46.1203 130.168 46.5616 130.168 47.0414C130.168 47.5211 130.252 47.9659 130.42 48.3686C130.588 48.7748 130.819 49.125 131.117 49.4227C131.415 49.7204 131.768 49.948 132.171 50.1056C132.574 50.2632 133.012 50.3437 133.481 50.3437C133.95 50.3437 134.339 50.2842 134.651 50.1686C134.962 50.0531 135.249 49.885 135.519 49.6679V48.3896C135.372 48.5612 135.2 48.7153 135.004 48.8519C134.805 48.9885 134.587 49.097 134.342 49.1776C134.097 49.2581 133.824 49.2966 133.519 49.2966C133.131 49.2966 132.77 49.2056 132.437 49.0165C132.105 48.8309 131.838 48.5682 131.635 48.225C131.432 47.8853 131.331 47.4896 131.331 47.0379C131.331 46.5861 131.432 46.1834 131.635 45.8472C131.838 45.5075 132.108 45.2483 132.437 45.0627C132.77 44.8771 133.131 44.7826 133.519 44.7826C133.824 44.7826 134.097 44.8211 134.342 44.9016C134.587 44.9822 134.808 45.0872 135.004 45.2273C135.2 45.3639 135.375 45.518 135.519 45.6896V44.4114C135.249 44.1907 134.962 44.0261 134.651 43.9106C134.339 43.795 133.95 43.7355 133.481 43.7355V43.739Z" fill="#222C5D"/>
<path d="M139.761 46.205C139.449 46.0334 139.075 45.9493 138.63 45.9493C138.185 45.9493 137.8 46.0404 137.471 46.219C137.141 46.3976 136.889 46.6532 136.707 46.9824C136.529 47.3116 136.438 47.6968 136.438 48.1416C136.438 48.5863 136.525 48.9646 136.704 49.2937C136.879 49.6229 137.131 49.8786 137.457 50.0607C137.782 50.2428 138.157 50.3338 138.584 50.3338C139.071 50.3338 139.488 50.2393 139.834 50.0502C140.181 49.8611 140.465 49.5774 140.682 49.2027L139.834 48.856C139.701 49.0801 139.533 49.2482 139.334 49.3568C139.134 49.4653 138.899 49.5214 138.63 49.5214C138.36 49.5214 138.157 49.4653 137.978 49.3568C137.8 49.2482 137.663 49.0871 137.572 48.877C137.509 48.7334 137.478 48.5583 137.457 48.3692H140.713C140.72 48.3447 140.724 48.3062 140.727 48.2502C140.727 48.1941 140.731 48.1451 140.731 48.0961C140.731 47.6443 140.647 47.2591 140.479 46.9404C140.311 46.6217 140.073 46.3766 139.761 46.205ZM137.982 46.8634C138.157 46.7548 138.371 46.6988 138.619 46.6988C138.826 46.6988 139.008 46.7443 139.162 46.8353C139.316 46.9264 139.439 47.056 139.526 47.2171C139.6 47.3536 139.635 47.5147 139.649 47.6933H137.474C137.499 47.5638 137.534 47.4412 137.579 47.3361C137.67 47.1295 137.803 46.9719 137.982 46.8599V46.8634Z" fill="#222C5D"/>
<path d="M143.923 45.9493C143.633 45.9493 143.38 46.0089 143.17 46.1314C142.96 46.254 142.789 46.4396 142.656 46.6883V46.0404H141.668V50.2393H142.656V47.6828C142.656 47.4937 142.694 47.3291 142.775 47.1855C142.855 47.042 142.964 46.9334 143.104 46.8564C143.244 46.7793 143.405 46.7408 143.587 46.7408C143.853 46.7408 144.053 46.8213 144.179 46.9789C144.305 47.1365 144.372 47.3712 144.372 47.6828V50.2393H145.384V47.5743C145.384 47.07 145.258 46.6708 145.009 46.3836C144.76 46.0929 144.396 45.9493 143.923 45.9493Z" fill="#222C5D"/>
<path d="M147.74 44.5802H146.762V46.0405H146.059V46.909H146.762V50.2394H147.74V46.909H148.443V46.0405H147.74V44.5802Z" fill="#222C5D"/>
<path d="M152.12 46.205C151.809 46.0334 151.434 45.9493 150.989 45.9493C150.544 45.9493 150.159 46.0404 149.83 46.219C149.501 46.3976 149.245 46.6532 149.067 46.9824C148.888 47.3116 148.797 47.6968 148.797 48.1416C148.797 48.5863 148.884 48.9646 149.063 49.2937C149.242 49.6229 149.49 49.8786 149.816 50.0607C150.142 50.2428 150.516 50.3338 150.944 50.3338C151.43 50.3338 151.847 50.2393 152.194 50.0502C152.54 49.8611 152.824 49.5774 153.041 49.2027L152.194 48.856C152.061 49.0801 151.893 49.2482 151.693 49.3568C151.493 49.4653 151.259 49.5214 150.989 49.5214C150.719 49.5214 150.516 49.4653 150.338 49.3568C150.159 49.2482 150.023 49.0871 149.932 48.877C149.868 48.7334 149.837 48.5583 149.816 48.3692H153.073C153.08 48.3447 153.083 48.3062 153.087 48.2502C153.087 48.1941 153.09 48.1451 153.09 48.0961C153.09 47.6443 153.006 47.2591 152.838 46.9404C152.67 46.6217 152.432 46.3766 152.12 46.205ZM150.341 46.8634C150.516 46.7548 150.73 46.6988 150.982 46.6988C151.189 46.6988 151.371 46.7443 151.525 46.8353C151.679 46.9264 151.802 47.056 151.889 47.2171C151.963 47.3536 151.998 47.5147 152.008 47.6933H149.833C149.858 47.5638 149.893 47.4412 149.939 47.3361C150.03 47.1295 150.163 46.9719 150.341 46.8599V46.8634Z" fill="#222C5D"/>
<path d="M156.397 46.0154C156.264 45.9698 156.12 45.9453 155.97 45.9453C155.756 45.9453 155.55 46.0224 155.353 46.1729C155.22 46.2745 155.112 46.4111 155.01 46.5582V46.0329H154.033V50.2318H155.01V47.8679C155.01 47.6683 155.035 47.4932 155.08 47.3426C155.126 47.192 155.199 47.0765 155.304 46.9924C155.409 46.9084 155.543 46.8628 155.707 46.8628C155.83 46.8628 155.928 46.8803 156.008 46.9189C156.089 46.9539 156.173 47.0099 156.264 47.0835L156.74 46.2535C156.649 46.1379 156.537 46.0574 156.401 46.0119L156.397 46.0154Z" fill="#222C5D"/>
</svg>
