<svg width="53" height="54" viewBox="0 0 53 54" fill="none" xmlns="http://www.w3.org/2000/svg">
<path d="M53 27.3549V25.9576C53 11.7088 41.1363 0.15625 26.5 0.15625C11.8637 0.15625 0 11.7088 0 25.9576L0 53.1562L26.5 53.1562C41.1363 53.1562 53 41.6037 53 27.3549Z" fill="white"/>
<g clip-path="url(#clip0_1_7508)">
<mask id="path-3-outside-1_1_7508" maskUnits="userSpaceOnUse" x="-5.44238" y="-1.68164" width="62" height="67" fill="black">
<rect fill="white" x="-5.44238" y="-1.68164" width="62" height="67"/>
<path d="M25.5308 8.86043C22.1998 8.86087 18.9309 9.76197 16.0702 11.4683C13.2094 13.1747 10.8633 15.6228 9.28012 18.5535C7.69697 21.4842 6.9357 24.7885 7.07692 28.1165C7.21814 31.4445 8.25658 34.6724 10.0823 37.4584C11.8582 40.1617 12.8847 43.5102 13.8772 46.7481C14.0269 47.2363 14.1803 47.7347 14.3358 48.2303H13.7527C13.5463 48.2303 13.3483 48.3123 13.2024 48.4582C13.0564 48.6042 12.9744 48.8022 12.9744 49.0086V51.6395C12.9754 52.5239 13.3197 53.3734 13.9348 54.0088C14.5499 54.6443 15.3877 55.0161 16.2715 55.0459V56.8992C16.2725 57.8031 16.632 58.6697 17.2712 59.3089C17.9103 59.948 18.7769 60.3075 19.6808 60.3085H19.7372C20.1578 61.5099 20.9413 62.5509 21.9794 63.2875C23.0176 64.024 24.259 64.4196 25.5319 64.4196C26.8047 64.4196 28.0462 64.024 29.0843 63.2875C30.1224 62.5509 30.906 61.5099 31.3265 60.3085H31.3822C32.2858 60.3072 33.1521 59.9475 33.7909 59.3084C34.4298 58.6693 34.7891 57.8029 34.79 56.8992V55.0459C35.6738 55.0159 36.5114 54.644 37.1263 54.0086C37.7412 53.3732 38.0855 52.5238 38.0864 51.6395V49.0086C38.0864 48.8022 38.0044 48.6042 37.8585 48.4582C37.7125 48.3123 37.5145 48.2303 37.3081 48.2303H36.725C36.8755 47.7499 37.0238 47.266 37.1692 46.7922C38.1689 43.5326 39.2019 40.1624 40.9785 37.4606C42.8048 34.6746 43.8437 31.4465 43.9853 28.1183C44.1268 24.79 43.3657 21.4854 41.7826 18.5544C40.1994 15.6233 37.8532 13.1749 34.9922 11.4684C32.1312 9.76187 28.862 8.86075 25.5308 8.86043ZM25.5308 62.8664C24.6757 62.8656 23.8378 62.6259 23.1116 62.1745C22.3854 61.7231 21.7997 61.0778 21.4205 60.3114H29.6425C29.2649 61.0794 28.6794 61.7261 27.9525 62.1777C27.2256 62.6294 26.3866 62.868 25.5308 62.8664ZM31.3815 58.7554H19.6801C19.1882 58.7548 18.7168 58.559 18.3692 58.2109C18.0217 57.8629 17.8266 57.3911 17.8268 56.8992V55.0488H33.2348V56.8992C33.2349 57.3911 33.0398 57.8629 32.6923 58.2109C32.3448 58.559 31.8733 58.7548 31.3815 58.7554ZM36.5305 51.6395C36.5301 52.1308 36.3348 52.6019 35.9875 52.9493C35.6402 53.2968 35.1692 53.4923 34.6779 53.4928H16.3837C15.8924 53.4923 15.4214 53.2968 15.0741 52.9493C14.7268 52.6019 14.5315 52.1308 14.5311 51.6395V49.7863H36.5305V51.6395ZM39.6786 36.6041C37.7797 39.4977 36.7128 42.9699 35.6819 46.3357C35.4816 46.9868 35.2899 47.6132 35.0938 48.2303H15.9677C15.7637 47.5894 15.5619 46.9325 15.3651 46.2916C14.3408 42.9496 13.2811 39.4919 11.383 36.6041C9.71147 34.053 8.7609 31.0973 8.63189 28.0501C8.50289 25.0029 9.20024 21.9775 10.6501 19.2941C12.1 16.6108 14.2485 14.3695 16.868 12.8074C19.4876 11.2453 22.4808 10.4206 25.5308 10.4206C28.5807 10.4206 31.574 11.2453 34.1935 12.8074C36.8131 14.3695 38.9616 16.6108 40.4114 19.2941C41.8613 21.9775 42.5587 25.0029 42.4297 28.0501C42.3007 31.0973 41.3501 34.053 39.6786 36.6041ZM24.7524 5.41716V0.096714C24.7524 -0.109718 24.8344 -0.307696 24.9804 -0.453666C25.1264 -0.599636 25.3243 -0.681641 25.5308 -0.681641C25.7372 -0.681641 25.9352 -0.599636 26.0812 -0.453666C26.2271 -0.307696 26.3091 -0.109718 26.3091 0.096714V5.41716C26.3091 5.62359 26.2271 5.82157 26.0812 5.96754C25.9352 6.11351 25.7372 6.19551 25.5308 6.19551C25.3243 6.19551 25.1264 6.11351 24.9804 5.96754C24.8344 5.82157 24.7524 5.62359 24.7524 5.41716ZM8.09737 12.9598L4.33581 9.19825C4.1971 9.05091 4.12123 8.85533 4.12429 8.65299C4.12734 8.45065 4.20908 8.25745 4.35217 8.11436C4.49527 7.97127 4.68846 7.88953 4.8908 7.88648C5.09314 7.88342 5.28872 7.95929 5.43607 8.09799L9.19763 11.8596C9.33634 12.0069 9.4122 12.2025 9.40915 12.4048C9.40609 12.6072 9.32435 12.8004 9.18126 12.9434C9.03817 13.0865 8.84497 13.1683 8.64263 13.1713C8.44029 13.1744 8.24472 13.0985 8.09737 12.9598ZM2.43332 29.2915C2.43333 29.4972 2.35192 29.6945 2.20689 29.8404C2.06185 29.9862 1.86499 30.0687 1.65931 30.0699H-3.66403C-3.87046 30.0699 -4.06844 29.9879 -4.21441 29.8419C-4.36038 29.6959 -4.44238 29.4979 -4.44238 29.2915C-4.44238 29.0851 -4.36038 28.8871 -4.21441 28.7411C-4.06844 28.5952 -3.87046 28.5132 -3.66403 28.5132H1.65931C1.86524 28.5139 2.06248 28.5963 2.20782 28.7422C2.35316 28.888 2.43332 29.0856 2.43332 29.2915ZM46.7257 8.09727C46.8716 8.24322 46.9535 8.44109 46.9535 8.6474C46.9535 8.85371 46.8716 9.05158 46.7257 9.19753L42.9642 12.9591C42.8168 13.0978 42.6213 13.1737 42.4189 13.1706C42.2166 13.1676 42.0234 13.0858 41.8803 12.9427C41.7372 12.7996 41.6555 12.6064 41.6524 12.4041C41.6494 12.2018 41.7252 12.0062 41.8639 11.8588L45.6255 8.09727C45.7714 7.95146 45.9693 7.86955 46.1756 7.86955C46.3819 7.86955 46.5798 7.95146 46.7257 8.09727ZM55.5047 29.2922C55.5047 29.4987 55.4227 29.6966 55.2767 29.8426C55.1307 29.9886 54.9327 30.0706 54.7263 30.0706H49.4022C49.1958 30.0706 48.9978 29.9886 48.8519 29.8426C48.7059 29.6966 48.6239 29.4987 48.6239 29.2922C48.6239 29.0858 48.7059 28.8878 48.8519 28.7419C48.9978 28.5959 49.1958 28.5139 49.4022 28.5139H54.7227C54.8251 28.5135 54.9265 28.5333 55.0213 28.5722C55.116 28.6111 55.2021 28.6683 55.2747 28.7406C55.3473 28.8128 55.4049 28.8987 55.4442 28.9932C55.4835 29.0877 55.5046 29.1898 55.5047 29.2922ZM35.9843 22.86C36.9196 20.2645 36.78 18.1956 35.5734 16.9883C34.2641 15.6783 31.9385 15.6255 29.0269 16.8436C27.7064 17.41 26.4462 18.1077 25.2653 18.9262C24.9277 18.6962 24.5901 18.4777 24.2526 18.2709C24.3082 17.8384 24.227 17.3994 24.0202 17.0155C23.8135 16.6316 23.4917 16.3221 23.1 16.1306C22.7083 15.939 22.2665 15.875 21.8365 15.9475C21.4066 16.02 21.0102 16.2253 20.703 16.5347C18.1711 15.6501 16.1406 15.8063 14.9572 16.9905C13.7506 18.1971 13.611 20.2652 14.5448 22.8592C12.0506 24.0326 10.6863 25.5936 10.6863 27.3001C10.6863 29.0065 12.0506 30.5668 14.5448 31.7401C13.611 34.3342 13.7491 36.4023 14.9572 37.6089C15.3329 37.9586 15.7752 38.2291 16.2576 38.4045C16.74 38.5798 17.2527 38.6564 17.7653 38.6296C18.7691 38.6053 19.7619 38.4141 20.703 38.0639C21.0093 38.3757 21.406 38.5831 21.8368 38.6569C22.2676 38.7307 22.7108 38.6671 23.1034 38.475C23.496 38.283 23.8183 37.9723 24.0246 37.5869C24.2308 37.2015 24.3106 36.761 24.2526 36.3278C24.5901 36.1209 24.9277 35.9025 25.2653 35.6724C26.4462 36.4909 27.7064 37.1886 29.0269 37.755C30.2042 38.2862 31.4737 38.583 32.7646 38.6289C33.2769 38.6556 33.7894 38.5788 34.2715 38.4032C34.7536 38.2276 35.1954 37.9567 35.5705 37.6067C36.7771 36.4002 36.9167 34.332 35.9821 31.738C38.4771 30.5647 39.8414 29.0036 39.8414 27.2979C39.841 27.1444 39.8294 26.9911 39.8066 26.8393C40.1452 26.4781 40.3444 26.0084 40.3685 25.514C40.3926 25.0195 40.2402 24.5326 39.9383 24.1403C39.6365 23.7479 39.205 23.4756 38.7209 23.3722C38.2368 23.2687 37.7317 23.3407 37.2958 23.5754C36.8746 23.3087 36.4365 23.0697 35.9843 22.86ZM34.4732 18.0857C35.2023 18.8148 35.2183 20.3281 34.5347 22.2668C32.3883 21.5442 30.1584 21.0994 27.8991 20.943C27.4733 20.5784 27.0434 20.2293 26.6093 19.8956C30.2277 17.5598 33.3252 16.9406 34.4732 18.0886V18.0857ZM28.7288 30.7592C28.2514 31.2372 27.7643 31.6953 27.2676 32.1337C26.6199 32.1737 25.9523 32.194 25.2646 32.1944C24.5769 32.1949 23.909 32.1747 23.2608 32.1337C22.7737 31.7035 22.2867 31.2454 21.7996 30.7592C20.7156 29.6795 19.7122 28.5216 18.7976 27.295C19.712 26.068 20.7154 24.9099 21.7996 23.83C22.2867 23.3439 22.7737 22.8858 23.2608 22.4556C23.909 22.4156 24.5769 22.3953 25.2646 22.3948C25.9426 22.3948 26.6108 22.4156 27.2691 22.457C27.7638 22.8911 28.2521 23.3526 28.7288 23.8315C29.8135 24.9111 30.8171 26.0693 31.7316 27.2964C30.817 28.5237 29.8134 29.6821 28.7288 30.7621V30.7592ZM32.664 28.6405C33.1336 29.3606 33.5574 30.1096 33.9328 30.8829C32.5956 31.3413 31.2179 31.672 29.8182 31.8704L29.8298 31.8595C30.8426 30.8494 31.7893 29.7752 32.664 28.6434V28.6405ZM25.2769 33.7511L25.2631 33.7613L25.2494 33.7511H25.2769ZM20.7109 31.8704C19.3114 31.6729 17.9337 31.3433 16.5963 30.8858C16.9718 30.1125 17.3956 29.3635 17.8651 28.6434C18.7397 29.7761 19.6864 30.8514 20.6993 31.8624L20.7109 31.8704ZM17.863 25.9517C17.3934 25.2316 16.9696 24.4826 16.5942 23.7092C17.9315 23.2518 19.3092 22.9222 20.7087 22.7247L20.6972 22.7355C19.6844 23.7456 18.7377 24.8199 17.863 25.9517ZM25.2479 20.8417L25.2617 20.8316L25.2747 20.8417H25.2479ZM29.8276 22.7327L29.8182 22.7232C31.2175 22.9196 32.5952 23.2466 33.9335 23.6998C33.5575 24.4765 33.1328 25.2286 32.6618 25.9517C31.7879 24.819 30.842 23.7437 29.8298 22.7327H29.8276ZM22.1815 17.4751C22.2869 17.4751 22.3898 17.5064 22.4774 17.5649C22.565 17.6235 22.6332 17.7066 22.6735 17.804C22.7138 17.9013 22.7243 18.0084 22.7037 18.1117C22.6831 18.215 22.6323 18.3098 22.5578 18.3843C22.4832 18.4587 22.3883 18.5093 22.285 18.5298C22.1816 18.5503 22.0746 18.5396 21.9773 18.4992C21.88 18.4588 21.7969 18.3905 21.7385 18.3028C21.6801 18.2152 21.649 18.1122 21.6491 18.0068C21.6493 17.8657 21.7055 17.7305 21.8053 17.6308C21.9052 17.5311 22.0405 17.4751 22.1815 17.4751ZM16.056 18.0907C16.7728 17.3746 18.2261 17.3384 20.0946 17.9735C20.0946 17.9844 20.0946 17.996 20.0946 18.0068C20.0944 18.401 20.2058 18.7872 20.4161 19.1207C20.6263 19.4542 20.9266 19.7213 21.2824 19.8912C21.6381 20.061 22.0347 20.1266 22.4262 20.0804C22.8177 20.0342 23.188 19.8781 23.4945 19.6301C23.6391 19.7176 23.7788 19.8073 23.9205 19.8999C23.4894 20.2322 23.0604 20.5806 22.6336 20.9452C20.3727 21.0965 18.1409 21.541 15.9945 22.2675C15.3109 20.3325 15.3268 18.8177 16.0545 18.0886L16.056 18.0907ZM12.2416 27.2979C12.2416 26.2671 13.2999 25.1842 15.1503 24.2988C15.6515 25.3414 16.2319 26.344 16.8864 27.2979C16.2317 28.2514 15.6513 29.2538 15.1503 30.2963C13.2999 29.4109 12.2416 28.3258 12.2416 27.2979ZM22.1815 37.1221C22.0762 37.1222 21.9731 37.0911 21.8855 37.0327C21.7978 36.9742 21.7295 36.8911 21.6891 36.7938C21.6487 36.6964 21.6381 36.5893 21.6586 36.486C21.6791 36.3826 21.7298 36.2877 21.8043 36.2132C21.8789 36.1387 21.9738 36.088 22.0771 36.0675C22.1805 36.0469 22.2876 36.0575 22.3849 36.0979C22.4822 36.1383 22.5653 36.2067 22.6238 36.2943C22.6822 36.382 22.7134 36.485 22.7132 36.5904C22.713 36.7313 22.657 36.8665 22.5573 36.9661C22.4576 37.0658 22.3225 37.1219 22.1815 37.1221ZM23.493 34.9671C23.1866 34.7191 22.8162 34.563 22.4247 34.5168C22.0332 34.4706 21.6367 34.5362 21.2809 34.706C20.9252 34.8759 20.6248 35.143 20.4146 35.4765C20.2044 35.81 20.0929 36.1962 20.0931 36.5904C20.0931 36.6012 20.0931 36.6128 20.0931 36.6237C18.2268 37.2588 16.7714 37.2234 16.0545 36.5065C15.3254 35.7773 15.3094 34.264 15.9916 32.3297C18.138 33.0563 20.3698 33.5008 22.6308 33.652C23.0566 34.0166 23.4855 34.365 23.9176 34.6973C23.7773 34.7899 23.6348 34.8796 23.493 34.9671ZM34.4732 36.5065C34.2409 36.7071 33.9713 36.8599 33.6798 36.9562C33.3884 37.0526 33.0808 37.0905 32.7747 37.0678C31.2469 37.0678 29.0457 36.2721 26.6093 34.6966C27.0434 34.3648 27.4723 34.0166 27.8962 33.652C30.1575 33.5008 32.3895 33.0563 34.5361 32.3297C35.2183 34.2626 35.2023 35.7766 34.4732 36.5065ZM35.3788 30.2963C34.8778 29.2538 34.2974 28.2514 33.6427 27.2979C34.2999 26.3417 34.8825 25.3364 35.3854 24.2908C35.6985 24.4393 36.0037 24.604 36.2997 24.7841C36.2013 25.0958 36.1775 25.4263 36.2301 25.7489C36.2827 26.0715 36.4102 26.3772 36.6026 26.6415C36.7949 26.9058 37.0465 27.1213 37.3373 27.2706C37.6281 27.4199 37.9498 27.4989 38.2767 27.5012C38.145 28.4705 37.1048 29.4695 35.3788 30.2963ZM38.82 25.4135C38.8201 25.5188 38.789 25.6219 38.7305 25.7095C38.6721 25.7972 38.5889 25.8656 38.4916 25.906C38.3943 25.9463 38.2872 25.9569 38.1839 25.9364C38.0805 25.9159 37.9856 25.8652 37.9111 25.7907C37.8366 25.7162 37.7859 25.6212 37.7653 25.5179C37.7448 25.4146 37.7554 25.3074 37.7958 25.2101C37.8362 25.1128 37.9045 25.0297 37.9922 24.9712C38.0799 24.9128 38.1829 24.8817 38.2883 24.8818C38.4292 24.882 38.5643 24.9381 38.664 25.0377C38.7637 25.1374 38.8198 25.2725 38.82 25.4135ZM25.5308 23.6665C24.8126 23.6665 24.1105 23.8795 23.5133 24.2785C22.9161 24.6775 22.4507 25.2447 22.1758 25.9082C21.901 26.5718 21.8291 27.3019 21.9692 28.0063C22.1093 28.7107 22.4552 29.3578 22.963 29.8656C23.4709 30.3735 24.1179 30.7193 24.8223 30.8595C25.5268 30.9996 26.2569 30.9277 26.9204 30.6528C27.584 30.378 28.1511 29.9125 28.5501 29.3154C28.9492 28.7182 29.1621 28.0161 29.1621 27.2979C29.1612 26.3351 28.7783 25.412 28.0975 24.7312C27.4167 24.0504 26.4936 23.6675 25.5308 23.6665ZM25.5308 29.3725C25.1203 29.3725 24.719 29.2508 24.3777 29.0227C24.0364 28.7946 23.7704 28.4705 23.6133 28.0912C23.4563 27.7119 23.4152 27.2946 23.4953 26.892C23.5755 26.4894 23.7732 26.1196 24.0635 25.8294C24.3538 25.5392 24.7237 25.3416 25.1263 25.2616C25.529 25.1816 25.9463 25.2228 26.3255 25.38C26.7047 25.5372 27.0288 25.8033 27.2567 26.1447C27.4847 26.4861 27.6063 26.8874 27.6062 27.2979C27.6054 27.848 27.3865 28.3754 26.9974 28.7643C26.6083 29.1532 26.0809 29.372 25.5308 29.3725Z"/>
</mask>
<path d="M25.5308 8.86043C22.1998 8.86087 18.9309 9.76197 16.0702 11.4683C13.2094 13.1747 10.8633 15.6228 9.28012 18.5535C7.69697 21.4842 6.9357 24.7885 7.07692 28.1165C7.21814 31.4445 8.25658 34.6724 10.0823 37.4584C11.8582 40.1617 12.8847 43.5102 13.8772 46.7481C14.0269 47.2363 14.1803 47.7347 14.3358 48.2303H13.7527C13.5463 48.2303 13.3483 48.3123 13.2024 48.4582C13.0564 48.6042 12.9744 48.8022 12.9744 49.0086V51.6395C12.9754 52.5239 13.3197 53.3734 13.9348 54.0088C14.5499 54.6443 15.3877 55.0161 16.2715 55.0459V56.8992C16.2725 57.8031 16.632 58.6697 17.2712 59.3089C17.9103 59.948 18.7769 60.3075 19.6808 60.3085H19.7372C20.1578 61.5099 20.9413 62.5509 21.9794 63.2875C23.0176 64.024 24.259 64.4196 25.5319 64.4196C26.8047 64.4196 28.0462 64.024 29.0843 63.2875C30.1224 62.5509 30.906 61.5099 31.3265 60.3085H31.3822C32.2858 60.3072 33.1521 59.9475 33.7909 59.3084C34.4298 58.6693 34.7891 57.8029 34.79 56.8992V55.0459C35.6738 55.0159 36.5114 54.644 37.1263 54.0086C37.7412 53.3732 38.0855 52.5238 38.0864 51.6395V49.0086C38.0864 48.8022 38.0044 48.6042 37.8585 48.4582C37.7125 48.3123 37.5145 48.2303 37.3081 48.2303H36.725C36.8755 47.7499 37.0238 47.266 37.1692 46.7922C38.1689 43.5326 39.2019 40.1624 40.9785 37.4606C42.8048 34.6746 43.8437 31.4465 43.9853 28.1183C44.1268 24.79 43.3657 21.4854 41.7826 18.5544C40.1994 15.6233 37.8532 13.1749 34.9922 11.4684C32.1312 9.76187 28.862 8.86075 25.5308 8.86043ZM25.5308 62.8664C24.6757 62.8656 23.8378 62.6259 23.1116 62.1745C22.3854 61.7231 21.7997 61.0778 21.4205 60.3114H29.6425C29.2649 61.0794 28.6794 61.7261 27.9525 62.1777C27.2256 62.6294 26.3866 62.868 25.5308 62.8664ZM31.3815 58.7554H19.6801C19.1882 58.7548 18.7168 58.559 18.3692 58.2109C18.0217 57.8629 17.8266 57.3911 17.8268 56.8992V55.0488H33.2348V56.8992C33.2349 57.3911 33.0398 57.8629 32.6923 58.2109C32.3448 58.559 31.8733 58.7548 31.3815 58.7554ZM36.5305 51.6395C36.5301 52.1308 36.3348 52.6019 35.9875 52.9493C35.6402 53.2968 35.1692 53.4923 34.6779 53.4928H16.3837C15.8924 53.4923 15.4214 53.2968 15.0741 52.9493C14.7268 52.6019 14.5315 52.1308 14.5311 51.6395V49.7863H36.5305V51.6395ZM39.6786 36.6041C37.7797 39.4977 36.7128 42.9699 35.6819 46.3357C35.4816 46.9868 35.2899 47.6132 35.0938 48.2303H15.9677C15.7637 47.5894 15.5619 46.9325 15.3651 46.2916C14.3408 42.9496 13.2811 39.4919 11.383 36.6041C9.71147 34.053 8.7609 31.0973 8.63189 28.0501C8.50289 25.0029 9.20024 21.9775 10.6501 19.2941C12.1 16.6108 14.2485 14.3695 16.868 12.8074C19.4876 11.2453 22.4808 10.4206 25.5308 10.4206C28.5807 10.4206 31.574 11.2453 34.1935 12.8074C36.8131 14.3695 38.9616 16.6108 40.4114 19.2941C41.8613 21.9775 42.5587 25.0029 42.4297 28.0501C42.3007 31.0973 41.3501 34.053 39.6786 36.6041ZM24.7524 5.41716V0.096714C24.7524 -0.109718 24.8344 -0.307696 24.9804 -0.453666C25.1264 -0.599636 25.3243 -0.681641 25.5308 -0.681641C25.7372 -0.681641 25.9352 -0.599636 26.0812 -0.453666C26.2271 -0.307696 26.3091 -0.109718 26.3091 0.096714V5.41716C26.3091 5.62359 26.2271 5.82157 26.0812 5.96754C25.9352 6.11351 25.7372 6.19551 25.5308 6.19551C25.3243 6.19551 25.1264 6.11351 24.9804 5.96754C24.8344 5.82157 24.7524 5.62359 24.7524 5.41716ZM8.09737 12.9598L4.33581 9.19825C4.1971 9.05091 4.12123 8.85533 4.12429 8.65299C4.12734 8.45065 4.20908 8.25745 4.35217 8.11436C4.49527 7.97127 4.68846 7.88953 4.8908 7.88648C5.09314 7.88342 5.28872 7.95929 5.43607 8.09799L9.19763 11.8596C9.33634 12.0069 9.4122 12.2025 9.40915 12.4048C9.40609 12.6072 9.32435 12.8004 9.18126 12.9434C9.03817 13.0865 8.84497 13.1683 8.64263 13.1713C8.44029 13.1744 8.24472 13.0985 8.09737 12.9598ZM2.43332 29.2915C2.43333 29.4972 2.35192 29.6945 2.20689 29.8404C2.06185 29.9862 1.86499 30.0687 1.65931 30.0699H-3.66403C-3.87046 30.0699 -4.06844 29.9879 -4.21441 29.8419C-4.36038 29.6959 -4.44238 29.4979 -4.44238 29.2915C-4.44238 29.0851 -4.36038 28.8871 -4.21441 28.7411C-4.06844 28.5952 -3.87046 28.5132 -3.66403 28.5132H1.65931C1.86524 28.5139 2.06248 28.5963 2.20782 28.7422C2.35316 28.888 2.43332 29.0856 2.43332 29.2915ZM46.7257 8.09727C46.8716 8.24322 46.9535 8.44109 46.9535 8.6474C46.9535 8.85371 46.8716 9.05158 46.7257 9.19753L42.9642 12.9591C42.8168 13.0978 42.6213 13.1737 42.4189 13.1706C42.2166 13.1676 42.0234 13.0858 41.8803 12.9427C41.7372 12.7996 41.6555 12.6064 41.6524 12.4041C41.6494 12.2018 41.7252 12.0062 41.8639 11.8588L45.6255 8.09727C45.7714 7.95146 45.9693 7.86955 46.1756 7.86955C46.3819 7.86955 46.5798 7.95146 46.7257 8.09727ZM55.5047 29.2922C55.5047 29.4987 55.4227 29.6966 55.2767 29.8426C55.1307 29.9886 54.9327 30.0706 54.7263 30.0706H49.4022C49.1958 30.0706 48.9978 29.9886 48.8519 29.8426C48.7059 29.6966 48.6239 29.4987 48.6239 29.2922C48.6239 29.0858 48.7059 28.8878 48.8519 28.7419C48.9978 28.5959 49.1958 28.5139 49.4022 28.5139H54.7227C54.8251 28.5135 54.9265 28.5333 55.0213 28.5722C55.116 28.6111 55.2021 28.6683 55.2747 28.7406C55.3473 28.8128 55.4049 28.8987 55.4442 28.9932C55.4835 29.0877 55.5046 29.1898 55.5047 29.2922ZM35.9843 22.86C36.9196 20.2645 36.78 18.1956 35.5734 16.9883C34.2641 15.6783 31.9385 15.6255 29.0269 16.8436C27.7064 17.41 26.4462 18.1077 25.2653 18.9262C24.9277 18.6962 24.5901 18.4777 24.2526 18.2709C24.3082 17.8384 24.227 17.3994 24.0202 17.0155C23.8135 16.6316 23.4917 16.3221 23.1 16.1306C22.7083 15.939 22.2665 15.875 21.8365 15.9475C21.4066 16.02 21.0102 16.2253 20.703 16.5347C18.1711 15.6501 16.1406 15.8063 14.9572 16.9905C13.7506 18.1971 13.611 20.2652 14.5448 22.8592C12.0506 24.0326 10.6863 25.5936 10.6863 27.3001C10.6863 29.0065 12.0506 30.5668 14.5448 31.7401C13.611 34.3342 13.7491 36.4023 14.9572 37.6089C15.3329 37.9586 15.7752 38.2291 16.2576 38.4045C16.74 38.5798 17.2527 38.6564 17.7653 38.6296C18.7691 38.6053 19.7619 38.4141 20.703 38.0639C21.0093 38.3757 21.406 38.5831 21.8368 38.6569C22.2676 38.7307 22.7108 38.6671 23.1034 38.475C23.496 38.283 23.8183 37.9723 24.0246 37.5869C24.2308 37.2015 24.3106 36.761 24.2526 36.3278C24.5901 36.1209 24.9277 35.9025 25.2653 35.6724C26.4462 36.4909 27.7064 37.1886 29.0269 37.755C30.2042 38.2862 31.4737 38.583 32.7646 38.6289C33.2769 38.6556 33.7894 38.5788 34.2715 38.4032C34.7536 38.2276 35.1954 37.9567 35.5705 37.6067C36.7771 36.4002 36.9167 34.332 35.9821 31.738C38.4771 30.5647 39.8414 29.0036 39.8414 27.2979C39.841 27.1444 39.8294 26.9911 39.8066 26.8393C40.1452 26.4781 40.3444 26.0084 40.3685 25.514C40.3926 25.0195 40.2402 24.5326 39.9383 24.1403C39.6365 23.7479 39.205 23.4756 38.7209 23.3722C38.2368 23.2687 37.7317 23.3407 37.2958 23.5754C36.8746 23.3087 36.4365 23.0697 35.9843 22.86ZM34.4732 18.0857C35.2023 18.8148 35.2183 20.3281 34.5347 22.2668C32.3883 21.5442 30.1584 21.0994 27.8991 20.943C27.4733 20.5784 27.0434 20.2293 26.6093 19.8956C30.2277 17.5598 33.3252 16.9406 34.4732 18.0886V18.0857ZM28.7288 30.7592C28.2514 31.2372 27.7643 31.6953 27.2676 32.1337C26.6199 32.1737 25.9523 32.194 25.2646 32.1944C24.5769 32.1949 23.909 32.1747 23.2608 32.1337C22.7737 31.7035 22.2867 31.2454 21.7996 30.7592C20.7156 29.6795 19.7122 28.5216 18.7976 27.295C19.712 26.068 20.7154 24.9099 21.7996 23.83C22.2867 23.3439 22.7737 22.8858 23.2608 22.4556C23.909 22.4156 24.5769 22.3953 25.2646 22.3948C25.9426 22.3948 26.6108 22.4156 27.2691 22.457C27.7638 22.8911 28.2521 23.3526 28.7288 23.8315C29.8135 24.9111 30.8171 26.0693 31.7316 27.2964C30.817 28.5237 29.8134 29.6821 28.7288 30.7621V30.7592ZM32.664 28.6405C33.1336 29.3606 33.5574 30.1096 33.9328 30.8829C32.5956 31.3413 31.2179 31.672 29.8182 31.8704L29.8298 31.8595C30.8426 30.8494 31.7893 29.7752 32.664 28.6434V28.6405ZM25.2769 33.7511L25.2631 33.7613L25.2494 33.7511H25.2769ZM20.7109 31.8704C19.3114 31.6729 17.9337 31.3433 16.5963 30.8858C16.9718 30.1125 17.3956 29.3635 17.8651 28.6434C18.7397 29.7761 19.6864 30.8514 20.6993 31.8624L20.7109 31.8704ZM17.863 25.9517C17.3934 25.2316 16.9696 24.4826 16.5942 23.7092C17.9315 23.2518 19.3092 22.9222 20.7087 22.7247L20.6972 22.7355C19.6844 23.7456 18.7377 24.8199 17.863 25.9517ZM25.2479 20.8417L25.2617 20.8316L25.2747 20.8417H25.2479ZM29.8276 22.7327L29.8182 22.7232C31.2175 22.9196 32.5952 23.2466 33.9335 23.6998C33.5575 24.4765 33.1328 25.2286 32.6618 25.9517C31.7879 24.819 30.842 23.7437 29.8298 22.7327H29.8276ZM22.1815 17.4751C22.2869 17.4751 22.3898 17.5064 22.4774 17.5649C22.565 17.6235 22.6332 17.7066 22.6735 17.804C22.7138 17.9013 22.7243 18.0084 22.7037 18.1117C22.6831 18.215 22.6323 18.3098 22.5578 18.3843C22.4832 18.4587 22.3883 18.5093 22.285 18.5298C22.1816 18.5503 22.0746 18.5396 21.9773 18.4992C21.88 18.4588 21.7969 18.3905 21.7385 18.3028C21.6801 18.2152 21.649 18.1122 21.6491 18.0068C21.6493 17.8657 21.7055 17.7305 21.8053 17.6308C21.9052 17.5311 22.0405 17.4751 22.1815 17.4751ZM16.056 18.0907C16.7728 17.3746 18.2261 17.3384 20.0946 17.9735C20.0946 17.9844 20.0946 17.996 20.0946 18.0068C20.0944 18.401 20.2058 18.7872 20.4161 19.1207C20.6263 19.4542 20.9266 19.7213 21.2824 19.8912C21.6381 20.061 22.0347 20.1266 22.4262 20.0804C22.8177 20.0342 23.188 19.8781 23.4945 19.6301C23.6391 19.7176 23.7788 19.8073 23.9205 19.8999C23.4894 20.2322 23.0604 20.5806 22.6336 20.9452C20.3727 21.0965 18.1409 21.541 15.9945 22.2675C15.3109 20.3325 15.3268 18.8177 16.0545 18.0886L16.056 18.0907ZM12.2416 27.2979C12.2416 26.2671 13.2999 25.1842 15.1503 24.2988C15.6515 25.3414 16.2319 26.344 16.8864 27.2979C16.2317 28.2514 15.6513 29.2538 15.1503 30.2963C13.2999 29.4109 12.2416 28.3258 12.2416 27.2979ZM22.1815 37.1221C22.0762 37.1222 21.9731 37.0911 21.8855 37.0327C21.7978 36.9742 21.7295 36.8911 21.6891 36.7938C21.6487 36.6964 21.6381 36.5893 21.6586 36.486C21.6791 36.3826 21.7298 36.2877 21.8043 36.2132C21.8789 36.1387 21.9738 36.088 22.0771 36.0675C22.1805 36.0469 22.2876 36.0575 22.3849 36.0979C22.4822 36.1383 22.5653 36.2067 22.6238 36.2943C22.6822 36.382 22.7134 36.485 22.7132 36.5904C22.713 36.7313 22.657 36.8665 22.5573 36.9661C22.4576 37.0658 22.3225 37.1219 22.1815 37.1221ZM23.493 34.9671C23.1866 34.7191 22.8162 34.563 22.4247 34.5168C22.0332 34.4706 21.6367 34.5362 21.2809 34.706C20.9252 34.8759 20.6248 35.143 20.4146 35.4765C20.2044 35.81 20.0929 36.1962 20.0931 36.5904C20.0931 36.6012 20.0931 36.6128 20.0931 36.6237C18.2268 37.2588 16.7714 37.2234 16.0545 36.5065C15.3254 35.7773 15.3094 34.264 15.9916 32.3297C18.138 33.0563 20.3698 33.5008 22.6308 33.652C23.0566 34.0166 23.4855 34.365 23.9176 34.6973C23.7773 34.7899 23.6348 34.8796 23.493 34.9671ZM34.4732 36.5065C34.2409 36.7071 33.9713 36.8599 33.6798 36.9562C33.3884 37.0526 33.0808 37.0905 32.7747 37.0678C31.2469 37.0678 29.0457 36.2721 26.6093 34.6966C27.0434 34.3648 27.4723 34.0166 27.8962 33.652C30.1575 33.5008 32.3895 33.0563 34.5361 32.3297C35.2183 34.2626 35.2023 35.7766 34.4732 36.5065ZM35.3788 30.2963C34.8778 29.2538 34.2974 28.2514 33.6427 27.2979C34.2999 26.3417 34.8825 25.3364 35.3854 24.2908C35.6985 24.4393 36.0037 24.604 36.2997 24.7841C36.2013 25.0958 36.1775 25.4263 36.2301 25.7489C36.2827 26.0715 36.4102 26.3772 36.6026 26.6415C36.7949 26.9058 37.0465 27.1213 37.3373 27.2706C37.6281 27.4199 37.9498 27.4989 38.2767 27.5012C38.145 28.4705 37.1048 29.4695 35.3788 30.2963ZM38.82 25.4135C38.8201 25.5188 38.789 25.6219 38.7305 25.7095C38.6721 25.7972 38.5889 25.8656 38.4916 25.906C38.3943 25.9463 38.2872 25.9569 38.1839 25.9364C38.0805 25.9159 37.9856 25.8652 37.9111 25.7907C37.8366 25.7162 37.7859 25.6212 37.7653 25.5179C37.7448 25.4146 37.7554 25.3074 37.7958 25.2101C37.8362 25.1128 37.9045 25.0297 37.9922 24.9712C38.0799 24.9128 38.1829 24.8817 38.2883 24.8818C38.4292 24.882 38.5643 24.9381 38.664 25.0377C38.7637 25.1374 38.8198 25.2725 38.82 25.4135ZM25.5308 23.6665C24.8126 23.6665 24.1105 23.8795 23.5133 24.2785C22.9161 24.6775 22.4507 25.2447 22.1758 25.9082C21.901 26.5718 21.8291 27.3019 21.9692 28.0063C22.1093 28.7107 22.4552 29.3578 22.963 29.8656C23.4709 30.3735 24.1179 30.7193 24.8223 30.8595C25.5268 30.9996 26.2569 30.9277 26.9204 30.6528C27.584 30.378 28.1511 29.9125 28.5501 29.3154C28.9492 28.7182 29.1621 28.0161 29.1621 27.2979C29.1612 26.3351 28.7783 25.412 28.0975 24.7312C27.4167 24.0504 26.4936 23.6675 25.5308 23.6665ZM25.5308 29.3725C25.1203 29.3725 24.719 29.2508 24.3777 29.0227C24.0364 28.7946 23.7704 28.4705 23.6133 28.0912C23.4563 27.7119 23.4152 27.2946 23.4953 26.892C23.5755 26.4894 23.7732 26.1196 24.0635 25.8294C24.3538 25.5392 24.7237 25.3416 25.1263 25.2616C25.529 25.1816 25.9463 25.2228 26.3255 25.38C26.7047 25.5372 27.0288 25.8033 27.2567 26.1447C27.4847 26.4861 27.6063 26.8874 27.6062 27.2979C27.6054 27.848 27.3865 28.3754 26.9974 28.7643C26.6083 29.1532 26.0809 29.372 25.5308 29.3725Z" fill="#7771D7"/>
<path d="M25.5308 8.86043C22.1998 8.86087 18.9309 9.76197 16.0702 11.4683C13.2094 13.1747 10.8633 15.6228 9.28012 18.5535C7.69697 21.4842 6.9357 24.7885 7.07692 28.1165C7.21814 31.4445 8.25658 34.6724 10.0823 37.4584C11.8582 40.1617 12.8847 43.5102 13.8772 46.7481C14.0269 47.2363 14.1803 47.7347 14.3358 48.2303H13.7527C13.5463 48.2303 13.3483 48.3123 13.2024 48.4582C13.0564 48.6042 12.9744 48.8022 12.9744 49.0086V51.6395C12.9754 52.5239 13.3197 53.3734 13.9348 54.0088C14.5499 54.6443 15.3877 55.0161 16.2715 55.0459V56.8992C16.2725 57.8031 16.632 58.6697 17.2712 59.3089C17.9103 59.948 18.7769 60.3075 19.6808 60.3085H19.7372C20.1578 61.5099 20.9413 62.5509 21.9794 63.2875C23.0176 64.024 24.259 64.4196 25.5319 64.4196C26.8047 64.4196 28.0462 64.024 29.0843 63.2875C30.1224 62.5509 30.906 61.5099 31.3265 60.3085H31.3822C32.2858 60.3072 33.1521 59.9475 33.7909 59.3084C34.4298 58.6693 34.7891 57.8029 34.79 56.8992V55.0459C35.6738 55.0159 36.5114 54.644 37.1263 54.0086C37.7412 53.3732 38.0855 52.5238 38.0864 51.6395V49.0086C38.0864 48.8022 38.0044 48.6042 37.8585 48.4582C37.7125 48.3123 37.5145 48.2303 37.3081 48.2303H36.725C36.8755 47.7499 37.0238 47.266 37.1692 46.7922C38.1689 43.5326 39.2019 40.1624 40.9785 37.4606C42.8048 34.6746 43.8437 31.4465 43.9853 28.1183C44.1268 24.79 43.3657 21.4854 41.7826 18.5544C40.1994 15.6233 37.8532 13.1749 34.9922 11.4684C32.1312 9.76187 28.862 8.86075 25.5308 8.86043ZM25.5308 62.8664C24.6757 62.8656 23.8378 62.6259 23.1116 62.1745C22.3854 61.7231 21.7997 61.0778 21.4205 60.3114H29.6425C29.2649 61.0794 28.6794 61.7261 27.9525 62.1777C27.2256 62.6294 26.3866 62.868 25.5308 62.8664ZM31.3815 58.7554H19.6801C19.1882 58.7548 18.7168 58.559 18.3692 58.2109C18.0217 57.8629 17.8266 57.3911 17.8268 56.8992V55.0488H33.2348V56.8992C33.2349 57.3911 33.0398 57.8629 32.6923 58.2109C32.3448 58.559 31.8733 58.7548 31.3815 58.7554ZM36.5305 51.6395C36.5301 52.1308 36.3348 52.6019 35.9875 52.9493C35.6402 53.2968 35.1692 53.4923 34.6779 53.4928H16.3837C15.8924 53.4923 15.4214 53.2968 15.0741 52.9493C14.7268 52.6019 14.5315 52.1308 14.5311 51.6395V49.7863H36.5305V51.6395ZM39.6786 36.6041C37.7797 39.4977 36.7128 42.9699 35.6819 46.3357C35.4816 46.9868 35.2899 47.6132 35.0938 48.2303H15.9677C15.7637 47.5894 15.5619 46.9325 15.3651 46.2916C14.3408 42.9496 13.2811 39.4919 11.383 36.6041C9.71147 34.053 8.7609 31.0973 8.63189 28.0501C8.50289 25.0029 9.20024 21.9775 10.6501 19.2941C12.1 16.6108 14.2485 14.3695 16.868 12.8074C19.4876 11.2453 22.4808 10.4206 25.5308 10.4206C28.5807 10.4206 31.574 11.2453 34.1935 12.8074C36.8131 14.3695 38.9616 16.6108 40.4114 19.2941C41.8613 21.9775 42.5587 25.0029 42.4297 28.0501C42.3007 31.0973 41.3501 34.053 39.6786 36.6041ZM24.7524 5.41716V0.096714C24.7524 -0.109718 24.8344 -0.307696 24.9804 -0.453666C25.1264 -0.599636 25.3243 -0.681641 25.5308 -0.681641C25.7372 -0.681641 25.9352 -0.599636 26.0812 -0.453666C26.2271 -0.307696 26.3091 -0.109718 26.3091 0.096714V5.41716C26.3091 5.62359 26.2271 5.82157 26.0812 5.96754C25.9352 6.11351 25.7372 6.19551 25.5308 6.19551C25.3243 6.19551 25.1264 6.11351 24.9804 5.96754C24.8344 5.82157 24.7524 5.62359 24.7524 5.41716ZM8.09737 12.9598L4.33581 9.19825C4.1971 9.05091 4.12123 8.85533 4.12429 8.65299C4.12734 8.45065 4.20908 8.25745 4.35217 8.11436C4.49527 7.97127 4.68846 7.88953 4.8908 7.88648C5.09314 7.88342 5.28872 7.95929 5.43607 8.09799L9.19763 11.8596C9.33634 12.0069 9.4122 12.2025 9.40915 12.4048C9.40609 12.6072 9.32435 12.8004 9.18126 12.9434C9.03817 13.0865 8.84497 13.1683 8.64263 13.1713C8.44029 13.1744 8.24472 13.0985 8.09737 12.9598ZM2.43332 29.2915C2.43333 29.4972 2.35192 29.6945 2.20689 29.8404C2.06185 29.9862 1.86499 30.0687 1.65931 30.0699H-3.66403C-3.87046 30.0699 -4.06844 29.9879 -4.21441 29.8419C-4.36038 29.6959 -4.44238 29.4979 -4.44238 29.2915C-4.44238 29.0851 -4.36038 28.8871 -4.21441 28.7411C-4.06844 28.5952 -3.87046 28.5132 -3.66403 28.5132H1.65931C1.86524 28.5139 2.06248 28.5963 2.20782 28.7422C2.35316 28.888 2.43332 29.0856 2.43332 29.2915ZM46.7257 8.09727C46.8716 8.24322 46.9535 8.44109 46.9535 8.6474C46.9535 8.85371 46.8716 9.05158 46.7257 9.19753L42.9642 12.9591C42.8168 13.0978 42.6213 13.1737 42.4189 13.1706C42.2166 13.1676 42.0234 13.0858 41.8803 12.9427C41.7372 12.7996 41.6555 12.6064 41.6524 12.4041C41.6494 12.2018 41.7252 12.0062 41.8639 11.8588L45.6255 8.09727C45.7714 7.95146 45.9693 7.86955 46.1756 7.86955C46.3819 7.86955 46.5798 7.95146 46.7257 8.09727ZM55.5047 29.2922C55.5047 29.4987 55.4227 29.6966 55.2767 29.8426C55.1307 29.9886 54.9327 30.0706 54.7263 30.0706H49.4022C49.1958 30.0706 48.9978 29.9886 48.8519 29.8426C48.7059 29.6966 48.6239 29.4987 48.6239 29.2922C48.6239 29.0858 48.7059 28.8878 48.8519 28.7419C48.9978 28.5959 49.1958 28.5139 49.4022 28.5139H54.7227C54.8251 28.5135 54.9265 28.5333 55.0213 28.5722C55.116 28.6111 55.2021 28.6683 55.2747 28.7406C55.3473 28.8128 55.4049 28.8987 55.4442 28.9932C55.4835 29.0877 55.5046 29.1898 55.5047 29.2922ZM35.9843 22.86C36.9196 20.2645 36.78 18.1956 35.5734 16.9883C34.2641 15.6783 31.9385 15.6255 29.0269 16.8436C27.7064 17.41 26.4462 18.1077 25.2653 18.9262C24.9277 18.6962 24.5901 18.4777 24.2526 18.2709C24.3082 17.8384 24.227 17.3994 24.0202 17.0155C23.8135 16.6316 23.4917 16.3221 23.1 16.1306C22.7083 15.939 22.2665 15.875 21.8365 15.9475C21.4066 16.02 21.0102 16.2253 20.703 16.5347C18.1711 15.6501 16.1406 15.8063 14.9572 16.9905C13.7506 18.1971 13.611 20.2652 14.5448 22.8592C12.0506 24.0326 10.6863 25.5936 10.6863 27.3001C10.6863 29.0065 12.0506 30.5668 14.5448 31.7401C13.611 34.3342 13.7491 36.4023 14.9572 37.6089C15.3329 37.9586 15.7752 38.2291 16.2576 38.4045C16.74 38.5798 17.2527 38.6564 17.7653 38.6296C18.7691 38.6053 19.7619 38.4141 20.703 38.0639C21.0093 38.3757 21.406 38.5831 21.8368 38.6569C22.2676 38.7307 22.7108 38.6671 23.1034 38.475C23.496 38.283 23.8183 37.9723 24.0246 37.5869C24.2308 37.2015 24.3106 36.761 24.2526 36.3278C24.5901 36.1209 24.9277 35.9025 25.2653 35.6724C26.4462 36.4909 27.7064 37.1886 29.0269 37.755C30.2042 38.2862 31.4737 38.583 32.7646 38.6289C33.2769 38.6556 33.7894 38.5788 34.2715 38.4032C34.7536 38.2276 35.1954 37.9567 35.5705 37.6067C36.7771 36.4002 36.9167 34.332 35.9821 31.738C38.4771 30.5647 39.8414 29.0036 39.8414 27.2979C39.841 27.1444 39.8294 26.9911 39.8066 26.8393C40.1452 26.4781 40.3444 26.0084 40.3685 25.514C40.3926 25.0195 40.2402 24.5326 39.9383 24.1403C39.6365 23.7479 39.205 23.4756 38.7209 23.3722C38.2368 23.2687 37.7317 23.3407 37.2958 23.5754C36.8746 23.3087 36.4365 23.0697 35.9843 22.86ZM34.4732 18.0857C35.2023 18.8148 35.2183 20.3281 34.5347 22.2668C32.3883 21.5442 30.1584 21.0994 27.8991 20.943C27.4733 20.5784 27.0434 20.2293 26.6093 19.8956C30.2277 17.5598 33.3252 16.9406 34.4732 18.0886V18.0857ZM28.7288 30.7592C28.2514 31.2372 27.7643 31.6953 27.2676 32.1337C26.6199 32.1737 25.9523 32.194 25.2646 32.1944C24.5769 32.1949 23.909 32.1747 23.2608 32.1337C22.7737 31.7035 22.2867 31.2454 21.7996 30.7592C20.7156 29.6795 19.7122 28.5216 18.7976 27.295C19.712 26.068 20.7154 24.9099 21.7996 23.83C22.2867 23.3439 22.7737 22.8858 23.2608 22.4556C23.909 22.4156 24.5769 22.3953 25.2646 22.3948C25.9426 22.3948 26.6108 22.4156 27.2691 22.457C27.7638 22.8911 28.2521 23.3526 28.7288 23.8315C29.8135 24.9111 30.8171 26.0693 31.7316 27.2964C30.817 28.5237 29.8134 29.6821 28.7288 30.7621V30.7592ZM32.664 28.6405C33.1336 29.3606 33.5574 30.1096 33.9328 30.8829C32.5956 31.3413 31.2179 31.672 29.8182 31.8704L29.8298 31.8595C30.8426 30.8494 31.7893 29.7752 32.664 28.6434V28.6405ZM25.2769 33.7511L25.2631 33.7613L25.2494 33.7511H25.2769ZM20.7109 31.8704C19.3114 31.6729 17.9337 31.3433 16.5963 30.8858C16.9718 30.1125 17.3956 29.3635 17.8651 28.6434C18.7397 29.7761 19.6864 30.8514 20.6993 31.8624L20.7109 31.8704ZM17.863 25.9517C17.3934 25.2316 16.9696 24.4826 16.5942 23.7092C17.9315 23.2518 19.3092 22.9222 20.7087 22.7247L20.6972 22.7355C19.6844 23.7456 18.7377 24.8199 17.863 25.9517ZM25.2479 20.8417L25.2617 20.8316L25.2747 20.8417H25.2479ZM29.8276 22.7327L29.8182 22.7232C31.2175 22.9196 32.5952 23.2466 33.9335 23.6998C33.5575 24.4765 33.1328 25.2286 32.6618 25.9517C31.7879 24.819 30.842 23.7437 29.8298 22.7327H29.8276ZM22.1815 17.4751C22.2869 17.4751 22.3898 17.5064 22.4774 17.5649C22.565 17.6235 22.6332 17.7066 22.6735 17.804C22.7138 17.9013 22.7243 18.0084 22.7037 18.1117C22.6831 18.215 22.6323 18.3098 22.5578 18.3843C22.4832 18.4587 22.3883 18.5093 22.285 18.5298C22.1816 18.5503 22.0746 18.5396 21.9773 18.4992C21.88 18.4588 21.7969 18.3905 21.7385 18.3028C21.6801 18.2152 21.649 18.1122 21.6491 18.0068C21.6493 17.8657 21.7055 17.7305 21.8053 17.6308C21.9052 17.5311 22.0405 17.4751 22.1815 17.4751ZM16.056 18.0907C16.7728 17.3746 18.2261 17.3384 20.0946 17.9735C20.0946 17.9844 20.0946 17.996 20.0946 18.0068C20.0944 18.401 20.2058 18.7872 20.4161 19.1207C20.6263 19.4542 20.9266 19.7213 21.2824 19.8912C21.6381 20.061 22.0347 20.1266 22.4262 20.0804C22.8177 20.0342 23.188 19.8781 23.4945 19.6301C23.6391 19.7176 23.7788 19.8073 23.9205 19.8999C23.4894 20.2322 23.0604 20.5806 22.6336 20.9452C20.3727 21.0965 18.1409 21.541 15.9945 22.2675C15.3109 20.3325 15.3268 18.8177 16.0545 18.0886L16.056 18.0907ZM12.2416 27.2979C12.2416 26.2671 13.2999 25.1842 15.1503 24.2988C15.6515 25.3414 16.2319 26.344 16.8864 27.2979C16.2317 28.2514 15.6513 29.2538 15.1503 30.2963C13.2999 29.4109 12.2416 28.3258 12.2416 27.2979ZM22.1815 37.1221C22.0762 37.1222 21.9731 37.0911 21.8855 37.0327C21.7978 36.9742 21.7295 36.8911 21.6891 36.7938C21.6487 36.6964 21.6381 36.5893 21.6586 36.486C21.6791 36.3826 21.7298 36.2877 21.8043 36.2132C21.8789 36.1387 21.9738 36.088 22.0771 36.0675C22.1805 36.0469 22.2876 36.0575 22.3849 36.0979C22.4822 36.1383 22.5653 36.2067 22.6238 36.2943C22.6822 36.382 22.7134 36.485 22.7132 36.5904C22.713 36.7313 22.657 36.8665 22.5573 36.9661C22.4576 37.0658 22.3225 37.1219 22.1815 37.1221ZM23.493 34.9671C23.1866 34.7191 22.8162 34.563 22.4247 34.5168C22.0332 34.4706 21.6367 34.5362 21.2809 34.706C20.9252 34.8759 20.6248 35.143 20.4146 35.4765C20.2044 35.81 20.0929 36.1962 20.0931 36.5904C20.0931 36.6012 20.0931 36.6128 20.0931 36.6237C18.2268 37.2588 16.7714 37.2234 16.0545 36.5065C15.3254 35.7773 15.3094 34.264 15.9916 32.3297C18.138 33.0563 20.3698 33.5008 22.6308 33.652C23.0566 34.0166 23.4855 34.365 23.9176 34.6973C23.7773 34.7899 23.6348 34.8796 23.493 34.9671ZM34.4732 36.5065C34.2409 36.7071 33.9713 36.8599 33.6798 36.9562C33.3884 37.0526 33.0808 37.0905 32.7747 37.0678C31.2469 37.0678 29.0457 36.2721 26.6093 34.6966C27.0434 34.3648 27.4723 34.0166 27.8962 33.652C30.1575 33.5008 32.3895 33.0563 34.5361 32.3297C35.2183 34.2626 35.2023 35.7766 34.4732 36.5065ZM35.3788 30.2963C34.8778 29.2538 34.2974 28.2514 33.6427 27.2979C34.2999 26.3417 34.8825 25.3364 35.3854 24.2908C35.6985 24.4393 36.0037 24.604 36.2997 24.7841C36.2013 25.0958 36.1775 25.4263 36.2301 25.7489C36.2827 26.0715 36.4102 26.3772 36.6026 26.6415C36.7949 26.9058 37.0465 27.1213 37.3373 27.2706C37.6281 27.4199 37.9498 27.4989 38.2767 27.5012C38.145 28.4705 37.1048 29.4695 35.3788 30.2963ZM38.82 25.4135C38.8201 25.5188 38.789 25.6219 38.7305 25.7095C38.6721 25.7972 38.5889 25.8656 38.4916 25.906C38.3943 25.9463 38.2872 25.9569 38.1839 25.9364C38.0805 25.9159 37.9856 25.8652 37.9111 25.7907C37.8366 25.7162 37.7859 25.6212 37.7653 25.5179C37.7448 25.4146 37.7554 25.3074 37.7958 25.2101C37.8362 25.1128 37.9045 25.0297 37.9922 24.9712C38.0799 24.9128 38.1829 24.8817 38.2883 24.8818C38.4292 24.882 38.5643 24.9381 38.664 25.0377C38.7637 25.1374 38.8198 25.2725 38.82 25.4135ZM25.5308 23.6665C24.8126 23.6665 24.1105 23.8795 23.5133 24.2785C22.9161 24.6775 22.4507 25.2447 22.1758 25.9082C21.901 26.5718 21.8291 27.3019 21.9692 28.0063C22.1093 28.7107 22.4552 29.3578 22.963 29.8656C23.4709 30.3735 24.1179 30.7193 24.8223 30.8595C25.5268 30.9996 26.2569 30.9277 26.9204 30.6528C27.584 30.378 28.1511 29.9125 28.5501 29.3154C28.9492 28.7182 29.1621 28.0161 29.1621 27.2979C29.1612 26.3351 28.7783 25.412 28.0975 24.7312C27.4167 24.0504 26.4936 23.6675 25.5308 23.6665ZM25.5308 29.3725C25.1203 29.3725 24.719 29.2508 24.3777 29.0227C24.0364 28.7946 23.7704 28.4705 23.6133 28.0912C23.4563 27.7119 23.4152 27.2946 23.4953 26.892C23.5755 26.4894 23.7732 26.1196 24.0635 25.8294C24.3538 25.5392 24.7237 25.3416 25.1263 25.2616C25.529 25.1816 25.9463 25.2228 26.3255 25.38C26.7047 25.5372 27.0288 25.8033 27.2567 26.1447C27.4847 26.4861 27.6063 26.8874 27.6062 27.2979C27.6054 27.848 27.3865 28.3754 26.9974 28.7643C26.6083 29.1532 26.0809 29.372 25.5308 29.3725Z" stroke="#7771D7" stroke-width="0.4" mask="url(#path-3-outside-1_1_7508)"/>
</g>
<defs>
<clipPath id="clip0_1_7508">
<rect x="10.0483" y="15.5078" width="30.9033" height="24" rx="8" fill="white"/>
</clipPath>
</defs>
</svg>
